<?xml version="1.0" encoding="utf-8"?>
<!-- Generator: Adobe Illustrator 25.0.1, SVG Export Plug-In . SVG Version: 6.00 Build 0)  -->
<svg version="1.1" id="Layer_1" xmlns="http://www.w3.org/2000/svg" xmlns:xlink="http://www.w3.org/1999/xlink" x="0px" y="0px"
	 viewBox="0 0 500 500" style="enable-background:new 0 0 500 500;" xml:space="preserve">
<style type="text/css">
	.st0{stroke:#000000;stroke-miterlimit:10;}
</style>
<g transform="matrix( 1, 0, 0, 1, 0,0) ">
	<g>
		<g id="Layer0_0_FILL">
			<path class="st0" d="M330.7,90.1c0.1,0.9,0,2.4,0.5,3C333.1,91.7,333,90.7,330.7,90.1z M330.7,90.1c0.1,0.9,0,2.4,0.5,3
				C333.1,91.7,333,90.7,330.7,90.1z M330.7,90.1c0.1,0.9,0,2.4,0.5,3C333.1,91.7,333,90.7,330.7,90.1z"/>
			<path class="st0" d="M460.1,220.3c-3.7-8.1-11.9-11.7-21.3-15.5c-22.3-17.5-44.7-32.3-57.6-58.7c-2.4-7.4-3.1-17.1-6-22.2
				c-2.7-4.9,0.1-9.9-3-15.4c-1-3.4,3-7.5-0.9-9.8c-5.5-9.3-4.5-21.7-11.7-30.4c-5.6-5.7-12.3-11.6-16.3-17.9
				C299.6,20.2,249.7,8.8,195,4.4c-20.2-0.4-34.1,3.4-51.9,8.9c-5,6.3-6.3,16.7-11.5,21.4c1.5,2.2,1,3.9-1.3,4.7
				c-2.8,3.4-2.5,8.1-4.8,11.5c0.3,2.8,0.2,10.4-3.6,9.9c0.6,3.6-0.7,7.3-2.7,9.9c-4.2,9.5-10.6,19.6-16.2,28.5
				c-5.9,5.4-5.5,16.5-12,21.7c-11.4,25.5-16.7,48.4-28.8,73.2c-2.6,9.1-8.3,17.1-9.8,27c-2.9,3.3,0.9,10-3.5,10.8
				c-0.1,1.4-0.1,4.2-1.7,4.5c1,4.4-2.7,4.6-1.8,9c-2.5,1.4-4.3,4.3-3.5,7.2c-1.4,4.8-6.7,7.5-5.4,13.5c0.5,43.1,8.4,82.7,44,110.4
				c39.5,44,105.3,58.2,160.1,35c10.6-3.3,11.3-13.1,17.5-18.2c3.6,10.7-1.5,34.5,9.7,44.5c-2.2,0.1-0.2,3.1,1.8,2.7
				c-1.2,1.6-1.3,3.5,1.7,1.8c-0.1,0.1,0.4,2.7-0.9,1.8c-0.5,2.5,2.9,2,3.9,3.5c-0.2,2.7-0.3,3,2.5,2.7c4,2-1.8,7,3.6,4.5
				c6.8,3,3.6,12.3,10.7,13.5c0,9.5,10.9,10.9,14.4,17.8c4.5,12.4,21.6,14.3,32.1,9c6.2-5.5-1.8-19.1,11.7-18
				c1.7,0.4,0.7-2.5,0.9-3.6c6.4-4.7,4.9-11.9,3.6-18.8c8.3-3.5,7.6-12.9,8-20.5c13.8-4.5,6-16.2,14.1-25.1
				c7.9-9.2,8.3-4.8,7.3-19.6c1.7-9.1,14.1-10.7,14.1-18.7c-3.3-9.7,0.3-14.2,2.1-22.5c14.2-0.8,6.9-13,15-19.1
				c6.3-9.1-1.6-12.5,11.9-22.2c-3.3-9.9,8-14.2,5.1-24.3c1.5-5.9,10.6-8.6,12.7-15.1c1.3-6.8-3.6-16.6,1.1-21.2
				C457.7,246.4,467.7,229.7,460.1,220.3z M153,65.1c15.4-46.5,73.1-23.1,107.3-14.7c37.6,5.5,85.8,32.8,79.2,65.6
				c-6.5,22.9-22.3,38.4-48,36.8C246.6,153.3,146.8,120.1,153,65.1z M278.3,294.6c-4.2,20.1-12,40.4-22.3,59
				c-4.7,15-9.7,34.4-31.3,33.1c-56.1,13.1-115.9-7.8-151.9-59c-13.3-12.8,10.5-40.6-9-38.4c-7.1,12.5-7.6,1-7-6.3
				c7.1-10.1,12.2-23.3,17.3-33.1c6.5-28.3,20.8-54.5,30.8-82.3c13.4-16.9,17.1-51.2,31.9-59.8c5.4,11.4,19.4,22,30,28.7
				c45,28.3,106.1,59.7,158.5,30c1.9,1.7-0.7,8.7-2.6,9.2c1.1,18.2-13.9,34-16.8,48.3c-5.6,9.2-6.9,25.1-14.3,34.8
				C284.4,269,283.5,283,278.3,294.6z M427.3,225.7c-3.9,4.9-9.8,8.2-14.7,11.5c-1.9,6.5,8.5,15.6,0,18.8
				c-32.7,22.1-5.8,16-19.3,34.9c1.4,9.4-8.4,7.3-12.8,10.7c13.9,27.1-7.5,18-16.3,35c3.3,12.4,2.9,22.5-10.7,26.7
				c4.3,26.6-0.2,18.5-12.3,36.6c-4.9,4.6,0.9,18.6-1.8,25.1c-18.3,7.9-10.9,15.5-16,29.3c-14,15.7-45.2-43.7-42.9-58.7
				c-5-17.7,13.1-35.7,14.3-53.7c10.5-17.5,12.7-37.9,20.4-55.6c14.8-28.7,21.1-60.9,36.9-90.3c10-32.8,0.3-34.3,32.2-0.8
				c7.3,10.1,23,18.8,24.7,31.4C414.2,228.6,424.4,216.7,427.3,225.7z"/>
			<path class="st0" d="M97.5,240c-0.9,7.3-7.3,30.7-16.8,22.4C74.7,256.9,95,227,97.5,240z"/>
			<path class="st0" d="M120.7,190.9c-2.9,4.6-5.6,10.6-9.7,14.9c-7.9,2.5-6.6-10.1-5.2-13.9c4.8,0.3,3-7,7.1-9
				C116.3,177.6,123.5,184.8,120.7,190.9z"/>
			<path class="st0" d="M144.1,136.6c-0.3,6.7-9.2,23.9-15.2,14.4C123.1,142.6,142.3,117.9,144.1,136.6z"/>
			<path class="st0" d="M294.7,92.6c-15.9-24-53.3-35.2-80.1-32c-35.5,6.4-22,37,2.5,49C236.4,127.1,307,132.2,294.7,92.6z
				 M273.4,104.4c-12.4,8.1-83-26.7-47.2-28.6C233.6,79.7,278.8,94.9,273.4,104.4z"/>
			<path class="st0" d="M221,307.9c-15.1,36.8-69.1,21.7-81.3-12.8c-6.7-9.7-10.2-47.1,10.3-28.4c0.8,13,6.6,22.5,15.7,30.4
				c11.9,3.9,26,17,36.5,7.1C209.6,290,224.3,284.1,221,307.9z"/>
			<path class="st0" d="M218,247.4c0.3,3.9-3.9,2.3-3.3,5.3c0.2,18.4-25.3,9.1-21.4-5.5c3.3,1.7,1.2-6.1,1.8-7.2
				C203.9,230.6,218,231.5,218,247.4z"/>
			<path class="st0" d="M187,231.2c-5.2,16.4-29.6,18.2-25-1.7C162.1,210.9,191,206.9,187,231.2z"/>
		</g>
	</g>
</g>
</svg>
