<?xml version="1.0" encoding="utf-8"?>
<!-- Generator: Adobe Illustrator 25.0.1, SVG Export Plug-In . SVG Version: 6.00 Build 0)  -->
<svg version="1.1" id="Layer_1" xmlns="http://www.w3.org/2000/svg" xmlns:xlink="http://www.w3.org/1999/xlink" x="0px" y="0px"
	 viewBox="0 0 500 550" style="enable-background:new 0 0 500 550;" xml:space="preserve">
<g id="Layer_2">
	<g transform="matrix( 1, 0, 0, 1, 0,0) ">
		<g>
			<g id="Layer0_0_FILL">
				<path d="M339.5,89.7c0.1-1.2-0.3-1.9-1.2-2.2c-3.6-1-6.4-2.8-8.5-5.4c0-0.3-0.1-0.5-0.2-0.6c-1.3-1-2.9-1.7-4.9-1.9
					c0.4-1.2,0.1-1.7-0.8-1.6c-1.5,0.3-2.5,0.1-3-0.7c-0.3-0.5-0.7-0.7-1.3-0.8c-1.5-0.1-2.3-0.8-2.5-2c0-0.3-0.1-0.5-0.2-0.6
					c-2.8-1.7-5.9-3.2-9-4.5c-0.3,0-0.6,0-0.9,0c-0.3,0-0.5,0-0.8,0c0-0.3,0-0.4-0.1-0.5c-3.7-1.5-7.2-3-10.8-4.6
					c-0.6,0-1.1-0.1-1.6-0.2c-0.9-0.4-1.8-0.8-2.7-1.3c-1.4-0.8-3.1-1.4-5-1.6c-0.5-0.1-0.9-0.3-1.2-0.5c-0.9-1.1-2.5-1.5-4.7-1.2
					c0-0.3-0.1-0.5-0.2-0.6c-1-1-2.6-1.3-4.8-1.1c-0.3,0-0.5,0-0.8-0.2c-0.4-0.2-0.7-0.4-1-0.6c0-0.3,0-0.5-0.1-0.5
					c-0.5-0.2-0.9-0.5-1.2-0.8c-1.2-1-3-1.4-5.3-1.3c-0.3,0-0.6,0-0.9,0c0-0.3,0-0.5-0.1-0.8c-0.2-0.3-0.4-0.5-0.6-0.5
					c-1.5,0.3-2.9,0.7-4.2,1.2c-0.3,0-0.5,0-0.5-0.2c-0.2-0.4-0.4-0.7-0.6-0.8c-1.9-0.7-3.8-1.2-5.6-1.6c0-0.3,0-0.4,0-0.4
					c-3.9-0.3-7.8-0.5-11.7-0.5c0-0.3-0.1-0.4-0.2-0.5c-1.4-1.1-3.6-1.5-6.5-1.1c-0.3,0-0.5,0-0.8-0.1c-1.6-0.1-2.9-0.3-4.2-0.8
					c0-0.3,0-0.4-0.1-0.4c-2.5-0.3-5-0.5-7.5-0.5c-0.8-0.5-1.7-0.9-2.6-1.2c-1.3-0.3-2.6-0.7-3.9-1c-1.9-0.4-4.1-0.6-6.8-0.4
					c-0.3,0-0.6,0-0.9,0c-3.5-0.1-6.8-0.4-10-0.9c-0.3,0-0.6,0-0.9,0c-0.8,0-1.6,0-2.5,0c-0.3,0-0.6,0-0.9,0
					c-4.6-0.1-8.8,0.2-12.5,0.9c0,0.3,0,0.5,0,0.8c-0.3,0-0.6,0-0.9,0c-1.1,0-2.2,0-3.4,0c-0.3,0-0.6,0-0.8,0c-2.8-0.3-5,0-6.7,0.9
					c0,0.3,0,0.5,0,0.8c-0.3,0-0.5,0-0.8,0c-1.1,0-2.2,0-3.4,0c-0.3,0-0.6,0-0.8,0.1c-1.1,0.2-2.2,0.5-3.4,0.8c0,0.3,0,0.6,0,0.9
					c-0.3,0-0.6,0-0.9,0c-0.6,0-0.9,0.1-0.9,0.3c-0.7,1.6-2.3,2-4.9,1.3c-0.3,0-0.6,0.1-0.8,0.2c-1.2,0.7-2.7,1.2-4.3,1.5
					c0,0.3,0,0.5,0,0.8c0,0.3-0.1,0.5-0.2,0.6c-0.1,0.1-0.3,0.2-0.6,0.2c-0.3,0-0.5,0.1-0.5,0.2c-1.7,3.5-3.5,6.7-5.4,9.8
					c0,0.3,0,0.6,0,0.9c0,0.3,0,0.6,0,0.8c0,0.3,0,0.6,0.1,0.8c0.1,1.5-0.5,2.3-1.7,2.5h-0.4c0,2-0.7,3.1-2.1,3.3
					c0.3,0.6,0.6,1.1,0.8,1.7c0.1,0.3,0.1,0.5,0.1,0.8c0,0.3-0.1,0.5-0.2,0.7c-0.4,0.4-0.9,0.8-1.4,1.1c-0.3,0-0.5,0-0.5,0.1
					c-0.6,1.2-1.3,2.3-2.1,3.2c0,0.3,0,0.6,0,0.8c0,0.3,0,0.5,0,0.8c-0.3,0-0.4,0-0.4,0.1c-0.4,2.4-1.1,4.3-2.1,5.8
					c0.7,1.5,0.8,2.4,0.2,2.8c-0.1,0.1-0.2,0.2-0.2,0.6c-0.9-0.1-1.2,0.5-0.9,1.6c0.8,3,0,4.4-2.5,4.2c0,1.4,0,2.8,0,4.2
					c0,0.3,0,0.5,0,0.8c-0.3,0-0.4,0-0.4,0.1c-0.4,1.7-1.1,3.1-2,4.1c0,0.6,0,1.1,0,1.7c0,0.3,0,0.5,0,0.8c-0.6,0-0.9,0.1-1.1,0.4
					c-0.8,1.1-1.5,2-2.3,2.9c-0.3,0.3-0.4,0.6-0.4,0.9c-0.2,3.1-1.4,5.1-3.8,5.8c0,0.3,0,0.6,0,0.8c0,0.3,0,0.6,0,0.8
					c-0.3,0.3-0.6,0.6-0.8,0.8c-0.3,0.3-0.4,0.6-0.4,0.9c-0.4,2.6-1.6,4.3-3.7,5c0,0.3,0,0.5,0,0.8c-0.1,2.4-1,4-2.5,5
					c-0.3,0-0.5,0.1-0.6,0.2c-0.7,0.7-1.3,1.5-1.9,2.3c0,0.3,0,0.5,0,0.8c0,0.3,0,0.6,0,0.9c-0.5,0.8-1,1.7-1.4,2.6
					c-0.2,0.5-0.4,0.9-0.7,1.2c-1.5,2.1-2.5,4.7-2.8,7.9c-0.1,0.5-0.2,0.9-0.5,1c-1.4,0.7-2.4,1.8-3,3.1c-0.3,0-0.5,0.1-0.5,0.1
					c-1,3.6-2.5,6.6-4.5,9.1c0,0.3,0,0.5,0,0.8c0,0.3,0,0.6,0,0.8c0,0.3,0,0.6,0,0.9c-0.1,1.6-0.6,2.8-1.7,3.4c-0.3,0-0.4,0-0.4,0
					c-0.4,2.6-1.4,4.5-3,5.8c0,0.3,0,0.6,0,0.9c0,0.3,0,0.5,0,0.8c0,0.3,0,0.6,0,0.9h-0.4c0.1,1.8-0.3,2.9-1.2,3.4
					c0,0.3,0,0.5,0,0.8c0,0.3,0,0.6,0.1,0.9c0.2,2.5-0.3,4.2-1.8,5.1c-0.9,0.4-1.3,1.5-1.2,3.3c0,0.3,0,0.6-0.2,0.9
					c-0.2,0.5-0.4,0.9-0.7,1.1c-0.7,0.5-1,1.3-0.9,2.2c0.2,2.7-0.5,4.4-2.1,5.1c0,0.8,0,1.7,0,2.5c0,0.3,0,0.6,0,0.8
					c-0.3,0-0.5,0.1-0.7,0.2c-1.3,1.2-1.9,3.1-1.8,5.7c-1.3,0.7-2.2,1.8-2.8,3.3c-0.4,1.2-0.9,2.3-1.4,3.4c0,0.3,0,0.6,0,0.9
					c-0.3,2.4-1.2,4.4-2.6,5.8c-0.3,0.3-0.4,0.6-0.3,0.8c0.3,2.6-0.4,4.1-2.2,4.2c0,0.6,0,1.1,0,1.6c0,0.3,0,0.6,0,0.9
					c-0.3,0-0.4,0.1-0.4,0.1c-0.8,1.9-1.7,3.5-2.9,4.9c0,0.3,0,0.5,0,0.8c0,0.3,0,0.6,0,0.8c0,0.3,0,0.6,0,0.9c-0.3,0-0.4,0-0.4,0.1
					c-0.4,3.2-1.4,5.7-2.9,7.5c0,0.3,0,0.5,0,0.8c0,0.3,0,0.6,0,0.9s0,0.6,0,0.9h-0.4c0.1,1.8-0.3,2.9-1.2,3.3c0,0.6,0,1.1,0,1.7
					c0,0.3,0,0.6,0,0.8c0,0.3,0,0.6,0.1,0.8c1,1.7,0.4,2.9-1.8,3.4c0,0.3,0,0.5,0,0.9c0,0.3,0,0.5,0,0.8h-0.4
					c0.1,1.5-0.3,2.4-1.2,2.6c0,0.3,0,0.5,0,0.8c0,0.3,0,0.6,0,0.9c0,0.3,0,0.6,0,0.9c0.3,1.5-0.3,2-1.8,1.6c0,1.1,0,2.2,0,3.4
					c0,0.3,0,0.6,0,0.9c-0.3,0-0.5,0.1-0.5,0.2c-0.9,1.1-1.8,2.2-2.8,3.1c0,0.6,0,1.1,0,1.7c0,0.3,0,0.5,0,0.8c0,0.3,0,0.6,0,0.9
					c0.1,1.5-0.5,2.4-1.7,2.6c0,0.3,0,0.5,0,0.8c-0.3,0-0.4,0.1-0.4,0.1c-0.6,1.8-1.6,3.2-2.9,4.1c0,1.4,0,2.8,0,4.2
					c0,0.3,0,0.5,0,0.9c0.4,4.9,0.8,9.9,1.2,15c0,0,0.1,0,0.4,0c0,3.1,0,6.1,0,9.2c0,0.3,0,0.6,0,0.9c0.3,2.2,0.7,4.5,1.1,6.6
					c0.3,1.3,0.3,2.7,0.2,4.2c-0.1,2.8,0.2,5.1,1.2,6.7c-0.5,2.7-0.1,4.6,1.2,5.6c0.3,0.2,0.5,0.5,0.8,1c0,0.1,0.2,0.1,0.5,0.1
					c0,0.3,0,0.5,0,0.9c0,0.3,0,0.6,0,0.9c0,3.3,0.4,6.3,1.2,9.1c0,0.1,0.2,0.1,0.4,0.1c0,0.3,0,0.6,0,0.9c1.5,4.4,3.5,8.2,6.2,11.5
					c0.1,0.1,0.3,0.2,0.6,0.2c1.7,0.8,2.8,2.2,3.3,4.2c0,0.3,0.1,0.6,0.1,0.9c0.3,2.3,1.2,3.9,2.7,4.8c0.2,0.1,0.4,0.2,0.7,0.2
					c3.7,4.7,7.8,9,12.2,13c1.5,1.4,2.9,2.8,4.2,4.3c1,1.2,2.2,2.3,3.4,3.4c0.3,0.2,0.5,0.6,0.7,1c0.4,0.9,1.1,1.6,2.2,2.1
					c0.3,0.1,0.6,0.3,0.9,0.6c1.5,1.8,3.2,3.5,5.1,5c0.8,1.5,1.9,2.5,3.4,3.2c0.2,0.1,0.5,0.1,0.8,0.1c2.3,0.4,4.1,1.5,5.3,3.1
					c0.1,0.1,0.3,0.2,0.6,0.2c0.1,1.8,1,2.9,2.5,3.2c0.3,0.1,0.5,0.1,0.8,0.1c1.1,0.5,2.2,1.1,3.2,1.8c1.2,0.7,2.3,1.5,3.4,2.4
					c1.6,1.5,3.4,2.8,5.2,4c0.2,0.1,0.4,0.2,0.7,0.2c2-0.3,3.2,0.2,3.8,1.6c0,0.1,0.2,0.1,0.4,0.1c0.8,1.5,1.9,2.5,3.4,3.2
					c0.3,0.1,0.5,0.2,0.8,0.2c0.3,0,0.6,0,0.8,0c0.6,1.6,2.3,2.3,5.1,2.1c0.3,0,0.5,0.1,0.6,0.5c0.6,0.9,1.7,1.2,3.5,0.8
					c1.9,0.3,3.6,0.8,5.1,1.5c0.2,0.1,0.5,0.2,0.8,0.2c0.7,1.2,2.1,1.8,4.2,1.7c0.3,0,0.6,0,0.9,0c0.3,0,0.5,0,0.8,0
					c1.9,0.3,3.6,0.7,5.2,1.2c0.8,0.3,1.5,0.4,2.3,0.4c0.3,0,0.6,0,0.9,0c0.3,0,0.6,0,0.9,0c0.8,1.7,2.8,2.3,5.8,1.8
					c0.3,0,0.6,0,0.9,0c0.8,0,1.7,0,2.5,0c0.3,0,0.6,0,0.8,0c1,0.9,2.7,1.4,5.1,1.2c0.3,0,0.5,0,0.8,0c4.1-0.1,8-0.5,11.8-1.2
					c2.5,0,5,0,7.6,0c0.3,0,0.5,0,0.8,0c1.6-0.1,2.9-0.5,4-1.1c0.1-0.1,0.2-0.2,0.2-0.6c2.6,0.4,4.6,0.2,6-0.6
					c0.2-0.1,0.4-0.1,0.7-0.1c3.1,0.3,5.7,0.1,7.6-0.7c0.2-0.1,0.5-0.1,0.8-0.1c1.4,0,2.8,0,4.2,0c0.3,0,0.6,0,0.8,0
					c2.5-0.8,5-1.8,7.4-2.9c0.1-0.1,0.1-0.2,0.1-0.5c1.9,0.2,3.2-0.1,4-1c0.1-0.1,0.2-0.4,0.2-0.6c1.8,0.1,3.1-0.3,3.9-1.2
					c0.2-0.3,0.6-0.4,1.1-0.4c0.9,0,1.5-0.5,1.7-1.6c0-0.1,0.3-0.2,0.8-0.4c0.3-0.1,0.6-0.3,0.9-0.6c0.3-0.3,0.6-0.5,0.9-0.8
					c3.7-1.6,6.2-4.5,7.4-8.5c0.1-0.2,0.1-0.5,0.1-0.8c0-0.3,0-0.5,0-0.8c0-0.6,0-1.1,0-1.7c1.1-0.6,2.2-1.1,3.4-1.5
					c0.2-0.1,0.5-0.1,0.8-0.1c0,0.3,0,0.5,0,0.8c0,2,0.1,3.9,0.4,5.8c0,0.1,0.1,0.1,0.4,0.1c0,2.8,0,5.6,0,8.4c0,0.3,0,0.6,0,0.9
					c0,4.2,0,8.4,0,12.5c0,0.3,0,0.6,0,0.9c1.3,3.1,3.1,5.9,5.2,8.1c0.1,0.2,0.4,0.2,0.6,0.2c0.2,1.4,0.7,2.6,1.5,3.5
					c0.1,0.2,0.2,0.4,0.2,0.6c-0.3,0-0.6,0-0.9,0c-0.2,1.7,0.6,2.5,2.5,2.6l-0.4,0.6c-0.9,1.8-0.2,2.1,2,1c0,0.3,0,0.6,0,0.9
					s0,0.5,0,0.9c-0.3,0-0.5,0-0.8,0c0,1.7,1.1,2.5,3.3,2.5l0.2,0.8c0.1,0.3,0.2,0.6,0.1,0.8c-0.5,1.9,0,2.4,1.6,1.5
					c0.1,0,0.3,0,0.6,0.2c1.6,1.2,2,2.4,1.2,3.7c-0.6,1-0.5,1.5,0.4,1.2c0.6-0.2,1.2-0.4,1.8-0.6c1.1,1.1,2.3,2.1,3.5,3.1
					c0.2,0.1,0.4,0.2,0.6,0.2c0.7,1.6,1.1,3.5,1.2,5.8c0,0,0.2,0.1,0.4,0.1c0.3,0,0.5,0.1,0.6,0.2c0.2,0.1,0.2,0.4,0.2,0.6
					c-0.1,1.7,1,2.5,3.4,2.5v0.9c0.1,3.8,1.8,6.2,4.9,7.2c0.6,0.2,1.2,0.8,1.6,1.6c0.1,0.2,0.5,0.4,1,0.6c0.3,0.1,0.5,0.3,0.6,0.6
					c0.4,1.2,1.3,1.7,2.8,1.6c0.2,1.8,1,3,2.4,3.7c0.1,0.1,0.1,0.2,0.1,0.5c1,1.3,1.8,2.7,2.4,4.2c0.1,0.2,0.1,0.5,0.1,0.8
					c1.1,0.5,2.2,1.1,3.2,1.9c0.6,0.4,1.1,1.2,1.3,2.2c0.1,0.3,0.2,0.6,0.6,0.9c2.5,0,5,0,7.5,0c0.3,0,0.6,0,0.8,0
					c1.4,0.6,3,0.8,5,0.6c1.1-0.1,2.3-0.1,3.4-0.1c2.6,0.1,4.3-0.6,5-2.1c0.3,0,0.6,0,0.8,0c1.3-0.7,2.1-1.8,2.4-3.4
					c0.1-0.3,0.1-0.5,0.1-0.8c0-0.3,0-0.6,0-0.9c0-2.8,0-5.6,0-8.4c0.5-1,1.3-1.5,2.6-1.6c0.3,0,0.5,0,0.8,0c1-1.3,2.7-1.8,5.1-1.6
					c0.9,0.1,1.2-0.5,0.8-1.7c0-0.3,0-0.6,0-0.9c0-0.3,0-0.5,0-0.8c0.7-1.6,1.9-2.6,3.5-3.2c0.9-0.3,1.1-1.2,0.8-2.7
					c0-1.1,0-2.2,0.1-3.3c0.3-2.7,0-4.6-1-5.9c0-0.3,0-0.6,0-0.9c0-0.6,0-1.1,0-1.6c0.9-0.6,1.6-1.2,2.4-1.9
					c0.1-0.1,0.2-0.4,0.2-0.6c2.9-0.7,4.4-3,4.6-6.7c0-0.3,0-0.6,0-0.8c-0.2-3.4,0-6.2,0.4-8.4c0-0.3,0-0.5,0-0.8
					c1-0.2,1.7-0.7,2.1-1.5c0-0.1,0.2-0.2,0.5-0.2c1.7-0.5,3-1.4,3.9-2.6c0.1-0.2,0.2-0.4,0.2-0.7c0.6-0.3,1.1-0.6,1.5-1.1
					c0.1-0.1,0.2-0.3,0.2-0.6c0.3,0,0.4,0,0.5-0.1c0.7-2.8,0.5-5-0.5-6.6c0-0.3,0-0.5,0-0.8c0-0.3,0-0.6,0-0.9
					c1.5-3,3.1-5.8,4.9-8.5c0.1-0.2,0.1-0.5,0.1-0.8c0-0.3,0-0.5,0-0.8c1.7-0.6,2.9-1.6,3.7-3.2c0.1-0.1,0.2-0.1,0.5-0.1
					c2.1-0.1,3.1-1.2,3-3.4c0-0.6-0.2-1.1-0.5-1.7c0-0.3,0-0.6,0-0.9c0-2.5,0-5,0-7.5c0.6-1.1,1.2-2.2,1.9-3.3
					c0.7-1.2,1.5-2.3,2.4-3.4c0-0.3,0-0.6,0-0.9c2.4-2,5-3.9,7.6-5.7c0.2-0.1,0.5-0.1,0.8-0.1c0.9-0.7,1.1-2.1,0.5-4.2
					c-0.1-0.3-0.1-0.6-0.1-0.9c0.1-2.4-0.3-4-1.2-5c0-0.3,0-0.6,0-0.9c0-2,0-3.9,0-5.9c1.4-0.2,2-1.4,1.8-3.4
					c-0.1-0.3-0.1-0.5-0.1-0.8c1.4-0.3,2-1.4,1.8-3.4c0-0.3,0-0.6,0-0.9c2,0.3,3.2-0.2,3.7-1.5c0-0.1,0.2-0.1,0.5-0.1
					c3.6-0.3,5.5-2.2,5.8-5.9c0-0.3,0-0.6,0-0.9c0-0.3,0-0.5,0-0.8c0-1.7,0-3.4,0-5.1c1.4-1.1,2.7-2.3,4-3.5
					c0.1-0.1,0.2-0.4,0.2-0.6c1.1-0.3,1.9-0.9,2.4-1.8c0.1-0.2,0.1-0.5,0.1-0.8s0-0.4-0.1-0.5c-0.8-0.2-1.1-0.8-0.8-2
					c1-1,1.3-2.7,1-5.1c-0.1-1.1-0.2-2.2-0.2-3.3c2-0.5,3.6-1.4,4.8-2.7c0.2-0.1,0.2-0.4,0.2-0.6c1.2-0.7,2.3-1.6,3.1-2.6
					c0.1-0.2,0.2-0.4,0.2-0.7c0-0.3,0-0.6,0-0.9c0-0.3,0-0.5,0-0.8c0-0.3-0.1-0.6-0.1-0.8c-0.5-1.4-0.7-3.1-0.7-5.1
					c1.5-1.3,2.8-2.7,4-4.3c0.1-0.2,0.2-0.4,0.2-0.7c0-0.3,0-0.6,0-0.9c1.6-0.6,2.2-2.3,1.7-5.1c0-0.3,0-0.5,0-0.8s0-0.5-0.1-0.8
					c-0.2-0.6-0.5-1.1-0.8-1.7c0.3-0.3,0.5-0.6,0.7-1c0.1-0.2,0.1-0.4,0.1-0.8c0-0.3,0-0.5,0-0.8c0-0.3,0-0.5,0-0.8
					c0.3,0,0.6,0,0.9,0c2.2-2,4.4-4,6.5-6.1c0.1-0.1,0.2-0.3,0.2-0.6c1.6-0.3,2.6-1.2,3-2.6c0.2-1.1,0.6-1.9,1.2-2.5
					c0-0.3,0-0.5,0-0.9c0-1.9,0-3.9,0-5.8c0-0.3,0-0.6,0-0.9c-0.1-2.6-0.4-5.1-0.8-7.6c0-0.3,0-0.5,0-0.8c0-0.8,0-1.7,0-2.5
					c0.9-0.1,1.6-0.6,2-1.5c0.1-0.1,0.2-0.2,0.5-0.2c2.6,0.7,4.2,0.2,4.9-1.4c0.1-0.2,0.4-0.4,0.9-0.5c2-0.7,3.7-1.8,5.1-3.1
					c2.3-1,3.6-3.2,3.8-6.6c0-0.3,0.1-0.6,0.2-1c0.1-0.2,0.2-0.5,0.2-0.8s0-0.5,0-0.9c0-0.8,0-1.7,0-2.5c0.3,0,0.5,0,0.8,0h0.5
					c-0.2-3.2-1.1-5.7-3-7.6c0-0.3,0-0.4-0.1-0.5c-0.5-0.2-1-0.4-1.5-0.4c0-0.3,0-0.5,0-0.8c0-2.3-0.8-3.7-2.5-4.2
					c-0.3,0-0.5,0-0.8,0c0-0.3,0-0.6-0.1-0.8c-0.5-1.7-1.8-2.6-4-2.6c-0.3,0-0.5,0-0.9,0c-0.3-0.6-0.6-1-1.1-1.3
					c-0.4-0.3-0.8-0.5-1.3-0.6c-2.3-0.9-4.6-2-6.8-3.1c-0.3,0-0.5-0.1-0.7-0.2c-2.9-2.1-5.7-4.2-8.5-6.5c0-0.3,0-0.5-0.1-0.8
					c-0.5-1.4-1.6-2.2-3.2-2.6c-0.3,0-0.6,0-0.9,0c-0.3,0-0.6,0-0.9,0c0-0.3-0.1-0.5-0.2-0.7c-0.8-1.4-2.2-2.2-4-2.6
					c-0.3,0-0.5-0.1-0.6-0.2c-0.9-1.3-2.1-2.4-3.6-3.1c0-0.3-0.1-0.5-0.2-0.6c-1.2-1.6-2.8-2.8-4.8-3.6c0-0.3-0.1-0.5-0.2-0.7
					c-0.9-1.1-1.9-2-3.2-2.7c0-0.3,0-0.5-0.1-0.8c-0.6-1.3-1.7-2.2-3.2-2.6c0.4-1.2,0.1-1.7-0.8-1.5c-1.2,0.3-1.9,0-2.2-0.9
					c-0.3-1.1-0.9-2.1-1.6-3c-1.5-2-3.3-3.5-5.5-4.7c0-0.3,0-0.5-0.1-0.8c-0.7-1.7-1.8-3.1-3.2-4.2c-0.3-1.1-0.7-2.1-1.2-2.9
					c-0.7-1.1-1.2-2.2-1.6-3.2c-0.9-2.4-2.2-4.3-3.9-5.7c0-0.3,0-0.5,0-0.8c0-0.6-0.1-1-0.4-1.4c-1-1.2-1.4-3-1.3-5.4
					c0-0.3,0-0.5,0-0.8c-0.1-2.4-0.6-4.4-1.6-5.9c0-0.8,0.1-1.6,0.2-2.4c0.2-1.5-0.1-2.3-1-2.2c-1.5,0.1-2-0.5-1.5-1.9
					c0.1-0.3,0.2-0.6,0.1-0.8c-0.4-1.6-1.1-3-2-4.3c0.9,0.1,1.3-0.5,1-1.7c-0.1-0.3-0.1-0.5-0.1-0.8c-0.3-1.1-0.4-2.3-0.4-3.4
					c0-0.3,0-0.6,0-0.9c-0.1-1.3-0.5-2.4-1.2-3.3c0-0.3,0-0.6,0-0.9c0-0.8,0-1.7,0-2.5c0-0.3,0.1-0.5,0.2-0.8c1.2-2,0.9-3.7-1-5.1
					c0-0.3,0-0.6,0-0.9c-0.1-2.1-1-3.5-2.5-4.2c0-0.3,0-0.6-0.1-0.9c-0.3-1.9-0.8-3.6-1.6-5c-1.4-1.7-2-4.2-1.8-7.5
					c0.1-1.1-0.1-2.2-0.4-3.2c-1-2.7-2.5-5-4.5-6.9c0-0.3-0.1-0.5-0.2-0.7c-1.2-1.3-2.5-2.5-4-3.5c-0.3,0-0.5,0-0.8,0
					c0-0.3-0.1-0.5-0.2-0.6c-2-1.9-3.9-3.9-5.6-6.1c-0.2-1.5-1-2.4-2.5-2.8C339.6,90,339.4,89.9,339.5,89.7 M324.6,120.1
					c0.9,0.3,1.8,0.8,2.6,1.3c0.9,1.9,2.1,3.5,3.5,4.8c0.2,0.1,0.4,0.2,0.7,0.2c0.5,2.8,1.5,5.1,3.1,6.9c0.1,0.2,0.2,0.4,0.2,0.6
					c-0.3,0-0.5,0.1-0.8,0.1c-0.3,0.2-0.6,0.4-0.9,0.7c-0.7,2.9-0.2,4.3,1.6,4.2c0,0,0.1-0.3,0.3-0.8c0.1-0.3,0.3-0.6,0.6-0.9
					c0,2,0,3.9,0,5.8c0,0.3,0,0.6,0,0.9c-0.3,0-0.5,0-0.9,0c0,1.1,0,2.2,0,3.3c0,0.3,0,0.6,0,0.9c0,0.3,0,0.6,0,0.9
					c-0.3,0-0.4,0-0.4,0c-0.6,4.1-1.9,7.4-3.8,10c0,0.3,0,0.5,0,0.8c-0.3,0-0.4,0-0.4,0.1c-0.2,2.3-1.2,3.7-3,4.1c0,0.3,0,0.6,0,0.9
					c-0.3,0-0.4,0-0.4,0.1c-0.2,1.5-0.9,2.3-2.1,2.4c0,0.3,0,0.6,0,0.9c0,0.3,0,0.6,0,0.8c0,0.3-0.1,0.4-0.1,0.5
					c-0.5,0.2-1,0.3-1.5,0.3c0,0.3,0,0.6,0,0.9c-0.3,0-0.5,0.1-0.6,0.2c-1.5,1.6-2.9,3.2-4.4,4.8c0,0.3,0,0.6,0,0.9
					c-0.3,0-0.5,0.1-0.6,0.2c-1.2,1-2.6,1.8-4.4,2.3c0,0.3,0,0.6,0,0.9c-0.3,0-0.6,0-0.8,0c-0.3,0-0.6,0-0.9,0
					c-1.7,0.2-3.4,0.5-5,0.8c0,0.3,0,0.6,0,0.9c-0.3,0-0.6,0-0.9,0c-0.3,0-0.6,0-0.9,0c-1.7,0.6-3.4,0.9-5.1,1.1
					c-3.3,0.4-6.6,0.6-10,0.6c-0.3,0-0.5,0-0.8,0c-4.8,0-9.5,0-14.2,0c0-0.3-0.1-0.5-0.1-0.5c-2.3-0.9-5.1-1.3-8.2-1.2
					c-0.5,0-1.1-0.1-1.6-0.2c-0.3-0.1-0.7-0.2-1-0.4c-1-0.4-2.1-0.7-3.2-0.8c-3.5-0.3-6.5-1-9.2-2c0-0.3-0.1-0.4-0.2-0.5
					c-1.8-0.8-3.8-1.4-5.8-2v-0.4c-3.6-0.3-6.7-1-9.2-2.1c-2.1-0.7-4.3-1.2-6.7-1.6c-2.1-0.4-4.1-0.9-5.9-1.8c-0.3,0-0.6,0-0.8,0
					c0-0.3,0-0.4-0.1-0.4c-5.4-1.7-10.4-3.8-14.9-6.2c-1.7-1.7-3.6-3.1-5.7-4.4c-2.2-1.4-4.3-2.8-6.4-4.4c-0.4-0.3-0.7-0.5-0.9-0.8
					c-1.6-1.8-3.7-3.1-6.4-3.8c0-0.3-0.1-0.5-0.2-0.6s-0.3-0.2-0.6-0.2c-1.1-1.4-2.3-2.7-3.7-3.8c-2.2-1.8-4.3-3.7-6.2-5.6
					c-1.1-1.1-2.6-1.9-4.2-2.4c0-0.3-0.1-0.5-0.2-0.8c-0.2-0.3-0.4-0.6-0.6-0.9c-0.2-1-0.7-1.6-1.5-2.1c-1.8-0.9-3.2-2.2-4.2-3.9
					c-0.5-0.9-1.4-1.4-2.7-1.6c0-0.3-0.1-0.5-0.2-0.6c-1.8-1.9-3.1-4.2-3.9-6.9c0-0.3,0-0.6,0-0.8c0-6.1,0-12.3,0-18.4
					c0.9-0.7,1.3-2.1,1.2-4.2c0-0.3,0.2-0.4,0.4-0.4c0.9-0.2,1.2-0.8,0.8-2c0.6-0.8,1.1-1.7,1.4-2.7c1.4-3.1,3.4-5.6,6.1-7.4
					c3.8-2.6,7.9-5,12.4-7c0.1-0.1,0.2-0.2,0.2-0.5c2.2-0.9,4.9-1.3,8.3-1.3c0.3,0,0.6,0.1,0.9,0.1c2.4,0.1,4.1-0.3,5.1-1.2
					c8.3-0.5,15.5,0,21.8,1.5c0.3,0.1,0.5,0.1,0.8,0.1c0.9,0.8,2.1,1.2,3.4,1.4c1.9,0.2,3.3,0.9,4.1,2c3-0.2,5.4,0.2,7.4,1.2
					c1.8,0.9,3.8,1.5,6.1,1.8c1.6,0.2,3.3,0.5,4.9,0.7c0.3,0,0.6,0.2,0.9,0.5c1,1,2.7,1.4,5.1,1.2c0.3,0,0.6,0.1,0.9,0.2
					c1.1,0.4,2.2,0.8,3.3,1.1c1.9,0.3,3.6,0.7,5.1,1.3c0.8,0.3,1.5,0.4,2.4,0.4c1.5,1,3.5,1.6,5.9,1.7c2.1,0.1,3.8,0.5,5.2,1.2
					c0.4,0.3,0.9,0.4,1.5,0.4c1.8-0.4,3-0.2,3.6,0.6c0.1,0.1,0.3,0.2,0.5,0.2c0.7,1,2.1,1.5,4.1,1.7c0,0,0.2,0.1,0.5,0.4
					c0.3,0.3,0.7,0.5,1.2,0.5c1.6,0.1,3,0.4,4.1,0.8c2.5,1.5,5.2,2.8,8.2,3.9c0.7,0.2,1.3,0.5,2,0.8c2.1,1.1,4.3,2,6.6,2.8
					c0.8,0.6,1.7,1,2.6,1.3c1.4,0.5,2.4,1.1,3.2,2c0.4,2.4,1.6,3.9,3.5,4.6c1,0.3,1.7,0.8,2.3,1.3c1.4,1.7,2.6,3.6,3.8,5.7
					C322.3,118.9,323.3,119.6,324.6,120.1 M417.5,251.6c0.1,0.1,0.2,0.3,0.2,0.6c-0.3,0-0.5,0-0.5,0.1c-0.4,1.7-1.4,2.8-2.9,3.2
					c-0.3,0-0.5,0.1-0.8,0.2c-2.1,1.2-4.1,2.5-5.9,4c0,0.3,0,0.6,0,0.9c0,0.3-0.1,0.5-0.2,0.6c-0.2,0.2-0.4,0.2-0.6,0.2
					s-0.5,0.1-0.6,0.2c-0.7,0.7-1.6,1.2-2.7,1.5c0,2,0.1,3.9,0.4,5.8c0,0,0.2,0.1,0.5,0.1c-0.1,2.3,0.6,4,2.1,4.9
					c0.2,0.1,0.4,0.5,0.4,1c0,2.8-0.8,4.7-2.5,5.9c-0.3,0-0.6,0-0.9,0c0,0.3,0,0.5,0,0.9c-0.3,0-0.5,0-0.8,0.1
					c-1.9,0.9-3.6,2-5.1,3.2c0,0.3,0,0.6,0,0.9c0,0.3-0.1,0.5-0.2,0.6c-0.2,0.1-0.4,0.2-0.7,0.2c-1.5,1-3.2,1.9-5,2.6
					c-0.6,0.2-1,0.6-1.2,1.1c-0.8,1.3-1.5,2.6-2.2,3.9c0,0.3,0,0.6,0,0.9c-0.3,0-0.5,0-0.8,0.1c-0.3,0.2-0.6,0.4-0.9,0.7
					c0,1.9,0.4,3.4,1.2,4.5c0.3,0.3,0.5,0.7,0.8,1.2c0.1,0.1,0.2,0.1,0.5,0.1c0,0.3,0,0.5,0.1,0.8c0.6,3.7,0,6.2-1.8,7.5
					c0,0.3,0,0.6,0,0.9c-0.3,0-0.6,0-0.9,0c0,0.3,0,0.6,0,0.9c-1,0.2-1.4,0.7-1.4,1.6c0.2,2.4-0.2,4-1.1,5c0,0.3,0,0.6,0,0.9
					c0,0.3-0.1,0.4-0.1,0.5c-2.8,1-5.8,1.7-9.1,2c0,0.3,0,0.5,0,0.9c0,0.3-0.1,0.5-0.2,0.6c-0.1,0.1-0.3,0.2-0.6,0.2
					c-0.3,0-0.6,0-0.9,0c-0.3,2.8,0.5,4.7,2.1,5.7c0.2,0.1,0.5,0.4,0.7,0.9c0,0.1,0.2,0.2,0.5,0.2c0.7,1.8,1.1,4,1.2,6.7
					c0,0,0.1,0,0.4,0c0,0.3,0,0.5-0.1,0.8c-0.2,0.3-0.4,0.6-0.7,0.9c0,0.3,0,0.5,0,0.9c-0.3,0-0.6,0-0.8,0c0,0.3,0,0.6,0,0.9
					c0,0.3,0,0.5,0,0.8c-0.9,0.8-1.7,1.7-2.6,2.5c-0.3,0.3-0.6,0.5-0.9,0.6c-1.6,0.7-3.2,1.5-4.6,2.4c-2.7,1.6-5.6,3.2-8.6,4.6
					c0,0.3,0,0.6,0,0.8c0,0.3,0,0.6,0,0.9c0,0.3,0,0.5,0,0.9h-0.5c0.1,1.5-0.3,2.3-1.2,2.5c0.4,2.9,0.8,5.8,1.2,8.5
					c0.3,1.9,0.5,3.8,0.8,5.8c0,0.3,0.1,0.6,0.1,0.8c0,0.3,0,0.6-0.1,1c-0.2,0.5-0.2,1-0.2,1.6c-0.3,0-0.5,0.1-0.7,0.2
					c-3.3,2.6-6.7,5-10.2,7.4c-0.3,0-0.5,0-0.8,0c0.3,4.7,0.8,9.4,1.2,14.1c0,0,0.1,0.1,0.4,0.1c0,0.3,0,0.6,0.1,0.9
					c0.4,2.1,0.1,3.5-0.9,4.2c0,0.3,0,0.5,0,0.9c0,0.3-0.1,0.5-0.2,0.6c-0.7,0.7-1.5,1.3-2.3,1.9c-0.3,0-0.5,0.1-0.7,0.2
					c-1.1,0.8-2.2,1.6-3.5,2.3c0,0.3,0,0.6,0,0.9s0,0.5,0,0.9c-0.3,0-0.5,0.1-0.6,0.2c-1,1.2-1.9,2.5-2.8,4c0,0.3,0,0.6,0,0.9h-0.4
					c0.1,1.5-0.6,2.1-2.1,1.7c0,0.3,0,0.5,0,0.8H336c0.1,1.2-0.3,1.8-1.2,1.7c0,3.9,0,7.8,0,11.8c0,0.3,0,0.5,0,0.8
					c1.2,2.9,1.2,5.7,0.2,8.4c-0.1,0.2-0.2,0.5-0.2,0.8c0,0.3,0,0.4-0.1,0.5c-0.5,0.2-1,0.3-1.5,0.3c0,0.3,0,0.6,0,0.9
					c-0.3,0-0.5,0.1-0.8,0.2c-3.7,2.1-7.1,4.5-10.1,7.4c0,0.3,0,0.5,0,0.9c0,0.3,0,0.5,0,0.8c-0.3,0.3-0.5,0.6-0.5,0.9
					c-0.3,2.8-0.2,5.5,0.1,8.3c0.4,3.7-0.3,6.2-2.1,7.5c0,0.3,0,0.6,0,0.9c-0.3,0-0.5,0.1-0.5,0.2c-1.4,2.8-3.8,3.6-7,2.3
					c0-0.3-0.1-0.5-0.2-0.6c-1.8-1.8-3.7-3.6-5.6-5.2c0-0.3-0.1-0.5-0.2-0.6c-2.1-2.6-4.2-5.2-6.5-7.7c0-0.3-0.1-0.5-0.2-0.7
					c-2.1-2.1-4.2-4.1-6.5-6c0-0.3-0.1-0.5-0.2-0.6c-0.1-0.1-0.3-0.2-0.6-0.2c0-0.3,0-0.6-0.1-0.8c-0.9-2.4-2.3-4.4-4.1-5.9
					c-2-4.2-3.9-8.4-5.8-12.6c-0.6-1.4-0.9-3-0.9-5c-0.5-2-0.7-4.2-0.5-6.7c0.2-2.6-0.2-4.6-1.2-5.9c0-0.3,0-0.6,0-0.8
					s-0.1-0.5-0.1-0.7c-1.4-2.2-1.9-5.3-1.5-9.4c0-0.3,0-0.6,0-0.9c2.2-2.3,4-5,5.4-8.2c0.5-1.3,1-2.7,1.5-4.3
					c0.4-1.4,0.8-2.9,1.2-4.3c0.2-0.8,0.3-1.6,0.2-2.4c2.3-1.9,3.4-5,3.4-9.2c0-0.3-0.1-0.5-0.1-0.8c1.6-1.2,2.3-3.5,2.2-6.8
					c0-0.3,0.1-0.4,0.4-0.5c0.9-0.2,1.1-0.9,0.8-2c0-0.3,0-0.5,0-0.8c1.1-1.2,1.9-2.6,2.4-4.2c0.1-0.2,0.2-0.5,0.2-0.8
					c1.4-2.2,2.7-4.5,3.8-6.9c0.3-0.7,0.6-1.4,0.8-2.1c0.3-0.7,0.5-1.3,0.8-2c0.3-0.7,0.6-1.5,0.9-2.2c0.2-0.7,0.5-1.5,0.7-2.6
					c0.1-0.3,0.1-0.7,0.2-1c0.2-0.5,0.3-1,0.3-1.5c0.9-1,1.4-2.7,1.2-5c0-0.3,0.1-0.6,0.1-0.9c0.2-0.5,0.2-1,0.2-1.6
					c0-0.3,0-0.6,0-0.9c0-0.6,0-1.1,0-1.7c1.1-0.6,1.6-1.7,1.6-3.4c0-0.3,0.1-0.5,0.1-0.8c1.1-1.1,1.7-2.8,1.8-5
					c0.1-0.9,0.4-1.7,1.1-2.2c0.3-0.2,0.5-0.6,0.5-1.1c0-0.3,0-0.5,0-0.9c1.5-0.4,2.2-1.8,2.1-4.2c0-0.3,0-0.6,0.2-0.9
					c0.1-0.2,0.2-0.5,0.2-0.8c1.7-0.8,2.6-2.4,2.7-5c0-1,0.4-1.7,1.1-2.2c0.3-0.2,0.4-0.6,0.4-1.1c0-0.3,0-0.6,0-0.8
					c1.2-1.6,2.2-3.5,3-5.7c0.6-1.7,1.3-3.4,2.2-5.1c0.7-1.2,1.1-2.7,1.4-4.3c0.1-0.5,0.1-1.1,0.1-1.6c1.4-1.4,2.4-3.1,3.2-5.1
					c0.1-0.2,0.2-0.5,0.2-0.8c0-0.3,0-0.5,0-0.8c0-0.3,0-0.6,0-0.9c1.1-1.1,1.8-2.8,2-5c0.1-0.3,0.2-0.6,0.3-0.9
					c0.4-1.1,0.8-2.1,1-3.2c0-0.3,0-0.6,0-0.9c0.9-0.7,1.4-2.1,1.2-4.2c0-0.3,0.1-0.6,0.2-0.9c0.2-0.5,0.2-1,0.2-1.6
					c0-0.3,0-0.5,0-0.9c1.2-0.7,1.8-2.1,1.7-4.2c0-0.3,0-0.5,0-0.8c1.9-2.3,3.2-5.1,4.1-8.4c0.1-0.3,0.1-0.6,0.1-0.8
					c2.4-2.1,4.1-4.9,5.3-8.3c0.5-1.6,1.2-3.1,1.9-4.4c0.8-1.5,1.5-3.1,2-4.9c0-0.3,0-0.5,0-0.8c0.9-0.7,1.4-2.1,1.2-4.2
					c0-0.3,0.1-0.6,0.2-0.9c0.1-0.2,0.2-0.5,0.2-0.8c1.1-0.6,1.6-1.7,1.7-3.4c0-0.3,0-0.5,0-0.8c1-1.6,1.3-3.8,0.9-6.7
					c-0.1-0.3-0.1-0.6-0.1-0.8c0-0.3,0-0.6,0-0.9c1-0.4,1.4-1.5,1.3-3.3c-0.1-1.4,0.9-1.9,2.8-1.4c0.3,0.1,0.6,0.3,0.8,0.7
					c0.1,0.2,0.1,0.5,0.1,0.8c1,1.8,2.4,3.2,4,4.4c0.1,0.1,0.2,0.3,0.2,0.6c2.5,0.3,4.2,1.4,5.3,3.2c0.1,0.1,0.3,0.2,0.5,0.2
					c1.1,1.4,2.3,2.7,3.6,3.9c0.1,0.1,0.3,0.2,0.6,0.2c0.5,1.7,1.4,3.1,2.6,4c0.2,0.1,0.4,0.2,0.7,0.2c0.8,2,1.9,3.6,3.5,4.8
					c0.2,0.1,0.4,0.2,0.7,0.2c1.2,1.9,2.6,3.5,4.4,4.8c0.2,0.1,0.4,0.2,0.6,0.2c0.8,1.1,1.7,2.2,2.8,3.2c0.1,0.1,0.3,0.2,0.6,0.2
					c0.5,2.6,1.8,4.4,3.9,5.6c0.2,0.2,0.5,0.4,0.8,0.7c3.2,3.3,6.4,6.5,9.6,9.6c0,1.4,0,2.8,0,4.2c0,0.3,0,0.6,0,0.8
					c1.8,1.2,3.5,0.9,4.9-1c0.1-0.2,0.2-0.4,0.2-0.6c2.6-0.8,5.1-1.6,7.5-2.4c0.3-0.1,0.5-0.1,0.8-0.1
					C414.9,249.6,416.3,250.5,417.5,251.6 M169.1,166.4c0.2,0.1,0.4,0.2,0.7,0.2c1.9-0.5,2.9,0.1,2.9,1.7h0.4
					c0.9,2.4,2.9,3.9,5.8,4.5c1.9,0.4,3.5,1.3,4.7,2.6c0.3,0.3,0.7,0.5,1.2,0.7c0.3,0.1,0.6,0.3,0.9,0.6c1.7,1.6,3.8,2.9,6.1,3.7
					c1.4,0.5,2.7,1,3.9,1.6c0.9,0.4,1.8,0.9,2.6,1.5c0.6,0,1.1,0,1.7,0c0.3,0,0.6,0,0.9,0c1.8,2.6,4.6,4.3,8.3,4.9
					c0.3,0,0.6,0.1,0.9,0.1c1.1,1.1,2.8,1.8,5,2.1c0.3,0,0.6,0.2,0.9,0.4c1.8,1.5,4.3,2.5,7.5,2.9c0.6,0.1,1.2,0.2,1.7,0.6
					c5.8,3.4,11.9,6.5,18.4,9.2c1.1,0,2.2,0.1,3.2,0.4c0.1,0,0.1,0.1,0.1,0.4c1.9,1.2,4.1,2,6.7,2.4c0.3,0.1,0.5,0.1,0.8,0.1
					c4.7,0,9.5,0,14.2,0c0.3,0,0.5,0,0.8,0c2.7-0.4,4.7-0.2,6,0.7c0.2,0.1,0.4,0.1,0.7,0.1c1.3,1,3.2,1.3,5.9,1.1
					c1.1-0.1,2.2-0.2,3.4-0.2c1.7-0.6,3.4-1.1,5.1-1.6c0.3-0.1,0.5-0.1,0.8-0.1c2.1-0.2,4-0.6,5.7-1.2c0.1,0,0.1-0.2,0.1-0.5
					c2.2,0,4-0.5,5.2-1.4c0.2-0.1,0.4-0.2,0.7-0.2c2.6-0.2,4.9-0.7,6.8-1.4c2.3-0.9,4.2-2.1,5.8-3.6c1.8-0.8,3.7-1.4,5.8-1.9
					l0.4-0.2c0.1,1.8,0,3.6-0.4,5.5c0,0.3,0,0.6-0.1,0.8c-0.2,0.3-0.4,0.6-0.7,0.9c-0.3,0-0.5,0-0.8,0c0,0.3,0,0.5,0,0.8
					c0,0.3,0,0.6,0,0.8c-0.3,0-0.6,0-0.9,0c0,2.2,0,4.5,0,6.7c0,0.3,0,0.6,0,0.9c-0.5,0.6-0.9,1.4-1.2,2.4c-0.3,1.4-0.7,2.9-1.2,4.3
					c-0.6,2.2-1.5,4.2-2.7,5.8c0,0.3,0,0.6,0,0.8c0,0.3,0,0.6,0,0.9c-0.5,0.8-1.1,1.7-1.7,2.4c-0.3,0.3-0.4,0.6-0.5,0.9
					c-1.1,4.1-2.8,7.5-5.3,10c0,0.8,0,1.7,0,2.5c0,0.3,0,0.6,0,0.9c-0.3,0-0.6,0-0.9,0c0,0.3,0,0.6,0,0.9c-0.3,0-0.5,0.1-0.5,0.1
					c-0.4,0.8-1.1,1.3-2,1.5c0,1.1,0,2.2,0,3.4c0,0.3,0,0.6,0,0.8c-0.3,0-0.5,0-0.5,0.1c-0.3,1.6-1,2.6-2.1,3.2c0,0.8,0,1.7,0,2.5
					c0,0.3,0,0.6,0,0.9c-0.3,0-0.6,0-0.9,0c0,1.1,0,2.2,0,3.4c0,0.3,0,0.6,0,0.9c-2,2.4-3.4,5.5-4.2,9.2c-0.8,3.6-2.2,6.7-4.1,9.2
					c0,0.3,0,0.6,0,0.9s0,0.5,0,0.9c0,0.3-0.1,0.5-0.2,0.6c-0.4,0.4-0.9,0.8-1.5,1.1c-0.3,0-0.4,0-0.4,0.1c-0.4,2-1.4,3.4-2.9,4.1
					c0,0.3,0,0.6,0,0.9c0,0.3,0,0.5,0,0.9h-0.4c-0.3,3.3-1.2,5.8-2.9,7.5c0,0.3,0,0.6,0,0.9s0,0.5-0.1,0.8c-0.4,1.6-0.9,3-1.6,4.2
					c0,0.3,0,0.5,0,0.8c0,0.3,0,0.6,0,0.8c0,0.3,0,0.6,0,0.9c-0.3,0-0.4,0-0.5,0.1c-0.8,4.5-2.1,8.4-3.8,11.6c0,0.3,0,0.6,0,0.9
					h-0.4c0.4,3.7-0.3,6.2-2.1,7.5c0,1.1,0,2.2,0,3.4c0,0.3,0,0.5,0,0.9c-0.3,0-0.6,0-0.8,0.1c-0.3,0.2-0.6,0.4-1,0.7
					c0,0.3,0,0.5,0,0.8c0,0.3,0,0.6,0,0.9h-0.4c0.1,2.4-0.3,4-1.2,5c0,0.3,0,0.5,0,0.8c0.4,1.5,0.2,2.5-0.6,2.9
					c-0.8,0.5-1.3,1.4-1.6,2.8c-0.4,1.9-1,3.6-1.9,5.2c0,0.3,0,0.5,0,0.8c0,0.3-0.1,0.5-0.2,0.6c-0.1,0.2-0.4,0.2-0.6,0.2
					c0,0.3,0,0.5,0,0.8c-0.3,0-0.4,0-0.5,0.1c-1.1,2.7-2.3,5.2-3.7,7.4c0,0.3,0,0.6,0,0.9c-0.7,0.7-1,1.8-0.9,3.4
					c0,0.6-0.1,0.9-0.3,1.1c-0.7,0.5-1.1,1.2-1.2,2.2c-0.1,0.6-0.2,1-0.5,1.2s-0.4,0.4-0.5,0.5c-0.1,2.3-1,3.7-2.5,4.1
					c0,0.3,0,0.6,0,0.9s0,0.6,0,0.9h-0.4c-0.2,2.6-1.2,4.2-2.9,5c0,0.3,0,0.6,0,0.9s0,0.5,0.1,0.8c0.6,2.6,0,4.1-1.8,4.2
					c0,0.3,0,0.5,0,0.8c-0.3,0-0.4,0-0.4,0.1c-0.2,2.8-1.2,4.8-2.9,5.9c0,0.8,0,1.7,0,2.5c0,0.3,0,0.5,0,0.8c0,0.3,0,0.5,0,0.8
					c-2.3,1.1-4.5,2.3-6.6,3.4c-1.6,0.9-3.2,1.8-4.9,2.9c-2.1,1.4-5.3,1.8-9.4,1.2c0,0.3,0,0.6,0,0.9c-0.3,0-0.6,0-0.9,0
					c-3.6-0.2-6.7,0.1-9.2,0.9c0-0.3,0-0.5-0.1-0.5c-2.5-0.3-5-0.4-7.5-0.4c0,0.3,0,0.6,0,0.9c-0.3,0-0.6,0-0.8,0
					c-0.8,0-1.6,0-2.5,0c-0.3,0-0.5,0.1-0.7,0.2c-1,0.9-2.4,1.4-4.3,1.5c0,0.3,0,0.6,0,0.9c-0.3,0-0.6,0-0.9,0c-0.3,0-0.6,0-0.8,0
					v-0.4c-7.3-0.3-14.5-0.5-21.8-0.5c-0.3,0-0.5,0-0.8,0c-0.9-0.7-2.1-1.1-3.4-1.2c-0.3,0-0.5,0-0.7,0c-1.7-0.3-3.6-0.5-5.9-0.4
					c-0.3,0-0.6,0-0.8,0c-1.1,0-2.3,0-3.4,0c0-0.3-0.1-0.5-0.1-0.5c-2.5-1-5-2-7.4-2.9c-0.6-0.6-1.2-1-1.8-1.4
					c-0.4-0.2-0.9-0.5-1.4-0.6c-3.5-1.4-6.9-3-10.1-4.8c-1.4-0.8-3.1-1.4-5.1-1.6c0-0.3-0.1-0.5-0.1-0.6c-2.3-1.4-4.8-2.6-7.4-3.6
					c0-0.3-0.1-0.5-0.2-0.5c-5.4-3.9-11.2-7.3-17.4-10.3c0-0.3-0.1-0.5-0.2-0.8c-0.8-1.6-2.2-2.8-4-3.4c-0.9-1.4-1.7-2.8-2.6-4.1
					c-0.2-0.3-0.5-0.6-0.8-0.9c-4.1-3.7-8.3-7.4-12.5-11c0-0.3-0.1-0.5-0.2-0.7c-1.1-2-2.4-3.7-4-5.2c0-0.3-0.1-0.4-0.2-0.5
					c-0.5-0.2-0.7-0.4-0.7-0.4c-0.2-1.7-0.7-2.8-1.7-3.3c-0.3-1.1-0.7-2.1-1.3-3c-0.5-0.8-0.8-1.8-0.8-2.9c0-2-0.7-3.1-2.1-3.4
					c0-0.3,0-0.5,0-0.9c0-0.5,0-1.1,0-1.6c0-0.3-0.1-0.5-0.2-0.8c-0.6-1-1.1-2.1-1.5-3.4c0.9-1.7,1.8-3.3,2.7-5
					c1.3-2.3,2.2-5.1,2.7-8.4s-0.1-5.2-2-5.9c0-0.3-0.1-0.5-0.2-0.6c-1.6-0.9-3.5-1-5.7-0.3c0,0.3,0,0.5,0,0.9
					c0,0.3-0.1,0.5-0.2,0.6c-0.4,0.4-0.9,0.8-1.4,1.1c-0.6,0.3-1,0.7-1.2,1.1c-1.4,2.4-2.7,2.6-3.8,0.6c0-0.3,0-0.6,0-0.8
					c0-3.1,0-6.1,0-9.2c0.8-0.6,1.4-1.4,1.6-2.5c0.1-0.3,0.1-0.5,0.1-0.8c3.6-4.5,6.5-9.8,8.8-15.8c0.4-1.1,1-2.1,1.7-3
					c0.3-0.3,0.4-0.8,0.4-1.3c0-0.8,0-1.7,0-2.5c0-0.3,0-0.5,0-0.8c2.4-0.1,3.7-1.5,3.8-4.2c0-0.3,0-0.6,0.1-0.9
					c0.4-2.9,1.3-5.1,2.8-6.6c0-1.7,0-3.4,0-5.1c0-0.3,0-0.5,0-0.8c0-0.3,0-0.6,0-0.9c1.5-0.4,2.5-1.5,2.8-3.3
					c0.1-0.6,0.2-1.2,0.2-1.8c0.2-2.3,0.6-4.3,1.3-5.8c0.5-1.1,1-2.3,1.6-3.4c1.2-2.4,2.1-5.2,2.8-8.3c0.1-0.3,0.3-0.6,0.6-0.9
					c0.3-0.3,0.5-0.6,0.8-0.9c1-2.1,2.1-4,3.2-5.9c0.1-0.2,0.2-0.5,0.2-0.8c0.5-1.1,1.1-2.3,1.6-3.4c0.6-1.4,1.2-2.8,1.8-4.2
					c0-0.3,0-0.5,0-0.8c0.9-1.6,1.7-3.3,2.3-5.1c0.1-0.2,0.2-0.5,0.2-0.8c0.9-0.2,1.2-1,0.9-2.5c0-0.3,0-0.6,0-0.9
					c0.8-1.4,1.4-3,1.6-5c0-0.3,0.1-0.6,0.1-0.8c0-0.3,0-0.6,0-0.9c1.5-2.4,2.8-5,4-7.6c0.1-0.2,0.2-0.5,0.2-0.8
					c1.4-1.7,2.7-3.4,4-5.2c0.1-0.2,0.2-0.4,0.2-0.7c0.7-1.2,1.2-2.6,1.7-4.1c0.5-1.7,1.1-3.4,1.7-5.1c1.1-2.2,2.2-4.4,3.2-6.8
					c0.1-0.2,0.2-0.5,0.2-0.8c2.4-3.8,4.5-7.7,6.5-11.8c0.1-0.2,0.2-0.5,0.2-0.8c0.9-0.7,1.3-2.1,1.2-4.2c0-0.3,0-0.5,0-0.8
					c0.3-3,1-5.5,2.1-7.5c1.2-1.9,2.9-3.2,5.1-4c0.5-0.2,0.9-0.4,1.1-0.7c0.3-0.3,0.4-0.7,0.4-1.2c0-0.3,0-0.5,0-0.8
					c0-0.3,0-0.6,0-0.8c0-0.3,0-0.6,0-0.9c1.2-0.3,1.9-0.1,2.1,0.8c0,0.1,0.2,0.1,0.4,0.1c0.9-0.1,1.3,0.5,1,1.7
					c-0.1,0.3-0.1,0.5-0.1,0.8c0.9,3,2.8,5.1,5.6,6.3c0.7,0.3,1.2,0.9,1.6,1.8c0.2,0.4,0.4,0.9,0.6,1.3c0.7,1.4,1.7,2.4,3,3.1
					c1.3,1.8,2.9,3.1,5.1,4c0.2,0.1,0.5,0.2,0.8,0.2c0,0.3,0.1,0.5,0.2,0.6s0.4,0.2,0.7,0.2C165,163.3,167,164.9,169.1,166.4
					 M199.1,265.5c0,2,0,3.9,0,5.9c0,0.3,0,0.5,0,0.8c-0.3,0-0.6,0-0.9,0c-0.3,0-0.6,0-0.9,0c0,2.5,0.2,5,0.5,7.5c0,0,0.1,0,0.4,0
					c0.7,2.6,2.4,4.3,5.1,5c0.3,0.1,0.5,0.1,0.8,0.1c1.1,1.7,3,2.5,5.9,2.4c2.6-0.1,4.3-1.1,5-3.2c2.1-1,2.9-3.3,2.6-6.7
					c0-0.3,0-0.6,0-0.9c0-0.3,0-0.5,0-0.9c0.3,0,0.5,0,0.8,0c0.3,0,0.5-0.1,0.6-0.2c0.1-0.1,0.2-0.3,0.2-0.6c0.9-0.2,1.4-1,1.4-2.5
					c0-3.1-0.6-5.6-1.6-7.5c-1.4-2.5-3.6-4.2-6.6-5.1c0.1-0.9-0.5-1.2-1.7-1c-0.5,0.1-1,0.3-1.2,0.6c-0.7,0.7-1.7,1.1-2.9,1.2
					c-0.6,0-1,0.2-1.4,0.4c-1.9,1.4-3.6,2.9-5.3,4.6C199.7,265.5,199.4,265.5,199.1,265.5 M174.8,243.8c-0.3,0-0.5,0.1-0.6,0.2
					c-0.7,1.1-1.6,1.8-2.8,2.3c0,0.3,0,0.6,0,0.9c-0.3,0-0.4,0-0.4,0.1c-0.6,1.8-1.6,3.2-2.9,4.1c0,1.1,0,2.2,0,3.3
					c0,0.3,0,0.5,0,0.8c0,0.3-0.1,0.5-0.2,0.7c-0.1,0.1-0.3,0.2-0.6,0.2c0.3,2.8,0.7,5.6,1.2,8.3c0,0.1,0.2,0.1,0.4,0.1
					c0.2,2.9,1.8,4.2,5,3.8c0.3,0,0.6,0,0.8,0c0.9,0.2,1.7,0.7,2.4,1.4c0.7,0.7,1.9,0.7,3.6,0c1.2-0.6,2-1.5,2.5-2.6
					c1.4-1.1,2.7-2.3,3.9-3.6c0.1-0.1,0.2-0.3,0.2-0.6c1.8-1.3,3.1-3.2,3.8-5.8c0-0.1,0.2-0.1,0.4-0.1c0.6-5.9-0.4-10.3-2.8-13.2
					c-0.1-0.1-0.3-0.2-0.6-0.2c-0.6-0.6-1.2-1-1.8-1.4c-0.4-0.2-0.8-0.5-1-0.8c-1.1-1.2-2.9-1.6-5.5-1.2c-0.3,0-0.5,0.1-0.7,0.2
					c-1.3,0.9-2.7,1.7-4.3,2.3C174.8,243.2,174.8,243.4,174.8,243.8 M142.1,291.5c0,0.3,0,0.6,0,0.9c-0.3,0-0.6,0-0.8,0
					c-0.5,4.7,0.1,8.2,1.9,10.6c0.1,0.1,0.3,0.2,0.6,0.2c-0.4,2.4-0.2,4.1,0.6,5.2c0.1,0.2,0.2,0.4,0.2,0.7c0.4,2.9,1.1,5.6,2.1,8.2
					c0,0.1,0.2,0.2,0.4,0.2c0.7,2.1,1.7,4,2.8,5.7c0.1,0.1,0.3,0.1,0.6,0.1c0.6,2,1.2,3.9,2.1,5.8c0,0.1,0.2,0.2,0.5,0.2
					c1.2,0.7,2.2,1.7,2.8,3.2c0,0.1,0.2,0.1,0.5,0.1c3.7,4.3,8.5,7.6,14.2,9.9c0.3,0.1,0.5,0.1,0.8,0.1c1.4,2.2,3.9,3.5,7.5,3.8
					c0,0,0.1,0.1,0.1,0.4c1.1,1.7,3.3,2.4,6.8,2.1c0.2,0,0.5,0,0.9,0.1c0.5,0.2,1,0.2,1.6,0.2c1,1,2.7,1.4,5.1,1.2
					c3.1-0.2,6.1-0.6,9.1-1.2c0.1,0,0.1-0.3,0.1-0.8c0-0.3,0-0.6,0-0.9c1.1,0,2.2-0.1,3.2-0.4c0.1,0,0.1-0.1,0.1-0.4
					c1.3-0.4,2.2-1,2.8-2c0.1-0.1,0.1-0.3,0-0.6c-0.2-0.9,0.2-1.3,1.4-1.2c0.3,0,0.6-0.1,0.9-0.4c0.8-0.5,2.2-0.7,4.2-0.5
					c0.3,0,0.5-0.1,0.8-0.4c1.4-1.9,2.5-4.2,3.4-6.7c2.4-1,3.8-2.9,4.2-5.8c0.2-1.7,0.3-3.4,0.3-5.1c-0.1-2.4-0.2-4.9-0.4-7.5
					c-0.3-1.4-1.4-2-3.3-1.8c-0.6,0.1-0.9,0-0.9-0.1c-0.2-1.1-0.7-1.5-1.6-1.2c-2.3,0.6-4.3,1.6-6,3.1c0,0.6,0,1.1,0,1.7
					c0,0.3,0,0.6,0,0.9c-0.3,0-0.4,0.1-0.5,0.2c-1.4,1.7-2.9,3.3-4.5,4.8c0,0.3,0,0.6,0,0.9c0,0.3,0,0.6,0,0.9c-0.3,0-0.6,0-0.8,0
					c0,0.3,0,0.5,0,0.8c-0.3,0-0.5,0.1-0.7,0.2c-2.3,1.6-5.7,2.1-10.2,1.5c0,0.3,0,0.5,0,0.9c-0.3,0-0.6,0-0.8,0c-0.3,0-0.5,0-0.8,0
					c0-0.3,0-0.5-0.1-0.5c-2.3-0.2-4.2-0.6-5.8-1.2c-1.4-0.8-2.7-1.8-3.8-2.9c-1.1-1.1-2.6-1.8-4.6-2.1c-0.8-0.6-1.7-1.1-2.4-1.8
					c-0.3-0.2-0.6-0.4-0.9-0.5c-1.5-0.3-2.9-0.7-4.2-1.1c-0.3,0-0.5,0-0.8,0c-0.5-1.1-1.1-2.3-1.6-3.4c-0.5-0.9-1.3-1.5-2.6-1.6
					c0-0.3,0-0.5-0.1-0.8c-0.9-2.1-2.5-3.5-4.9-4.2c-0.3-0.3-0.6-0.6-0.8-0.9c-0.3-0.3-0.5-0.6-0.6-1c-0.7-1.6-1.3-3.2-1.9-4.9
					c0-1.1,0-2.2,0.1-3.4c0.3-2.9,0-5.2-1-6.7c-0.3-0.6-0.4-1.2-0.6-1.8c-0.3-1.8-1.3-2.9-2.8-3.3c-2.1-1.5-4.6-1.6-7.4-0.5
					c-0.9,0.4-1.6,0.9-2.1,1.7C143.6,289.6,142.9,290.6,142.1,291.5 M106.6,272.2c0.1-2.6,0.5-4.9,1-6.8c0.8-2.6,0.1-3.5-2.2-2.8
					c-2,0.6-4,1.3-6,2.1c0,0.3,0,0.5,0,0.8c-0.5,1.4-1.4,2.4-2.7,3l-0.7,0.3c0.2,3-0.7,4.6-2.5,5c0,0.3,0,0.5,0,0.9h-0.4
					c0.1,1.2-0.4,1.7-1.3,1.6c0,0.6,0,1.1,0,1.7c0,0.3,0,0.5,0,0.9c-0.3,0-0.5,0-0.8,0c0,2.5,0.1,5,0.4,7.4c0,0,0.1,0.1,0.4,0.1
					c0.3,0.6,0.7,1.1,1.1,1.5c0.2,0.1,0.4,0.2,0.7,0.2c-0.1,0.9,0.4,1.1,1.5,0.5c0.1-0.1,0.1-0.2,0.1-0.5c2.7-1,4.9-2.4,6.5-4.4
					c0.2-0.2,0.2-0.4,0.2-0.7c0.9-1.6,1.7-3.2,2.4-5.1c0.1-0.3,0.1-0.5,0.1-0.8c0.3-0.3,0.4-0.5,0.4-0.8c-0.1-1.8,0.3-3,1.2-3.5
					C106.4,272.8,106.6,272.5,106.6,272.2 M128.8,212.8c0-0.3-0.1-0.5-0.2-0.6c-0.1-0.1-0.3-0.2-0.6-0.2c0-0.3-0.1-0.4-0.2-0.5
					c-1.8-1.4-3.7-1.5-5.6-0.3c0,0.3,0,0.6,0,0.8c-0.8,0.9-1.7,1.7-2.6,2.6c-0.3,0.3-0.4,0.5-0.4,0.8c0,2.8-1,4.5-2.9,5.1
					c-0.3,0-0.5,0-0.8,0c0,0.3,0,0.5,0,0.8c-0.3,0-0.6,0-0.8,0c0,3.4,0.1,6.7,0.4,10c0,0,0.1,0.1,0.4,0.1c-0.4,1.2-0.1,1.7,0.8,1.7
					c0.3,0,0.6,0,0.8,0c0.5,1,1.5,1.1,3.2,0.4c0.1,0,0.2-0.2,0.2-0.4c2.6-1.8,4.3-4.6,5-8.4c0.1-0.3,0.1-0.5,0.1-0.8
					c0.3,0,0.5,0,0.8,0c1.5-0.4,2.4-1.6,2.5-3.3c0-0.3,0.1-0.6,0.1-0.9c0.3,0,0.4,0,0.4-0.1C129.8,216.5,129.7,214.3,128.8,212.8
					 M151.6,166.1c-0.6-1.2-1.4-2.2-2.4-3.2c-0.3-0.3-0.5-0.4-0.6-0.5c-2.7-0.9-4.6-0.5-5.6,1c-0.6,0.8-1.1,1.7-1.7,2.5
					c0,0.3,0,0.5,0,0.8c0,0.3-0.1,0.5-0.2,0.7c-0.1,0.1-0.4,0.2-0.7,0.2c-0.3,0-0.4,0.1-0.4,0.1c-0.6,1.8-1.6,3.2-2.9,4.1
					c0,0.3,0,0.6,0,0.9c0,0.3,0,0.5,0,0.8c0,0.3,0,0.6,0,0.8c-0.3,0-0.6,0-0.9,0c0,2.5,0.2,5,0.4,7.5c0,0,0.1,0.1,0.4,0.1
					c0.4,2.5,2.3,3.2,5.8,2.2c0.3-0.1,0.6-0.3,0.8-0.6c0.1-0.2,0.2-0.5,0.2-0.8c1.4-1.1,2.7-2.3,4-3.6c0.1-0.2,0.2-0.4,0.2-0.7
					c1-0.7,1.4-2.1,1.3-4.2c0-0.3,0.1-0.5,0.4-0.8c0.9-0.7,1.4-2.1,1.2-4.2c0-0.3,0.1-0.5,0.4-0.8
					C152.3,168.2,152.4,167.4,151.6,166.1 M218.4,96.3c0,0.3,0,0.5,0,0.8c-0.3,0-0.5,0-0.8,0c-3.2-0.1-5.7,0.5-7.6,1.7
					c0,0.3,0,0.6,0,0.8c0,0.3-0.1,0.4-0.2,0.5c-1,0.5-2,0.9-3.2,1.2c-0.3,0-0.6,0-0.8,0.1c-1.6,0.6-3,1.4-4.2,2.4c0,0.3,0,0.6,0,0.8
					c0,0.3-0.1,0.5-0.2,0.6c-0.7,0.7-1.5,1.3-2.3,1.9h-0.4c0.1,1.2-0.4,1.8-1.3,1.7c0,3.4,0,6.7,0,10.1c0,0.3,0,0.6,0,0.8
					c0.6,3.1,1.7,5.6,3.2,7.7c0.1,0.2,0.2,0.4,0.2,0.7c2.2,1.7,4.5,3.3,6.8,4.8c0.2,0.1,0.4,0.2,0.7,0.2c0.1,2.1,1.2,3.4,3.3,3.8
					c1,0.2,1.6,1.2,1.8,2.9c0,0,0.2,0.1,0.7,0.3c2.1,0.9,4.1,1.9,6,3.1c6.3,5.2,14.4,8.5,24.3,10c0.3,0,0.5,0.1,0.8,0.1
					c2.2,1.4,5.3,2,9.2,1.7c0.3,0,0.6,0,0.9,0c3.6,0,7.2,0,10.9,0c0.3,0,0.6,0,0.9,0c0.3,0,0.5,0,0.8,0c0.3,0,0.6,0,0.9,0
					c3.6,0.3,6.6-0.1,9.1-1.2c0.1,0,0.1-0.2,0.1-0.5c3.1-0.2,5.5-1.2,7.1-2.9c0.3-0.3,0.6-0.6,1-0.8c1.6-0.8,2.8-2.1,3.5-3.9
					c2.2-1.2,3.6-3.2,4.2-5.9c0-0.3,0-0.5,0-0.8c0.9,0.1,1.4-0.5,1.5-1.7c0.2-4.6-0.6-7.9-2.3-10.1c0-0.3,0-0.5-0.1-0.8
					c-0.9-2.7-2.5-4.6-4.9-5.9c0-0.3-0.1-0.4-0.2-0.5c-3.1-2-5.8-4.4-8.2-7c-2,0.3-3.2-0.2-3.6-1.6c-0.1-0.3-0.3-0.6-0.6-0.8
					c-1.4-0.7-2.7-1.3-4.1-1.8c-1.4-1.4-3-2.5-4.9-3.5c-0.3-0.2-0.6-0.3-1-0.3c-3.5-0.4-6.3-1.2-8.5-2.5c-0.4-0.3-0.8-0.5-1.2-0.8
					c-1.4-1-3.5-1.4-6.1-1.3c0-0.3,0-0.4-0.1-0.4c-2.6-0.7-5.1-1.3-7.4-2.1c-0.4-1-1.6-1.4-3.4-1.3c-0.3,0-0.5,0-0.8,0.1
					c-2.4,0.1-4.1,0.2-5.1,0.1C227.8,96.5,223.1,96.3,218.4,96.3 M228.4,111.4c2.2,0.3,4.2,0.8,6,1.5c0.2,0.1,0.5,0.2,0.8,0.2
					c0.3,0,0.6,0,0.8,0c0,1.7,1.1,2.4,3.4,2.1c0.3,0,0.4,0.1,0.5,0.5c0.3,1.2,1.2,1.7,2.8,1.6c2,1.9,4.3,3.5,6.9,4.6
					c1.7,0.7,3.6,1.2,5.6,1.4c1,0.1,1.7,0.5,2.3,1.2c0.2,0.3,0.6,0.4,1.1,0.4c0.3,0,0.5,0,0.8,0c0.4,1.5,1.8,2.2,4.2,2.1
					c0.2,0,0.5,0.1,0.9,0.3c2,1.6,4.1,3.2,6.4,4.6c0.5,0.3,0.9,0.7,1.3,1.1c1.6,1.6,1.8,3.4,0.6,5.2c-0.3,0-0.5,0-0.8,0
					c-1.1,0-1.9,0.3-2.5,0.9c-0.3,0-0.5,0-0.8,0c-2.5,0-5,0-7.5,0c0-0.3,0-0.4-0.1-0.4c-2.7-0.8-5.5-1.5-8.3-2.1
					c-2.4-1.3-4.9-2.3-7.6-3.1c-0.5-0.2-1-0.4-1.4-0.6c-2.6-1.4-5.8-2.4-9.4-3c0-0.3-0.1-0.5-0.2-0.7c-0.7-1.2-2.1-1.8-4-1.8
					c0-0.3-0.1-0.5-0.2-0.6c-1.4-0.9-2.7-1.8-4-2.8c0-0.3-0.1-0.5-0.2-0.6c-2.1-2.1-4.3-4.1-6.5-6.1c0-0.3,0-0.5,0-0.8
					c0-1.4,0-2.8,0-4.2c0-0.3,0-0.5,0-0.8c0.3,0,0.6,0,0.9,0c2.5,0,5.1,0,7.6,0C227.9,111.4,228.1,111.4,228.4,111.4 M326.9,127.7
					c1.9-1.3,1.7-2.3-0.4-2.8c0,0.8,0.1,1.7,0.3,2.4C326.8,127.5,326.9,127.7,326.9,127.7z"/>
			</g>
		</g>
	</g>
</g>
</svg>
