<svg id="Layer_1" data-name="Layer 1" xmlns="http://www.w3.org/2000/svg" viewBox="0 0 500 500"><path d="M482,154.74q-.78,9.19-1.55,18.39c-2,23.13-6.72,45.52-17.58,66.3a13.72,13.72,0,0,0-1.12,4.29c-1.19,7.93-8.7,12.06-15.36,7.59a127.3,127.3,0,0,1-18.76-15.44c-13.87-13.81-27.29-28.08-41-42.26a23.54,23.54,0,0,0-1.94,1.42c-23.67,21.67-47.51,43.15-70.91,65.12a309.89,309.89,0,0,0-25.91,27.7c-6.15,7.38-12.41,7.13-17-1.91-7.94,5.46-15.07,2.31-21.37-2.82A77.35,77.35,0,0,1,235.64,269c-13.84-19.14-27.27-38.59-40.61-58.09-1.31-1.92-.93-5-1.28-7.57-.12-.81.2-1.81-.17-2.43-2.93-5-.57-8.36,2.9-11.87,23.08-23.37,46.18-46.72,69-70.34,8.57-8.87,16.42-18.45,24.95-28.11-4.3-4.52-8.32-9.17-12.79-13.35-11.87-11.12-24-22-35.89-33a11.72,11.72,0,0,0-8.89-3.54,22.76,22.76,0,0,1-5.37-.62c-5.22-1-7.41-5.75-4.66-10.22a57.14,57.14,0,0,1,4.12-5.27h1.81c2.82.71,5.66,2.08,8.47,2,40.24-.6,80.23,3.14,120.27,6.34,36.57,2.92,73.18,5.35,109.79,7.71,6.56.42,11.63,2.29,14.68,8.33v105.8Zm-24.88-5.09c0-3.7.14-7.28-.08-10.84a6.22,6.22,0,0,0-1.65-3.46c-21.05-23.09-43.18-45-68.94-62.92-5-3.45-6-6.65-3.5-9.6,3.42-4.06,6.51-1,9.47.84,21,13,39.77,28.75,58.34,44.85,2.07,1.79,4.11,3.63,7.17,6.34V64.43l-162.41-17c1.6,1.36,2.78,2.44,4,3.43,34.74,27.51,69,55.55,101.45,85.79,18,16.76,36.14,33.3,50.54,53.43.26.38.79.57,1.54,1.07.74-6.6,1.5-12.72,2-18.86a3.81,3.81,0,0,0-1.16-2.95c-10.91-7.86-19.47-18-27.38-28.65a211.22,211.22,0,0,0-49.44-47.93c-13.83-9.58-28.39-18.12-42.67-27.05-2.29-1.43-3.87-3-2.66-5.84s3.59-2.9,6.05-1.81c7.14,3.17,14.59,5.83,21.32,9.72C396.29,89.27,427.45,117.9,457.08,149.65Zm-79.75,23.29c4.35-3.78,8.05-1.42,11.78,1.7q26.64,22.37,53.38,44.63c1.19,1,2.44,1.91,3.8,3,3.07-8.86,3-8.76-3.21-14.69-7.17-6.87-14.39-13.73-21.19-21-27-28.74-53.57-57.94-83.55-83.77-22-19-43.44-38.58-65.16-57.87a4.7,4.7,0,0,0-2.46-.89c-3.48-.4-7-.7-10.47-1a17.51,17.51,0,0,0,4.39,4.06C277.51,57,290.46,66.8,303.19,76.9c4.82,3.82,5,6.29,3.06,11.89a6.29,6.29,0,0,0,.67,4.34c2.42,4.77,2.42,9.24-1,13.48-1.49,1.84-3.06,3.62-4.71,5.55C326.63,132.26,354.06,149.42,377.33,172.94ZM250.2,167.26c18.16,25.42,41.44,45.16,65.2,65.29l24.46-26.47c-26.67-14.25-47.5-37.5-70.26-57.56ZM363.4,184.1c-18.8-25.52-44.91-43.62-69.17-64.2l-17.17,19.5c8,6.92,15.75,13.37,23.25,20.09,15.65,14,35.55,22.63,49.66,39.4Zm-156.75,18c10.71,14,21.11,28.19,32.18,41.82a215.22,215.22,0,0,0,20.49,21.47c4.93,4.59,11.79,7.17,13.86,15.09L285.26,265c-26.24-20.61-49.52-43.21-59.77-76.36ZM305,243c-24-20.32-43.11-44.64-61.58-69.47-12.28,9.17-12.36,10.42-6,22.82,13,25.12,35,41.23,56.66,58.28Z"/><path d="M55.57,76.91c-.43,8.18-1,15.83-1.2,23.49C52.46,172.7,50.79,245,48.62,317.32c-.61,20.3-2.73,40.56-3.93,60.84-.82,13.82-2,27.7,2.34,41.25q5.13,16.06,21.83,18.23c37.78,4.83,75.47,10.6,113.37,14.18,44.4,4.19,89,6.11,133.66,4,27.39-1.3,54.75-3.12,82.14-4.59,5.4-.29,10.84,0,16.68,0a27,27,0,0,0,.4-3.31q.4-47.69.72-95.39a10.62,10.62,0,0,0-.92-4.72c-3.62-7.08-1.52-16.26,4.7-19.79,6.9-3.91,14.48-1.34,19.08,6.46,6.66,11.28,8.72,23.86,8.57,36.52-.22,18.2-1.68,36.39-2.78,54.57-.59,9.77-1.86,19.51-2.18,29.29-.27,8.2-4.14,15.18-14.38,16.91a859.19,859.19,0,0,1-194.56,10.57c-35.16-2.06-70.32-5.19-105.26-9.57-33-4.14-65.69-10.51-98.5-16-6.11-1-10.24-6.19-10.59-12.88-.16-2.85,0-5.72,0-8.59.57-61.94.84-123.88,1.8-185.81.78-50.32,2.32-100.64,3.68-150.95.3-11,1.16-22,1.92-32.94a35.75,35.75,0,0,1,1.6-9.29c1.88-5.36,5.77-9.13,11.63-9.28,27.06-.71,54.2-4.65,81.15.31,8.45,1.56,16.67,5,24.63,8.37,6.08,2.59,5.93,8.36.15,11.63a71.91,71.91,0,0,1-32.67,9.51c-17.28.67-34.61.12-51.92.09Z"/></svg>