<?xml version="1.0" encoding="utf-8"?>
<!-- Generator: Adobe Illustrator 25.0.1, SVG Export Plug-In . SVG Version: 6.00 Build 0)  -->
<svg version="1.1" id="Layer_1" xmlns="http://www.w3.org/2000/svg" xmlns:xlink="http://www.w3.org/1999/xlink" x="0px" y="0px"
	 viewBox="0 0 500 550" style="enable-background:new 0 0 500 550;" xml:space="preserve">
<g id="Layer_2">
	<g id="Layer_2_1_">
		<g transform="matrix( 1, 0, 0, 1, 0,0) ">
			<g>
				<g id="Layer0_0_FILL">
					<path d="M329.6,81.6c-1.3-1-2.9-1.7-4.8-2c0.4-1.2,0.1-1.7-0.8-1.5c-1.5,0.3-2.5,0-3-0.8c-0.2-0.4-0.7-0.7-1.3-0.7
						c-1.5-0.1-2.3-0.8-2.5-2c0-0.3-0.1-0.4-0.2-0.5c-2.8-1.7-5.9-3.2-9-4.5c-0.3,0-0.5,0-0.8,0s-0.6,0-0.9,0c0-0.3,0-0.5-0.1-0.5
						c-3.6-1.5-7.2-3.1-10.8-4.6c-0.6,0-1.1-0.1-1.6-0.3c-0.9-0.4-1.8-0.8-2.6-1.3c-1.4-0.8-3.1-1.4-5-1.7c-0.6-0.1-1-0.2-1.2-0.5
						c-0.9-1.1-2.4-1.5-4.6-1.2c0-0.3-0.1-0.5-0.2-0.7c-1-1-2.6-1.3-4.8-1c-0.3,0-0.5,0-0.8-0.1c-0.3-0.2-0.6-0.4-0.9-0.7
						c0-0.3-0.1-0.4-0.2-0.5c-0.4-0.2-0.8-0.5-1.1-0.8c-1.2-1-3-1.4-5.4-1.2c-0.3,0-0.6,0-0.9,0c0-0.3-0.1-0.5-0.2-0.8
						c-0.2-0.3-0.4-0.5-0.6-0.5c-1.5,0.2-2.9,0.6-4.3,1.2c-0.3-0.3-0.5-0.6-0.8-0.9c-0.3-0.3-0.6-0.5-0.9-0.5
						c-1.6-0.5-3.3-0.8-5-1.1c0-0.3,0-0.4,0-0.5c-3.9-0.3-7.8-0.4-11.7-0.4c0-0.3-0.1-0.5-0.2-0.6c-1.4-1.1-3.6-1.5-6.5-1
						c-0.3,0-0.6,0-0.9,0c-1.6-0.1-3-0.3-4.2-0.8c0-0.3,0-0.4-0.1-0.4c-2.5-0.3-5-0.4-7.5-0.4c-0.3,0-0.5,0-0.8-0.2
						s-0.6-0.4-0.9-0.7c-0.3-0.3-0.6-0.4-0.9-0.5c-1.1-0.2-2.1-0.4-3.2-0.7c-1.5-0.3-3.1-0.7-5-1c-2.5-0.5-5.6-0.6-9.3-0.2
						c-0.3,0-0.6,0-0.9,0c-1.1,0-2.2,0-3.3,0c-0.3,0-0.5,0-0.8,0c-0.8,0-1.7,0-2.6,0c-0.3,0-0.5,0-0.8,0c-4.8-0.3-9,0-12.6,0.8
						c0,0.3,0,0.5,0,0.8c-0.3,0-0.5,0-0.8,0c-1.1,0-2.2,0-3.4,0c-0.3,0-0.6,0-0.8,0c-2.8-0.3-5,0-6.7,0.9c0,0.3,0,0.6,0,0.8
						c-0.3,0-0.6,0-0.8,0c-1.1,0-2.2,0-3.4,0c-0.3,0-0.5,0-0.8,0.1c-1.1,0.2-2.3,0.5-3.4,0.8c0,0.3,0,0.5,0,0.9c-0.3,0-0.5,0-0.8,0
						c-0.6,0-0.9,0.1-1,0.3c-0.7,1.6-2.3,2-4.9,1.3c-0.3,0-0.5,0.1-0.8,0.2c-1.2,0.7-2.6,1.2-4.2,1.5c0,0.3,0,0.5,0,0.8
						s-0.1,0.5-0.2,0.7c-0.2,0.1-0.4,0.2-0.7,0.2s-0.4,0-0.5,0.1c-1.7,3.5-3.4,6.8-5.3,9.9c0,0.3,0,0.6,0,0.8c0,0.3,0,0.6,0,0.8
						c0,0.3,0,0.5,0,0.8c0.1,1.5-0.4,2.4-1.7,2.6h-0.4c0,2-0.7,3.1-2.1,3.3c0.3,0.6,0.5,1.1,0.7,1.7c0.1,0.3,0.1,0.5,0.1,0.8
						s-0.1,0.5-0.2,0.7c-0.4,0.4-0.8,0.7-1.4,1c-0.3,0-0.4,0.1-0.5,0.2c-0.6,1.2-1.3,2.3-2,3.2c0,0.3,0,0.5,0,0.8s0,0.6,0,0.8
						c-0.3,0-0.4,0-0.4,0.1c-0.3,2.4-1,4.3-2.1,5.8c0.7,1.5,0.7,2.5,0.1,2.8c-0.1,0.1-0.1,0.3-0.1,0.6c-0.9-0.1-1.2,0.5-0.9,1.7
						c0.8,3,0,4.4-2.5,4.2c0,1.4,0,2.8,0,4.2c0,0.3,0,0.6,0,0.8c-0.3,0-0.4,0-0.4,0.1c-0.5,1.7-1.2,3.1-2.1,4.1c0,0.6,0,1.1,0,1.7
						c0,0.3,0,0.6,0,0.8c-0.5,0-0.9,0.1-1.1,0.4c-0.7,1.1-1.5,2-2.2,2.9c-0.3,0.3-0.4,0.6-0.5,0.8c-0.1,3.2-1.4,5.1-3.7,5.8
						c0,0.3,0,0.6,0,0.9s0,0.5,0,0.8c-0.3,0.3-0.6,0.6-0.8,0.8c-0.3,0.3-0.5,0.5-0.5,0.8c-0.4,2.6-1.6,4.3-3.7,5c0,0.3,0,0.6,0,0.8
						c-0.1,2.4-1,4-2.5,5c-0.3,0-0.5,0.1-0.7,0.2c-0.7,0.7-1.3,1.5-1.8,2.3c0,0.3,0,0.6,0,0.9c0,0.3,0,0.5,0,0.8
						c-0.6,0.8-1,1.7-1.4,2.7c-0.2,0.5-0.4,0.9-0.7,1.2c-1.5,2.1-2.5,4.7-2.8,7.8c-0.1,0.5-0.2,0.9-0.5,1c-1.4,0.7-2.4,1.8-3,3.2
						c-0.3,0-0.4,0-0.4,0.1c-1.1,3.6-2.6,6.6-4.6,9.1c0,0.3,0,0.6,0,0.9c0,0.3,0,0.6,0,0.8c0,0.3,0,0.6,0,0.9c0,1.6-0.6,2.7-1.7,3.3
						c-0.3,0-0.4,0-0.4,0.1c-0.4,2.6-1.4,4.5-2.9,5.8c0,0.3,0,0.6,0,0.9c0,0.3,0,0.6,0,0.8c0,0.3,0,0.5,0,0.8h-0.4
						c0.1,1.8-0.3,2.9-1.3,3.4c0,0.3,0,0.6,0,0.8c0,0.3,0,0.6,0.1,0.9c0.2,2.5-0.3,4.2-1.7,5c-0.9,0.5-1.4,1.6-1.3,3.4
						c0,0.3,0,0.6-0.2,0.9c-0.2,0.5-0.4,0.8-0.7,1c-0.7,0.5-1,1.3-0.9,2.2c0.3,2.8-0.4,4.5-2.1,5.1c0,0.8,0,1.7,0,2.5
						c0,0.3,0,0.6,0,0.9c-1.5,0.7-2.5,2.1-2.9,4.1c-0.4,1.9-1.1,3.6-2,5.1c-0.6,1.1-1.2,2.2-1.8,3.3c0,0.3,0,0.5,0,0.8
						c-0.3,2.4-1.2,4.4-2.5,5.9c-0.3,0.3-0.4,0.5-0.4,0.8c0.3,2.6-0.4,4-2.1,4.2c0,0.5,0,1.1,0,1.6c0,0.3,0,0.6,0,0.9
						c-0.3,0-0.5,0-0.5,0.1c-0.7,1.9-1.7,3.5-2.9,4.9c0,0.3,0,0.6,0,0.8c0,0.3,0,0.6,0,0.9c0,0.3,0,0.6,0,0.9c-0.3,0-0.4,0-0.4,0
						c-0.4,3.2-1.4,5.7-2.9,7.5c0,0.3,0,0.6,0,0.8c0,0.3,0,0.6,0,0.9c0,0.3,0,0.5,0,0.8h-0.4c0.1,1.8-0.3,2.9-1.2,3.4
						c0,0.5,0,1.1,0,1.6c0,0.3,0,0.6,0,0.9c0,0.3,0.1,0.5,0.2,0.8c1,1.7,0.4,2.9-1.8,3.5c0,0.3,0,0.5,0,0.8s0,0.6,0,0.9h-0.5
						c0.1,1.5-0.3,2.3-1.2,2.5c0,0.3,0,0.6,0,0.9s0,0.6,0,0.8c0,0.3,0,0.5,0.1,0.8c0.3,1.5-0.3,2.1-1.8,1.7c0,1.1,0,2.3,0,3.4
						c0,0.3,0,0.6,0,0.9c-0.3,0-0.5,0.1-0.6,0.2c-0.9,1.1-1.8,2.2-2.8,3.1c0,0.6,0,1.1,0,1.7c0,0.3,0,0.5,0,0.8s0,0.6,0,0.9
						c0.1,1.5-0.5,2.3-1.7,2.5c0,0.3,0,0.6,0,0.8c-0.3,0-0.4,0.1-0.4,0.2c-0.6,1.8-1.6,3.1-2.9,4c0,1.4,0,2.8,0,4.2
						c0,0.3,0,0.5,0,0.8c0.4,4.9,0.8,9.9,1.2,15c0,0,0.1,0.1,0.5,0.1c0,3.1,0,6.1,0,9.2c0,0.3,0,0.6,0,0.9c0.3,2.2,0.7,4.5,1.1,6.6
						c0.3,1.3,0.4,2.7,0.3,4.2c-0.1,2.8,0.2,5.1,1.1,6.7c-0.5,2.7-0.1,4.6,1.3,5.5c0.2,0.2,0.5,0.5,0.7,1c0.1,0.1,0.2,0.2,0.5,0.2
						c0,0.3,0,0.5,0,0.8s0,0.5,0,0.8c0,3.3,0.4,6.4,1.2,9.1c0,0.1,0.2,0.1,0.5,0.1c0,0.3,0,0.5,0,0.8c1.5,4.4,3.5,8.2,6.1,11.6
						c0.1,0.1,0.3,0.2,0.6,0.2c1.7,0.8,2.8,2.2,3.2,4.2c0.1,0.3,0.1,0.5,0.1,0.8c0.3,2.3,1.1,3.9,2.6,4.9c0.2,0.1,0.4,0.2,0.8,0.2
						c1.2,1.3,2.3,2.7,3.1,4.3c0.1,0.2,0.2,0.4,0.2,0.8c5.1,4.4,10,9,14.7,13.8c0.3,0.3,0.6,0.5,1,0.8c0.5,0.3,0.8,0.8,0.9,1.4
						c0.3,1.2,0.9,2.1,1.8,2.6c2.5,1.7,4.7,3.6,6.8,5.6c0.8,1.5,1.9,2.6,3.4,3.2c0.2,0.1,0.5,0.1,0.8,0.1c2.4,0.5,4.1,1.5,5.3,3.1
						c0.1,0.1,0.3,0.2,0.6,0.2c0.1,1.8,0.9,2.9,2.5,3.3c0.3,0,0.6,0,0.8,0c1.1,0.6,2.2,1.2,3.2,1.9c1.1,0.7,2.3,1.5,3.5,2.4
						c1.6,1.5,3.3,2.8,5.2,4c0.2,0.1,0.4,0.2,0.7,0.2c2-0.3,3.2,0.2,3.7,1.5c0,0.1,0.2,0.1,0.5,0.1c0.7,1.5,1.9,2.6,3.4,3.2
						c0.2,0.1,0.5,0.2,0.8,0.2s0.6,0,0.8,0c0.6,1.6,2.3,2.3,5.1,2.1c0.3,0,0.5,0.1,0.7,0.4c0.5,0.9,1.7,1.2,3.4,0.8
						c1.9,0.3,3.6,0.8,5.1,1.5c0.2,0.1,0.5,0.1,0.8,0.1c0.7,1.2,2.1,1.8,4.2,1.7c0.3,0,0.5,0,0.8,0s0.6,0,0.8,0
						c1.9,0.3,3.7,0.7,5.2,1.2c0.8,0.3,1.6,0.4,2.4,0.4c0.3,0,0.6,0,0.9,0c0.3,0,0.5,0,0.8,0c0.9,1.7,2.8,2.3,5.9,1.8
						c0.3,0,0.5-0.1,0.8-0.1c0.9,0,1.7,0,2.6,0c0.3,0,0.5,0,0.8,0c1,0.9,2.7,1.4,5.1,1.2c0.3,0,0.6,0,0.9,0c4.1-0.1,8-0.5,11.7-1.2
						c2.5,0,5.1,0,7.6,0c0.3,0,0.5,0,0.8,0c1.6-0.1,2.9-0.5,4-1.1c0.1-0.1,0.2-0.3,0.2-0.5c2.7,0.4,4.7,0.2,6-0.6
						c0.2-0.1,0.4-0.2,0.8-0.2c3.1,0.4,5.7,0.1,7.6-0.6c0.2-0.1,0.5-0.1,0.8-0.1c1.4,0,2.8,0,4.2,0c0.3,0,0.6,0,0.8,0
						c2.5-0.8,5-1.8,7.4-2.9c0.1,0,0.1-0.2,0.1-0.4c1.9,0.2,3.2-0.2,4-1.1c0.1-0.2,0.2-0.4,0.2-0.6c1.8,0.1,3.1-0.3,3.9-1.2
						c0.2-0.3,0.6-0.4,1.2-0.4c0.9,0.1,1.5-0.4,1.7-1.5c0-0.1,0.3-0.2,0.8-0.4c0.3-0.1,0.6-0.3,0.9-0.6c0.3-0.3,0.5-0.6,0.8-0.9
						c3.7-1.6,6.2-4.4,7.4-8.4c0.1-0.2,0.1-0.5,0.1-0.8s0-0.5,0-0.9c0-0.5,0-1.1,0-1.6c1.1-0.6,2.3-1.1,3.4-1.5
						c0.3-0.1,0.5-0.1,0.8-0.1c0,0.3,0,0.6,0,0.8c0,2,0.1,3.9,0.4,5.8c0,0,0.1,0,0.5,0c0,2.8,0,5.6,0,8.4c0,0.3,0,0.6,0,0.9
						c0,4.2,0,8.4,0,12.6c0,0.3,0,0.5,0,0.8c1.3,3.1,3.1,5.9,5.2,8.2c0.1,0.1,0.3,0.2,0.6,0.2c0.2,1.4,0.7,2.6,1.5,3.6
						c0.2,0.2,0.2,0.4,0.2,0.6c-0.3,0-0.6,0-0.9,0c-0.2,1.6,0.6,2.5,2.5,2.5l-0.4,0.7c-0.9,1.7-0.2,2.1,2.1,1c0,0.3,0,0.6,0,0.9
						s0,0.5,0,0.8c-0.3,0-0.6,0-0.9,0c-0.1,1.7,1.1,2.6,3.4,2.5l0.2,0.8c0.1,0.3,0.1,0.6,0.1,0.8c-0.5,1.9,0,2.4,1.6,1.5
						c0.1-0.1,0.3,0,0.6,0.2c1.6,1.2,2,2.4,1.2,3.7c-0.6,1-0.5,1.4,0.4,1.2c0.6-0.1,1.2-0.3,1.7-0.6c1.1,1.1,2.3,2.2,3.5,3.1
						c0.2,0.1,0.4,0.2,0.7,0.2c0.6,1.6,1,3.5,1.2,5.9c0,0,0.1,0,0.4,0s0.5,0.1,0.7,0.2c0.1,0.1,0.2,0.4,0.2,0.6
						c0,1.7,1.1,2.5,3.4,2.5v0.9c0.1,3.8,1.7,6.2,4.8,7.2c0.7,0.2,1.2,0.8,1.7,1.6c0.1,0.2,0.4,0.4,0.9,0.6c0.3,0.1,0.5,0.3,0.6,0.6
						c0.4,1.2,1.3,1.7,2.8,1.6c0.1,1.8,0.9,3,2.4,3.7c0.1,0,0.1,0.2,0.1,0.5c1,1.3,1.8,2.7,2.4,4.2c0.1,0.2,0.1,0.5,0.1,0.8
						c1.1,0.6,2.2,1.2,3.2,1.9c0.6,0.4,1.1,1.2,1.3,2.2c0.1,0.3,0.2,0.6,0.5,0.9c2.5,0,5,0,7.5,0c0.3,0,0.6,0,0.9,0
						c1.3,0.6,3,0.8,5,0.6c1.1-0.1,2.2-0.2,3.4-0.1c2.6,0.1,4.3-0.6,5-2.1c0.3,0,0.5,0,0.8,0c1.3-0.7,2.1-1.8,2.5-3.4
						c0.1-0.3,0.1-0.5,0.1-0.8s0-0.6,0-0.8c0-2.8,0-5.6,0-8.4c0.4-0.9,1.3-1.5,2.5-1.6c0.3,0,0.5-0.1,0.9-0.1c1-1.3,2.6-1.8,5-1.6
						c0.9,0.1,1.2-0.5,0.8-1.7c0-0.3,0-0.6,0-0.8c0-0.3,0-0.6,0-0.9c0.7-1.6,1.8-2.6,3.4-3.1c0.9-0.3,1.2-1.2,0.8-2.7
						c0-1.1,0.1-2.2,0.1-3.4c0.3-2.6,0-4.6-1-5.9c0-0.3,0-0.6,0-0.8c0-0.6,0-1.1,0-1.7c0.9-0.5,1.6-1.1,2.3-1.9
						c0.1-0.1,0.2-0.3,0.2-0.6c2.9-0.8,4.4-3,4.6-6.6c0-0.3,0-0.6,0-0.9c-0.2-3.4,0-6.2,0.5-8.4c0-0.3,0-0.6,0-0.9
						c0.9-0.2,1.6-0.7,2-1.5c0.1-0.1,0.2-0.1,0.5-0.1c1.7-0.5,3.1-1.4,4-2.7c0.1-0.2,0.2-0.4,0.2-0.6c0.6-0.3,1-0.6,1.5-1
						c0.1-0.2,0.2-0.4,0.2-0.7c0.3,0,0.5,0,0.5-0.1c0.7-2.8,0.5-5-0.5-6.6c0-0.3,0-0.5,0-0.9c0-0.3,0-0.5,0-0.8
						c1.5-3,3.1-5.8,4.9-8.5c0.1-0.2,0.2-0.5,0.2-0.8s0-0.6,0-0.9c1.7-0.5,2.9-1.6,3.6-3.1c0.1-0.1,0.2-0.2,0.5-0.2
						c2.1-0.1,3.1-1.2,3-3.3c0-0.6-0.2-1.1-0.5-1.7c0-0.3,0-0.6,0-0.9c0-2.5,0-5,0-7.5c0.6-1.1,1.2-2.2,1.8-3.2
						c0.7-1.2,1.5-2.3,2.4-3.5c0-0.3,0-0.5,0-0.8c2.4-2,5-3.9,7.6-5.7c0.2-0.1,0.4-0.2,0.7-0.2c1-0.7,1.1-2.1,0.5-4.1
						c-0.1-0.3-0.1-0.6-0.1-0.9c0.1-2.4-0.4-4.1-1.3-5.1c0-0.3,0-0.5,0-0.8c0-2,0-3.9,0-5.9c1.4-0.3,2-1.4,1.8-3.4
						c0-0.3,0-0.5,0-0.9c1.4-0.2,2-1.4,1.7-3.4c0-0.3,0-0.5,0-0.8c2,0.3,3.2-0.2,3.8-1.6c0-0.1,0.2-0.1,0.4-0.1
						c3.6-0.3,5.6-2.2,5.9-5.9c0-0.3,0-0.5,0-0.8s0-0.6,0-0.9c0-1.7,0-3.3,0-5c1.4-1.1,2.8-2.3,4-3.6c0.1-0.2,0.2-0.4,0.2-0.6
						c1.1-0.3,1.9-0.8,2.4-1.8c0.1-0.2,0.1-0.5,0.1-0.8s0-0.4-0.1-0.4c-0.8-0.2-1.1-0.9-0.8-2.1c0.9-1,1.3-2.7,1-5
						c-0.1-1.1-0.2-2.2-0.2-3.4c2-0.5,3.6-1.4,4.9-2.7c0.1-0.2,0.2-0.4,0.2-0.6c1.2-0.7,2.3-1.6,3.1-2.6c0.1-0.2,0.2-0.4,0.2-0.7
						c0-0.3,0-0.5,0-0.8s0-0.5,0-0.8s-0.1-0.6-0.1-0.8c-0.5-1.4-0.7-3.1-0.7-5.1c1.5-1.3,2.9-2.7,4-4.3c0.1-0.2,0.2-0.4,0.2-0.7
						c0-0.3,0-0.6,0-0.9c1.6-0.6,2.2-2.3,1.8-5c0-0.3-0.1-0.5-0.1-0.8s0-0.6-0.1-0.8c-0.2-0.6-0.4-1.2-0.7-1.8
						c0.3-0.3,0.5-0.6,0.6-0.9c0.1-0.2,0.2-0.5,0.2-0.8s0-0.5,0-0.9c0-0.3,0-0.6,0-0.9c0.3,0,0.5,0,0.8,0c2.3-1.9,4.4-4,6.5-6
						c0.1-0.1,0.2-0.4,0.2-0.6c1.7-0.3,2.7-1.2,3-2.6c0.3-1,0.7-1.8,1.2-2.4c0-0.3,0-0.6,0-0.9c0-2,0-3.9,0-5.9c0-0.3,0-0.6,0-0.9
						c-0.2-2.6-0.4-5.1-0.9-7.5c0-0.3,0-0.5,0.1-0.8c0-0.8,0-1.7-0.1-2.5c1-0.2,1.7-0.7,2.1-1.5c0-0.1,0.2-0.1,0.5-0.1
						c2.6,0.6,4.2,0.2,4.9-1.4c0.1-0.2,0.4-0.4,0.9-0.6c2-0.7,3.7-1.8,5.1-3.1c2.4-1,3.6-3.2,3.8-6.6c0-0.3,0.1-0.6,0.3-0.9
						c0.1-0.2,0.1-0.5,0.1-0.8s0-0.6,0-0.9c0-0.8,0-1.7,0-2.5c0.3,0,0.6,0,0.9,0h0.4c-0.1-3.2-1.1-5.8-2.9-7.6
						c0-0.3-0.1-0.5-0.2-0.5c-0.4-0.2-0.9-0.4-1.5-0.4c0-0.3,0-0.5,0-0.8c0-2.3-0.8-3.7-2.5-4.2c-0.3,0-0.5,0-0.9,0
						c0-0.3,0-0.6-0.1-0.8c-0.5-1.7-1.9-2.5-4.1-2.5c-0.3,0-0.5,0-0.8,0c-0.3-0.6-0.6-1-1.1-1.3c-0.4-0.3-0.8-0.5-1.3-0.7
						c-2.3-0.9-4.6-1.9-6.9-3.1c-0.3,0-0.5-0.1-0.7-0.2c-2.9-2.1-5.7-4.2-8.5-6.5c0-0.3,0-0.5-0.1-0.8c-0.5-1.4-1.6-2.2-3.2-2.6
						c-0.3,0-0.6,0-0.9,0s-0.5,0-0.8,0c0-0.3-0.1-0.5-0.2-0.7c-0.8-1.4-2.2-2.2-4-2.7c-0.3,0-0.5-0.1-0.5-0.2
						c-1-1.3-2.2-2.4-3.6-3.1c0-0.3-0.1-0.5-0.2-0.7c-1.2-1.5-2.8-2.7-4.9-3.5c0-0.3-0.1-0.5-0.2-0.7c-0.8-1.1-1.9-2-3.2-2.7
						c0-0.3,0-0.5-0.1-0.8c-0.6-1.3-1.7-2.2-3.2-2.6c0.4-1.2,0.1-1.7-0.8-1.5c-1.2,0.2-1.9-0.1-2.1-0.8c-0.4-1.1-0.9-2.1-1.6-3.1
						c-1.5-1.9-3.3-3.5-5.5-4.6c0-0.3,0-0.5-0.1-0.8c-0.7-1.7-1.7-3.2-3.2-4.2c-0.3-1.1-0.6-2.1-1.1-2.9c-0.7-1.1-1.2-2.2-1.6-3.2
						c-0.9-2.4-2.2-4.3-3.9-5.6c0-0.3,0-0.6,0-0.9c0-0.5-0.1-1-0.4-1.3c-1-1.2-1.4-3-1.2-5.4c0-0.3,0-0.6,0-0.9
						c-0.1-2.4-0.7-4.3-1.7-5.8c0-0.8,0.1-1.7,0.2-2.5c0.2-1.5-0.1-2.3-1-2.2c-1.5,0.1-2-0.5-1.5-1.9c0.1-0.3,0.1-0.6,0.1-0.8
						c-0.4-1.5-1.1-3-2-4.3c0.9,0.1,1.2-0.5,0.9-1.7c-0.1-0.3-0.1-0.5-0.1-0.8c-0.3-1.1-0.4-2.2-0.4-3.4c0-0.3,0-0.5,0-0.8
						c-0.1-1.3-0.5-2.4-1.2-3.3c0-0.3,0-0.6,0-0.9c0-0.8,0-1.7,0-2.5c0-0.3,0.1-0.6,0.2-0.8c1.2-2,0.9-3.7-1.1-5.1
						c0-0.3,0-0.5,0-0.8c-0.1-2.1-0.9-3.5-2.5-4.2c0-0.3,0-0.6,0-0.8c-0.3-1.9-0.9-3.6-1.6-5c0-0.3-0.1-0.5-0.2-0.7
						c-1.6-2.3-2.1-5.7-1.5-10.2c-0.3,0-0.4-0.1-0.4-0.2c-0.9-3-2.4-5.2-4.6-6.5c0-0.3-0.1-0.5-0.2-0.7c-1.1-1.3-2.5-2.5-4-3.5
						c-0.3,0-0.5,0-0.8,0c0-0.3-0.1-0.5-0.2-0.6c-2-1.9-3.9-3.9-5.7-6.1c-0.1-1.5-0.9-2.5-2.4-2.8c-0.3-0.1-0.5-0.3-0.5-0.5
						c0.1-1.2-0.3-1.9-1.2-2.2c-3.6-0.9-6.4-2.7-8.5-5.4C329.8,81.8,329.7,81.7,329.6,81.6 M324.6,120.2c0.9,0.3,1.8,0.8,2.6,1.3
						c0.9,1.9,2.1,3.5,3.6,4.8c0.1,0.1,0.3,0.2,0.6,0.2c0.5,2.8,1.5,5.1,3.1,6.9c0.2,0.1,0.2,0.4,0.2,0.7c-0.3,0-0.5,0-0.8,0.1
						c-0.4,0.2-0.7,0.4-1,0.7c-0.7,2.9-0.2,4.3,1.6,4.2c0.1,0,0.2-0.2,0.4-0.8c0.1-0.3,0.3-0.6,0.5-0.9c0,1.9,0,3.9,0,5.9
						c0,0.3,0,0.6,0,0.9c-0.3,0-0.5,0-0.8,0c0,1.1,0,2.2,0,3.3c0,0.3,0,0.6,0,0.9c0,0.3,0,0.5,0,0.8c-0.3,0-0.5,0-0.5,0.1
						c-0.6,4.1-1.8,7.4-3.8,9.9c0,0.3,0,0.6,0,0.9c-0.3,0-0.4,0-0.4,0.1c-0.2,2.3-1.1,3.7-2.9,4.1c0,0.3,0,0.6,0,0.9
						c-0.3,0-0.4,0-0.4,0.1c-0.1,1.5-0.8,2.3-2.1,2.4c0,0.3,0,0.5,0,0.8s0,0.5,0,0.8s-0.1,0.5-0.2,0.6c-0.4,0.2-0.9,0.3-1.5,0.3
						c0,0.3,0,0.6,0,0.8c-0.3,0-0.5,0.1-0.6,0.2c-1.5,1.6-3,3.2-4.4,4.8c0,0.3,0,0.5,0,0.8c-0.3,0-0.5,0.1-0.7,0.2
						c-1.2,1-2.6,1.8-4.4,2.4c0,0.3,0,0.5,0,0.8c-0.3,0-0.5,0-0.8,0s-0.5,0-0.8,0c-1.7,0.3-3.4,0.5-5,0.8c0,0.3,0,0.6,0,0.9
						c-0.3,0-0.5,0-0.9,0c-0.3,0-0.6,0-0.9,0c-1.7,0.5-3.3,0.9-5,1.1c-3.3,0.4-6.7,0.6-10,0.6c-0.3,0-0.5,0-0.9,0
						c-4.7,0-9.5,0-14.2,0c0-0.3,0-0.4-0.1-0.4c-2.3-0.9-5.1-1.3-8.2-1.2c-0.6,0-1.1-0.1-1.6-0.2c-0.3-0.1-0.7-0.3-1-0.4
						c-1.1-0.4-2.2-0.7-3.3-0.8c-3.5-0.3-6.5-0.9-9.2-1.9c0-0.3-0.1-0.5-0.2-0.5c-1.8-0.8-3.7-1.5-5.7-2c0-0.3,0-0.4-0.1-0.4
						c-3.6-0.3-6.7-1-9.1-2.1c-2.1-0.7-4.3-1.2-6.7-1.6c-2.2-0.4-4.1-0.9-5.9-1.7c-0.3,0-0.5,0-0.8,0c0-0.3-0.1-0.4-0.2-0.4
						c-5.4-1.8-10.4-3.9-14.9-6.2c-1.7-1.7-3.6-3.2-5.7-4.5c-2.2-1.4-4.3-2.8-6.4-4.3c-0.3-0.3-0.6-0.5-0.9-0.8
						c-1.6-1.8-3.7-3.1-6.3-3.8c0-0.3-0.1-0.5-0.2-0.6c-0.1-0.2-0.3-0.2-0.6-0.2c-1.1-1.4-2.3-2.6-3.7-3.8c-2.2-1.8-4.3-3.6-6.2-5.6
						c-1.1-1.1-2.6-1.9-4.3-2.4c0-0.3-0.1-0.6-0.1-0.8c-0.2-0.3-0.4-0.6-0.7-0.9c-0.2-0.9-0.7-1.6-1.5-2c-1.8-0.9-3.2-2.2-4.2-3.9
						c-0.5-0.9-1.4-1.4-2.7-1.6c0-0.3-0.1-0.5-0.2-0.6c-1.8-1.9-3.1-4.2-4-6.9c0-0.3,0-0.6,0-0.8c0-6.1,0-12.3,0-18.5
						c1-0.7,1.4-2.1,1.3-4.2c0-0.3,0.1-0.4,0.4-0.5c0.9-0.2,1.1-0.8,0.8-2c0.6-0.8,1.1-1.7,1.4-2.6c1.4-3.2,3.4-5.7,6.1-7.5
						c3.8-2.6,7.9-4.9,12.4-7c0.1,0,0.2-0.2,0.2-0.5c2.2-0.9,5-1.4,8.4-1.3c0.3,0,0.5,0,0.8,0c2.4,0.1,4.1-0.3,5.1-1.3
						c8.3-0.5,15.6,0.1,21.8,1.6c0.3,0.1,0.6,0.1,0.9,0.1c0.9,0.7,2,1.2,3.4,1.3c1.9,0.2,3.3,0.9,4.1,2c3-0.2,5.5,0.2,7.4,1.2
						c1.8,0.9,3.8,1.5,6.1,1.8c1.7,0.2,3.3,0.5,4.9,0.7c0.3,0,0.6,0.2,0.9,0.5c1,0.9,2.6,1.3,5.1,1.2c0.3,0,0.6,0.1,0.9,0.2
						c1.1,0.4,2.2,0.8,3.2,1.1c1.9,0.3,3.6,0.7,5.1,1.2c0.8,0.3,1.6,0.4,2.4,0.4c1.5,1,3.5,1.6,5.9,1.7c2.1,0.1,3.9,0.5,5.2,1.3
						c0.4,0.2,0.9,0.4,1.5,0.4c1.8-0.4,3-0.2,3.6,0.6c0.1,0.1,0.3,0.2,0.6,0.2c0.7,1,2.1,1.5,4.1,1.7c0.1,0,0.2,0.2,0.5,0.4
						s0.7,0.4,1.2,0.4c1.6,0.1,3,0.4,4.2,0.8c2.5,1.4,5.2,2.7,8.2,3.8c0.7,0.3,1.3,0.6,2,0.9c2.1,1.1,4.3,2,6.6,2.9
						c0.9,0.6,1.8,1,2.6,1.3c1.3,0.5,2.4,1.2,3.2,2.1c0.4,2.4,1.6,3.9,3.5,4.5c1,0.3,1.8,0.8,2.4,1.3c1.4,1.7,2.6,3.5,3.8,5.7
						C322.4,118.9,323.3,119.7,324.6,120.2 M417.5,251.6c0.1,0.1,0.2,0.3,0.2,0.6c-0.3,0-0.4,0-0.5,0.1c-0.4,1.7-1.4,2.8-2.9,3.2
						c-0.3,0-0.5,0.1-0.7,0.2c-2.1,1.2-4.1,2.5-6,4c0,0.3,0,0.5,0,0.8s-0.1,0.5-0.2,0.6s-0.4,0.2-0.6,0.2c-0.3,0-0.5,0.1-0.6,0.2
						c-0.7,0.7-1.6,1.1-2.8,1.4c0,1.9,0.1,3.9,0.5,5.8c0,0,0.1,0,0.4,0c-0.1,2.3,0.6,4,2.1,4.9c0.2,0.1,0.4,0.5,0.4,1
						c0,2.8-0.8,4.7-2.5,5.9c-0.3,0-0.5,0-0.9,0c0,0.3,0,0.5,0,0.9c-0.3,0-0.5,0.1-0.8,0.1c-1.8,0.9-3.5,1.9-5.1,3.2
						c0,0.3,0,0.5,0,0.8s-0.1,0.5-0.2,0.6s-0.4,0.2-0.7,0.2c-1.5,1-3.1,1.9-4.9,2.6c-0.6,0.2-1,0.6-1.2,1c-0.8,1.3-1.5,2.6-2.1,3.9
						c0,0.3,0,0.6,0,0.9c-0.3,0-0.5,0-0.8,0.1c-0.3,0.2-0.6,0.4-1,0.7c0,1.9,0.4,3.4,1.3,4.5c0.3,0.3,0.5,0.7,0.8,1.1
						c0,0.1,0.2,0.2,0.5,0.2c0,0.3,0,0.5,0.1,0.8c0.6,3.7,0,6.2-1.8,7.6c0,0.3,0,0.6,0,0.8c-0.3,0-0.5,0-0.9,0c0,0.3,0,0.6,0,0.9
						c-0.9,0.2-1.4,0.7-1.3,1.6c0.1,2.4-0.3,4.1-1.2,5.1c0,0.3,0,0.5,0,0.8s-0.1,0.5-0.1,0.5c-2.8,1-5.8,1.7-9.1,2.1
						c0,0.3,0,0.5,0,0.8s-0.1,0.5-0.2,0.6c-0.2,0.1-0.4,0.2-0.6,0.2s-0.6,0-0.9,0c-0.3,2.8,0.5,4.7,2.1,5.6c0.3,0.2,0.5,0.5,0.7,0.9
						c0.1,0.1,0.2,0.1,0.5,0.1c0.7,1.8,1.1,4,1.2,6.7h0.4c0,0.3-0.1,0.6-0.2,0.8c-0.2,0.3-0.4,0.6-0.7,1c0,0.3,0,0.5,0,0.8
						c-0.3,0-0.5,0-0.8,0c0,0.3,0,0.5,0,0.8s0,0.6,0,0.9c-0.8,0.8-1.7,1.7-2.5,2.5c-0.3,0.3-0.6,0.5-0.9,0.6
						c-1.6,0.7-3.2,1.5-4.6,2.4c-2.7,1.6-5.6,3.1-8.7,4.5c0,0.3,0,0.6,0,0.9s0,0.5,0,0.9c0,0.3,0,0.5,0,0.8h-0.4
						c0.1,1.5-0.3,2.4-1.2,2.5c0.4,2.9,0.8,5.8,1.2,8.5c0.3,1.9,0.5,3.8,0.8,5.8c0.1,0.3,0.1,0.6,0.1,0.9s-0.1,0.6-0.2,0.9
						c-0.2,0.5-0.2,1-0.2,1.6c-0.3,0-0.5,0.1-0.7,0.2c-3.3,2.6-6.7,5-10.2,7.3c-0.3,0-0.5,0-0.8,0c0.3,4.7,0.8,9.4,1.2,14.2
						c0,0,0.1,0,0.4,0c0,0.3,0,0.5,0.1,0.9c0.3,2.1,0,3.5-1,4.2c0,0.3,0,0.5,0,0.8s-0.1,0.5-0.2,0.6c-0.7,0.7-1.4,1.3-2.3,1.9
						c-0.3,0-0.5,0.1-0.6,0.2c-1.1,0.8-2.3,1.6-3.5,2.3c0,0.3,0,0.6,0,0.9s0,0.5,0,0.8c-0.3,0-0.5,0.1-0.6,0.2c-1,1.2-2,2.5-2.8,3.9
						c0,0.3,0,0.6,0,0.9h-0.4c0.1,1.5-0.6,2-2.1,1.6c0,0.3,0,0.6,0,0.9h-0.4c0.1,1.2-0.4,1.8-1.2,1.7c0,3.9,0,7.8,0,11.7
						c0,0.3,0,0.6,0,0.9c1.2,2.9,1.2,5.7,0.1,8.5c-0.1,0.2-0.1,0.5-0.1,0.8s-0.1,0.5-0.2,0.5c-0.4,0.2-0.9,0.3-1.5,0.3
						c0,0.3,0,0.6,0,0.9c-0.3,0-0.5,0-0.8,0.1c-3.7,2.1-7.1,4.6-10.1,7.4c0,0.3,0,0.5,0,0.8s0,0.6,0,0.9c-0.3,0.3-0.4,0.6-0.5,0.9
						c-0.2,2.8-0.2,5.5,0.1,8.3c0.4,3.7-0.3,6.3-2.1,7.6c0,0.3,0,0.6,0,0.9c-0.3,0-0.4,0-0.5,0.1c-1.5,2.9-3.8,3.6-7,2.4
						c0-0.3-0.1-0.5-0.2-0.6c-1.8-1.8-3.7-3.6-5.6-5.2c0-0.3-0.1-0.5-0.2-0.7c-2.1-2.6-4.3-5.2-6.5-7.7c0-0.3-0.1-0.5-0.2-0.6
						c-2.1-2.1-4.3-4.1-6.5-6.1c0-0.3-0.1-0.5-0.2-0.6s-0.4-0.2-0.6-0.2c0-0.3,0-0.6-0.1-0.8c-0.9-2.4-2.3-4.4-4.1-5.9
						c-2-4.2-3.9-8.4-5.8-12.6c-0.6-1.4-0.9-3-0.9-5c-0.5-2-0.6-4.2-0.5-6.7c0.2-2.7-0.2-4.6-1.2-5.9c0-0.3,0-0.5,0-0.8
						s-0.1-0.6-0.2-0.8c-1.4-2.2-1.9-5.3-1.5-9.3c0-0.3,0-0.6,0-0.9c2.2-2.3,4-5,5.4-8.2c0.6-1.2,1.1-2.7,1.5-4.2s0.8-2.9,1.2-4.4
						c0.2-0.8,0.3-1.6,0.3-2.4c2.3-1.9,3.4-5,3.4-9.2c0-0.3,0-0.5,0-0.9c1.6-1.2,2.3-3.5,2.1-6.7c0-0.3,0.1-0.4,0.4-0.4
						c0.9-0.2,1.2-0.9,0.8-2.1c0-0.3,0-0.5,0-0.8c1.1-1.1,1.9-2.5,2.4-4.2c0.1-0.3,0.1-0.5,0.1-0.8c1.4-2.2,2.7-4.5,3.8-6.9
						c0.3-0.7,0.6-1.4,0.9-2.1s0.5-1.3,0.8-2s0.6-1.5,0.9-2.2s0.5-1.5,0.8-2.6c0.1-0.3,0.1-0.7,0.2-1c0.2-0.5,0.2-1,0.2-1.6
						c0.9-1,1.4-2.7,1.2-5c0-0.3,0.1-0.6,0.1-0.9c0.2-0.5,0.2-1,0.2-1.5c0-0.3,0-0.6,0-0.9c0-0.6,0-1.1,0-1.7
						c1.1-0.6,1.6-1.7,1.7-3.4c0-0.3,0-0.5,0-0.9c1.1-1.1,1.7-2.8,1.9-5c0-1,0.4-1.7,1.1-2.2c0.3-0.2,0.4-0.6,0.4-1.1
						c0-0.3,0-0.5,0-0.9c1.5-0.4,2.2-1.8,2.1-4.2c0-0.3,0.1-0.6,0.2-0.9c0.1-0.2,0.2-0.5,0.2-0.8c1.8-0.8,2.7-2.5,2.8-5.1
						c0-0.9,0.4-1.7,1-2.2c0.3-0.2,0.4-0.6,0.4-1.2c0-0.3,0-0.5,0-0.8c1.2-1.6,2.2-3.5,3.1-5.7c0.6-1.7,1.3-3.4,2.2-5.1
						c0.6-1.2,1.1-2.7,1.4-4.3c0.1-0.6,0.1-1.1,0.1-1.6c1.4-1.4,2.4-3.1,3.2-5.1c0.1-0.2,0.2-0.5,0.2-0.8s0-0.5,0-0.8s0-0.6,0-0.8
						c1.1-1.1,1.8-2.8,2-5c0-0.3,0.1-0.6,0.2-1c0.4-1.1,0.8-2.2,1-3.3c0-0.3,0-0.5,0-0.8c1-0.7,1.4-2.1,1.3-4.2c0-0.2,0-0.5,0.1-0.9
						c0.2-0.5,0.2-1.1,0.2-1.6c0-0.3,0-0.6,0-0.9c1.2-0.7,1.8-2.1,1.7-4.2c0-0.3-0.1-0.6-0.1-0.8c1.9-2.3,3.3-5.1,4.1-8.4
						c0.1-0.3,0.1-0.5,0.1-0.8c2.4-2.1,4.1-4.9,5.2-8.3c0.5-1.6,1.2-3.1,1.9-4.4c0.8-1.5,1.5-3.2,2-4.9c0-0.3,0-0.5,0-0.8
						c1-0.7,1.4-2.1,1.3-4.2c0-0.3,0-0.6,0.2-0.9c0.1-0.2,0.2-0.5,0.2-0.8c1.1-0.6,1.6-1.7,1.6-3.4c0-0.3,0-0.5,0-0.8
						c1-1.5,1.3-3.8,0.9-6.7c0-0.3,0-0.5,0-0.8s0-0.6,0-0.9c1-0.4,1.4-1.6,1.3-3.4c0-1.4,0.9-1.8,2.8-1.4c0.3,0.1,0.6,0.3,0.8,0.6
						c0.1,0.2,0.1,0.5,0.1,0.8c1.6,2.9,4.1,5,7.4,6.4c0.4,0.2,0.9,0.5,1.3,0.9s0.9,0.8,1.5,1.1c1.1,1.4,2.3,2.7,3.5,4
						c0.1,0.1,0.3,0.2,0.6,0.2c0.5,1.7,1.4,3.1,2.7,4c0.2,0.1,0.4,0.2,0.6,0.2c0.8,2,2,3.6,3.5,4.8c0.2,0.2,0.4,0.2,0.7,0.2
						c1.2,1.9,2.6,3.5,4.4,4.8c0.2,0.1,0.4,0.2,0.7,0.2c0.8,1.1,1.7,2.2,2.7,3.2c0.1,0.1,0.4,0.2,0.7,0.2c0.5,2.6,1.8,4.4,3.8,5.6
						c0.2,0.1,0.5,0.4,0.8,0.7c3.1,3.3,6.3,6.5,9.6,9.6c0,1.4,0.1,2.8,0.1,4.2c0,0.3-0.1,0.6-0.1,0.9c1.9,1.2,3.5,0.9,4.9-1
						c0.1-0.2,0.2-0.4,0.2-0.7c2.6-0.7,5.1-1.5,7.6-2.4c0.2-0.1,0.5-0.1,0.8-0.1C415,249.6,416.3,250.6,417.5,251.6 M172.8,168.4
						h0.4c1,2.4,2.9,3.9,5.8,4.6c1.9,0.4,3.5,1.3,4.7,2.6c0.3,0.3,0.7,0.5,1.2,0.7c0.3,0.1,0.6,0.3,0.9,0.6c1.7,1.6,3.7,2.8,6.1,3.6
						c1.4,0.5,2.7,1,3.9,1.6c0.9,0.5,1.8,1,2.6,1.5c0.5,0,1.1,0,1.6,0c0.3,0,0.6,0,0.9,0c1.8,2.6,4.6,4.3,8.4,4.9
						c0.3,0.1,0.5,0.1,0.8,0.1c1.1,1.1,2.8,1.8,5,2.1c0.3,0,0.6,0.2,0.9,0.4c1.8,1.5,4.3,2.5,7.5,2.9c0.6,0.1,1.1,0.3,1.7,0.6
						c5.8,3.4,11.9,6.5,18.4,9.2c1.1,0,2.2,0.1,3.2,0.4c0.1,0,0.1,0.2,0.1,0.4c1.9,1.2,4.2,2,6.8,2.5c0.3,0,0.5,0,0.8,0
						c4.8,0,9.5,0,14.2,0c0.3,0,0.5,0,0.9,0c2.6-0.4,4.6-0.2,6,0.7c0.2,0.1,0.4,0.2,0.8,0.2c1.3,1,3.2,1.3,5.9,1.1
						c1.1-0.1,2.2-0.2,3.3-0.2c1.7-0.6,3.4-1.1,5.1-1.6c0.3-0.1,0.5-0.2,0.8-0.2c2.1-0.1,4-0.5,5.8-1.2c0.1,0,0.1-0.2,0.1-0.4
						c2.2,0,4-0.5,5.1-1.5c0.2-0.1,0.4-0.2,0.7-0.2c2.6-0.2,4.9-0.6,6.8-1.4c2.3-0.9,4.2-2.1,5.8-3.6c1.8-0.8,3.7-1.4,5.8-1.9
						l0.5-0.2c0.1,1.8,0,3.6-0.4,5.4c0,0.3-0.1,0.5-0.2,0.8c-0.2,0.3-0.4,0.6-0.6,0.9c-0.3,0-0.6,0-0.9,0c0,0.3,0,0.6,0,0.8
						c0,0.3,0,0.6,0,0.9c-0.3,0-0.6,0-0.9,0c0,2.2,0,4.5,0,6.7c0,0.3,0,0.6,0,0.9c-0.6,0.6-1,1.4-1.2,2.4c-0.3,1.5-0.7,2.9-1.1,4.4
						c-0.6,2.2-1.5,4.2-2.7,5.8c0,0.3,0,0.6,0,0.8c0,0.3,0,0.6,0,0.9c-0.5,0.8-1.1,1.6-1.8,2.4c-0.2,0.3-0.4,0.6-0.5,0.9
						c-1,4.1-2.8,7.5-5.3,10c0,0.8,0,1.7,0,2.5c0,0.3,0,0.6,0,0.9c-0.3,0-0.5,0-0.9,0c0,0.3,0,0.5,0,0.8c-0.3,0-0.4,0.1-0.5,0.2
						c-0.4,0.8-1.1,1.3-2,1.5c0,1.1,0,2.2,0,3.3c0,0.3,0,0.6,0,0.9c-0.3,0-0.4,0-0.5,0.1c-0.3,1.6-1,2.7-2,3.3c0,0.8,0,1.7,0,2.5
						c0,0.3,0,0.5,0,0.9c-0.3,0-0.6,0-0.9,0c0,1.1,0,2.2,0,3.3c0,0.3,0,0.5,0,0.8c-2,2.5-3.4,5.5-4.2,9.2c-0.8,3.6-2.2,6.7-4.1,9.2
						c0,0.3,0,0.6,0,0.9s0,0.5,0,0.9c0,0.3-0.1,0.5-0.2,0.6c-0.4,0.4-0.9,0.8-1.4,1c-0.3,0-0.4,0-0.5,0.1c-0.4,2-1.4,3.4-2.9,4.1
						c0,0.3,0,0.5,0,0.9c0,0.3,0,0.5,0,0.8c-0.3,0-0.4,0-0.5,0c-0.3,3.3-1.2,5.8-2.9,7.5c0,0.3,0,0.6,0,0.9s0,0.5-0.1,0.8
						c-0.4,1.6-0.9,3-1.6,4.2c0,0.3,0,0.6,0,0.9s0,0.6,0,0.9s0,0.5,0,0.9c-0.3,0-0.4,0-0.4,0c-0.8,4.4-2,8.3-3.8,11.6
						c0,0.3,0,0.6,0,0.9h-0.4c0.4,3.7-0.3,6.2-2.1,7.5c0,1.1,0,2.2,0,3.4c0,0.3,0,0.5,0,0.9c-0.3,0-0.5,0.1-0.8,0.1
						c-0.3,0.2-0.6,0.4-0.9,0.6c0,0.3,0,0.6,0,0.9s0,0.5,0,0.9h-0.5c0.1,2.3-0.3,4-1.2,5c0,0.3,0,0.6,0,0.9c0.4,1.5,0.2,2.5-0.6,2.9
						c-0.8,0.5-1.4,1.4-1.6,2.9c-0.3,1.9-1,3.6-1.9,5.1c0,0.3,0,0.6,0,0.9s-0.1,0.5-0.2,0.6s-0.3,0.2-0.6,0.2c0,0.3,0,0.6,0,0.9
						c-0.3,0-0.5,0.1-0.5,0.1c-1.1,2.7-2.3,5.2-3.7,7.4c0,0.3,0,0.6,0,0.9c-0.7,0.7-1,1.8-0.9,3.4c0,0.5-0.1,0.9-0.3,1.1
						c-0.7,0.5-1.1,1.2-1.2,2.2c-0.1,0.5-0.2,1-0.5,1.2c-0.3,0.3-0.4,0.4-0.4,0.4c-0.2,2.3-1,3.7-2.5,4.2c0,0.3,0,0.5,0,0.8
						s0,0.5,0,0.8c-0.3,0-0.5,0-0.5,0c-0.2,2.6-1.2,4.2-2.9,5c0,0.3,0,0.5,0,0.9c0,0.3,0,0.5,0.1,0.8c0.6,2.6,0,4-1.8,4.2
						c0,0.3,0,0.6,0,0.9c-0.3,0-0.4,0-0.4,0c-0.3,2.8-1.2,4.7-2.9,5.8c0,0.9,0,1.7,0,2.5c0,0.3,0,0.5,0,0.8s0,0.6,0,0.9
						c-0.3,0-0.5,0.1-0.8,0.2c-4.4,2.5-8.9,4.9-13.5,7.4c-0.3,0-0.5,0-0.8,0c-2,0-4,0-5.9,0c0,0.3,0,0.5,0,0.8c-0.3,0-0.5,0-0.8,0
						c-3.6-0.2-6.7,0.1-9.2,0.9c0-0.3,0-0.4-0.1-0.4c-2.5-0.3-4.9-0.4-7.4-0.4c0,0.3,0,0.5,0,0.8c-0.3,0-0.6,0-0.8,0
						c-0.8,0-1.7,0-2.6,0c-0.3,0-0.5,0.1-0.6,0.2c-1,0.9-2.5,1.4-4.4,1.4c0,0.3,0,0.6,0,0.9c-0.3,0-0.6,0-0.9,0c-0.3,0-0.5,0-0.8,0
						v-0.4c-7.2-0.3-14.5-0.4-21.8-0.4c-0.3,0-0.6,0-0.9,0c-0.9-0.8-2.1-1.2-3.4-1.2c-0.3,0-0.5,0-0.8-0.1c-1.6-0.3-3.6-0.5-5.9-0.4
						c-0.3,0-0.5,0-0.8,0c-1.1,0-2.2,0-3.4,0c0-0.3-0.1-0.4-0.1-0.5c-2.5-1-5-2-7.4-2.9c-0.5-0.5-1.1-1-1.8-1.3
						c-0.5-0.2-0.9-0.5-1.4-0.7c-3.5-1.4-6.9-3-10.1-4.8c-1.4-0.8-3.1-1.3-5.1-1.6c0-0.3-0.1-0.5-0.2-0.5c-2.3-1.4-4.8-2.6-7.4-3.6
						c0-0.3-0.1-0.5-0.2-0.6c-5.4-3.9-11.2-7.4-17.4-10.4c0-0.3-0.1-0.5-0.2-0.8c-0.8-1.6-2.2-2.7-4.1-3.4c-0.8-1.4-1.7-2.7-2.6-4.1
						c-0.2-0.3-0.4-0.6-0.8-0.9c-4.1-3.7-8.3-7.3-12.5-10.9c0-0.3-0.1-0.5-0.2-0.8c-1.1-1.9-2.4-3.6-4.1-5.1c0-0.3-0.1-0.4-0.2-0.5
						c-0.4-0.2-0.6-0.4-0.6-0.4c-0.2-1.7-0.7-2.8-1.7-3.3c-0.3-1.1-0.7-2.1-1.3-3c-0.5-0.8-0.8-1.7-0.8-2.8c0-2-0.7-3.1-2.2-3.3
						c0-0.3,0-0.6,0-0.9c0-0.6,0-1.1,0-1.6c0-0.3-0.1-0.6-0.2-0.8c-0.6-1-1.1-2.1-1.5-3.5c1.1-1.1,1.8-2.8,2.1-5
						c0-0.3,0.2-0.6,0.4-0.9c1.4-1.7,2.2-3.9,2.4-6.7c0.1-2.2-0.1-4.4-0.6-6.5c0-0.1-0.3-0.2-0.9-0.2c0-0.3-0.1-0.4-0.2-0.5
						c-1.6-0.9-3.5-1-5.7-0.3c0,0.3,0,0.5,0,0.8s-0.1,0.5-0.2,0.6c-0.4,0.4-0.8,0.8-1.4,1c-0.5,0.3-0.9,0.7-1.2,1.1
						c-1.4,2.4-2.7,2.5-3.8,0.5c0-0.3,0-0.5,0-0.8c0-3.1,0-6.1,0-9.2c0.8-0.6,1.3-1.4,1.5-2.5c0.1-0.3,0.1-0.6,0.1-0.9
						c3.6-4.5,6.5-9.7,8.8-15.8c0.4-1.1,1-2.1,1.8-3c0.3-0.3,0.4-0.8,0.4-1.4c0-0.8,0-1.7,0-2.5c0-0.3,0-0.5,0-0.8
						c2.6-0.2,3.9-1.9,3.8-5.1c0-0.3,0-0.6,0.2-0.9c1.1-2.6,1.9-5.4,2.4-8.4c0.2-1.1,0.3-2.2,0.3-3.3c0-0.3,0-0.5,0-0.8
						c1.5-0.4,2.4-1.5,2.8-3.3c0.1-0.6,0.2-1.2,0.2-1.8c0.1-2.3,0.5-4.3,1.2-5.9c0.5-1.1,1-2.2,1.6-3.3c1.2-2.4,2.1-5.2,2.8-8.3
						c0.1-0.3,0.2-0.6,0.5-0.9c0.3-0.3,0.6-0.6,0.8-0.9c1-2.1,2.1-4.1,3.2-6c0.1-0.2,0.2-0.4,0.2-0.7c0.6-1.1,1.1-2.3,1.6-3.4
						c0.6-1.4,1.2-2.7,1.8-4.1c0-0.3,0-0.6,0-0.9c1-1.6,1.8-3.2,2.4-5c0.1-0.3,0.1-0.5,0.1-0.8c0.9-0.2,1.2-1.1,0.9-2.6
						c-0.1-0.3-0.1-0.5-0.1-0.8c0.9-1.4,1.4-3.1,1.7-5.1c0-0.3,0-0.5,0-0.8s0-0.6,0-0.9c1.5-2.4,2.8-5,4-7.6
						c0.1-0.2,0.2-0.5,0.2-0.8c1.4-1.7,2.7-3.4,4-5.2c0.1-0.2,0.2-0.4,0.2-0.7c0.7-1.2,1.3-2.6,1.8-4.1c0.5-1.7,1-3.4,1.6-5.1
						c1.2-2.2,2.2-4.5,3.2-6.8c0.1-0.3,0.2-0.5,0.2-0.8c2.4-3.8,4.5-7.7,6.5-11.8c0.1-0.2,0.2-0.5,0.2-0.8c1-0.7,1.4-2.1,1.3-4.2
						c0-0.2,0-0.5,0-0.8c0.3-3,1-5.5,2.1-7.5c1.2-1.9,2.9-3.2,5.1-3.9c0.5-0.2,0.9-0.4,1.2-0.7s0.4-0.7,0.4-1.2c0-0.3,0-0.6,0-0.9
						c0-0.3,0-0.5,0-0.8s0-0.6,0-0.9c1.2-0.4,1.9-0.1,2.1,0.8c0,0.1,0.1,0.1,0.4,0.1c0.9-0.1,1.3,0.5,1,1.7
						c-0.1,0.2-0.1,0.5-0.1,0.8c0.9,3,2.8,5.1,5.7,6.3c0.7,0.3,1.1,0.9,1.4,2c0.1,0.3,0.2,0.6,0.5,0.9c1.1,1.1,2.2,2.2,3.3,3.3
						c1.3,1.8,3,3.2,5.1,4.1c0.2,0.1,0.5,0.2,0.8,0.2c0,0.3,0.1,0.5,0.2,0.6c0.2,0.1,0.4,0.2,0.7,0.2c1.9,1.7,3.9,3.3,6,4.8
						c0.2,0.1,0.4,0.2,0.7,0.2C171.7,166.2,172.7,166.8,172.8,168.4 M201.6,270.6c-0.3,0-0.6,0-0.8,0c-0.2,3.8,0.3,6.9,1.3,9.4
						c0.2,0.5,0.4,0.9,0.7,1.3c0.3,0.7,0.8,1.3,1.3,1.9c0.4,2.1,1.6,3.5,3.4,4.1c0.2,0.1,0.5,0.1,0.8,0.1c3.6,0.6,5.7-0.5,6.2-3.3
						c0,0,0.1,0,0.4,0c1.5-0.4,2.2-1.8,2.1-4.2c0-0.3,0.1-0.6,0.2-0.9c0.1-0.2,0.2-0.5,0.2-0.8c0.3-0.3,0.4-0.6,0.4-0.9
						c0.2-1.9,0.4-3.9,0.6-5.8c0.3-2.9-0.1-5.2-1.1-6.8c0-0.3-0.1-0.4-0.2-0.5c-0.5-0.2-0.8-0.5-1.1-0.8s-0.6-0.5-0.9-0.8
						c-0.3-0.3-0.5-0.6-0.8-0.9s-0.5-0.6-0.8-0.8c-0.3-0.3-0.6-0.6-0.9-0.9c-0.3-0.3-0.5-0.4-0.7-0.5c-2.2-0.9-3.7-0.8-4.6,0.2
						c-0.9,1.1-2.1,1.9-3.6,2.4c0,0.3,0,0.6,0,0.8c-0.9-0.1-1.3,0.5-1.2,1.7c0,0.3,0,0.6,0,0.8C203,267.9,202.6,269.6,201.6,270.6
						 M176.5,243.8c0,0.3,0,0.5,0,0.8s0,0.6,0,0.8c-0.3,0-0.4,0.1-0.6,0.2c-1.2,1.9-2.4,3.8-3.6,5.7c0,0.3,0,0.6,0,0.8
						c0,0.3,0,0.6,0,0.9c0,1.4,0,2.8,0,4.2c0,0.3,0,0.5,0,0.8c-0.4,6,0.9,10.3,3.8,13c0.3,0.3,0.6,0.6,1,0.9
						c0.9,0.6,1.8,0.2,2.8-1.2c3.1,0,5.2-0.9,6.5-2.6c0.1-0.2,0.2-0.4,0.2-0.7c1.1-1.2,1.9-2.6,2.4-4.2c0.1-0.2,0.1-0.5,0.1-0.8
						s0-0.6,0-0.9c1-1,1.4-2.6,1.3-5c0-0.3,0.1-0.6,0.2-1c0.1-0.2,0.1-0.4,0.1-0.8c0.9-0.2,1.4-1,1.4-2.5c0-2.6-0.4-4.6-1.4-5.8
						c0-0.3,0-0.6,0-0.9c0-0.3-0.1-0.5-0.2-0.7c-0.9-1.3-2.3-2.1-4-2.6c0-0.3,0-0.4-0.1-0.4c-2.2-0.3-4.4-0.4-6.6-0.4
						c0,0.3,0,0.6,0,0.9c-0.3,0-0.5,0.1-0.8,0.1C178.2,242.7,177.4,243.2,176.5,243.8 M153.1,283.1c0,0.3,0,0.5,0,0.9
						c-0.3,0-0.5,0.1-0.7,0.2c-0.7,0.4-1.6,0.6-2.7,0.6c0,0.3,0,0.5,0,0.8c-0.3,0-0.5,0-0.8,0c0,0.3,0,0.6,0,0.9
						c-0.3,0-0.5,0.1-0.8,0.1c-1.2,0.5-2.3,1-3.5,1.6c-0.3,0-0.5,0-0.8,0.1c-0.3,0.2-0.6,0.4-0.9,0.6c0.5,1.4,1,2.8,1.3,4.3
						c0.2,1,0.5,2.1,0.7,3.2c0.1,0.3,0.2,0.6,0.5,0.9c0.3,1.1,0.4,2.2,0.4,3.4c0,0.3,0,0.5,0,0.8c0.4,3.7-0.3,6.3-2.1,7.6
						c0,0.3,0,0.6,0,0.9c-0.3,0-0.6,0-0.9,0c0,2.2,0,4.5,0,6.7c0,0.3,0,0.6,0,0.9c0,0.6-0.1,1.1-0.2,1.6c-0.1,0.3-0.1,0.6-0.1,0.9
						c0.1,2.9-0.3,5.2-1.3,6.7c-0.3,0-0.5,0-0.8,0c0,0.6,0,1.1,0,1.7c0,0.3,0,0.5,0,0.9c-0.3,0-0.6,0-0.9,0c0,5.3,0.1,10.6,0.4,15.9
						c0,0,0.1,0,0.4,0c0.3,1.6,0.9,3,1.9,4c0.1,0.2,0.3,0.2,0.6,0.2c1.3,3.2,3.1,5.8,5.4,7.9c0.3,0.3,0.7,0.5,1.1,0.8
						c0.8,0.5,1.2,1.5,1.1,3c2.3,0.3,3.9,1.2,4.8,2.7c0.1,0.2,0.2,0.4,0.2,0.7c2.8-0.3,4.9,0.2,6.2,1.2c0.3,0.3,0.8,0.5,1.4,0.5
						c0.3,0,0.6,0,0.8,0c1,0.9,2.6,1.3,5.1,1.2c0.3,0,0.6,0.1,0.9,0.2c0.2,0.1,0.4,0.1,0.8,0.1c1.4,0.9,3,1.3,5,1.2
						c0.3,0,0.6,0,0.9,0c1.1,0,2.2,0,3.4,0c0.3,0,0.6-0.1,0.8-0.4c3.6,0,7.2-0.1,10.9-0.4c0,0,0.1-0.1,0.1-0.5
						c1.5-1.3,3.1-2.4,5-3.2c0.3-0.1,0.5-0.1,0.8-0.1c1.3-2,2.9-3.8,4.8-5.3c0.1-0.1,0.2-0.3,0.2-0.6c1.1-0.8,2.2-1.8,3.2-2.8
						c0.1-0.1,0.2-0.3,0.2-0.6c1.9-0.9,3.6-2,5.2-3.2c0.2-0.1,0.4-0.2,0.7-0.2c1.5-2.9,3.1-5.8,4.9-8.5c0.1-0.2,0.1-0.4,0.1-0.7
						c2.4-1,3.8-2.9,4.2-5.9c0-0.3,0-0.5,0-0.8c1.1,0,1.8-0.4,2.3-1c0.1-0.2,0.2-0.4,0.2-0.7c1.1-0.8,2.2-1.7,3.2-2.7
						c0.1-0.2,0.2-0.4,0.2-0.6c1.6-0.3,2.7-1.1,3.3-2.5c0.5-1.2,1.2-2.2,2.1-3c0.3-0.2,0.4-0.6,0.4-1.2c0.3,0,0.4-0.1,0.5-0.2
						c1.3-2,1.1-3.6-0.5-4.9c0-1.4-0.1-2.7-0.3-4.1c-0.1-0.3-0.1-0.6-0.1-0.9c-0.2-3.1-2.3-4.2-6.2-3.3c0,0.3,0,0.6,0,0.9
						c-0.2,0.9-1.1,1.2-2.6,1c-0.5-0.1-0.9,0-1.2,0.3c-0.7,0.7-1.7,1.1-2.9,1.2c0,0.3,0,0.5,0,0.9c-0.3,0-0.5,0.1-0.6,0.2
						c-1,0.9-2.5,1.4-4.4,1.4c0,0.3,0,0.6,0,0.9c-0.3,0-0.5,0-0.8,0c-1.1,0-2.3,0-3.4,0v-0.4c-2.8,0-5-0.4-6.7-1.3
						c-0.3,0-0.6,0-0.9,0c0-0.3,0-0.4-0.1-0.4c-2.2-0.3-4.4-0.4-6.6-0.4c-0.3,0-0.4-0.1-0.5-0.2c-0.4-0.8-1.4-1-2.9-0.6v-0.4
						c-2.6-0.1-4.9-0.6-6.7-1.3c0-0.3,0-0.4-0.1-0.5c-2.8-1-5.6-1.9-8.2-2.9c0-0.3-0.1-0.4-0.2-0.5c-1.9-1.2-4.1-2.2-6.5-2.9
						c-0.3,0-0.6-0.1-0.8-0.1c-0.3-0.2-0.7-0.4-1-0.6c-1.1-0.6-2.2-1.2-3.3-1.8c0-0.3-0.1-0.5-0.2-0.6c-1.2-1.3-2.2-2.8-3.1-4.4
						c0-0.6-0.1-1.1-0.2-1.6c-0.1-0.3-0.1-0.6-0.1-0.9c0.1-2.7-0.3-4.6-1.2-5.9c0-0.3-0.1-0.4-0.2-0.5c-1.1-0.4-1.6-1.4-1.6-2.9
						c0.3,0,0.5-0.1,0.7-0.2s0.2-0.4,0.2-0.6c0.3-0.3,0.5-0.6,0.6-0.9c0.2-0.5,0.2-0.8,0-0.8C158,283.4,155.6,283.1,153.1,283.1
						 M156.4,330c1.8-0.2,2.5-1.6,2.2-4.2c0-0.5,0.1-1,0.3-1.6c0.9-2,1.7-2.1,2.4-0.3c0.1,0.2,0.4,0.3,0.9,0.3
						c0.6,0,1.1,0.1,1.5,0.3c0.1,0,0.2,0.2,0.2,0.5c-0.2,1.6,0.6,2.3,2.6,1.9c0.9-0.2,1.4,0.2,1.6,1.4c0,0.1,0.3,0.2,0.8,0.2
						c1.3,0.1,2.2,0.5,2.9,1.2c0.3,0.3,0.7,0.4,1.2,0.4c1.8-0.1,3.1,0.3,3.9,1.3c0.2,0.3,0.6,0.5,1,0.7c0.7,0.3,1.6,0.5,2.7,0.6
						c2.1-0.4,3.5-0.2,4.4,0.6c0.1,0.1,0.3,0.2,0.6,0.2c1.3,1.8,3.9,2.4,7.6,1.9c3.7-0.5,6.6-0.1,8.8,1.1l-0.4,0.4
						c-0.3,0.3-0.6,0.6-0.8,0.9c0,0.3-0.1,0.5-0.2,0.6c-0.4,0.4-0.9,0.8-1.5,1c0,0.3,0,0.5,0,0.8s0,0.6,0,0.9c-0.3,0-0.5,0-0.8,0.1
						c-0.6,0.2-1.2,0.4-1.8,0.7c0,0.6,0,1.1,0,1.7c0,0.3,0,0.6,0,0.8c-0.3,0-0.5,0.1-0.6,0.2c-1.4,1.7-3.7,2.5-6.9,2.3
						c0,0.3,0,0.6,0,0.9c-0.3,0-0.5,0-0.8,0c-4.6-0.2-8.8-0.7-12.6-1.6v-0.5c-3-0.1-5.5-0.5-7.5-1.2c0-0.3,0-0.4-0.1-0.4
						c-4.7-1.1-8.3-3.2-10.8-6.2c0-0.3,0-0.5,0-0.9c0-0.3-0.1-0.5-0.2-0.8C156.3,334.6,156.1,332.6,156.4,330 M107.6,265.5
						c0.8-2.6,0.1-3.5-2.2-2.8c-1.9,0.6-3.9,1.3-6,2c0,0.3,0,0.6,0,0.8c-0.6,1.4-1.5,2.4-2.7,3.1l-0.7,0.3c0.1,2.9-0.7,4.6-2.5,5.1
						c0,0.3,0,0.5,0,0.8h-0.4c0.1,1.2-0.3,1.7-1.2,1.7c0,0.6,0,1.1,0,1.7c0,0.3,0,0.5,0,0.8c-0.3,0-0.6,0-0.8,0c0,2.5,0.2,5,0.4,7.5
						c0,0,0.2,0,0.5,0c0.3,0.6,0.6,1.1,1,1.5c0.1,0.2,0.3,0.2,0.6,0.2c0,0.9,0.5,1.1,1.5,0.5c0.1-0.1,0.2-0.2,0.2-0.5
						c2.7-1,4.8-2.4,6.5-4.4c0.1-0.2,0.2-0.4,0.2-0.6c0.9-1.6,1.7-3.2,2.4-5c0.1-0.3,0.1-0.5,0.1-0.8c0.3-0.3,0.4-0.6,0.4-0.8
						c-0.1-1.8,0.3-3,1.2-3.5c0.3-0.2,0.5-0.4,0.5-0.8C106.7,269.6,107,267.3,107.6,265.5 M128.8,212.8c0-0.3-0.1-0.5-0.2-0.7
						s-0.4-0.2-0.7-0.2c0-0.3-0.1-0.5-0.2-0.6c-1.8-1.4-3.7-1.4-5.6-0.2c0,0.3,0,0.6,0,0.8c-0.8,0.9-1.7,1.7-2.5,2.5
						c-0.3,0.3-0.5,0.6-0.5,0.9c0,2.8-0.9,4.5-2.9,5c-0.3,0-0.6,0-0.8,0c0,0.3,0,0.6,0,0.8c-0.3,0-0.6,0-0.8,0
						c0,3.4,0.2,6.7,0.4,10.1h0.4c-0.3,1.2-0.1,1.8,0.8,1.7c0.3,0,0.6,0,0.9,0c0.4,0.9,1.5,1.1,3.2,0.5c0.1,0,0.2-0.2,0.2-0.5
						c2.6-1.8,4.2-4.6,4.9-8.4c0-0.3,0.1-0.5,0.1-0.8c0.3,0,0.6,0,0.8,0c1.5-0.5,2.3-1.6,2.4-3.4c0-0.3,0.1-0.5,0.1-0.8
						c0.3,0,0.4,0,0.4-0.1C129.9,216.5,129.8,214.3,128.8,212.8 M150.9,169.2c0-0.3,0.1-0.5,0.4-0.8c1-0.2,1.1-0.9,0.3-2.2
						c-0.7-1.2-1.5-2.2-2.4-3.2c-0.3-0.3-0.5-0.5-0.7-0.5c-2.7-0.9-4.6-0.6-5.6,0.9c-0.6,0.8-1.1,1.6-1.8,2.5c0,0.3,0,0.6,0,0.8
						c0,0.3-0.1,0.5-0.2,0.7c-0.1,0.1-0.3,0.2-0.6,0.2s-0.5,0-0.5,0.1c-0.6,1.8-1.5,3.2-2.9,4.1c0,0.3,0,0.6,0,0.9
						c0,0.3,0,0.5,0,0.8s0,0.6,0,0.9c-0.3,0-0.6,0-0.8,0c0,2.5,0.1,5,0.4,7.5c0,0,0.1,0.1,0.4,0.1c0.3,2.4,2.2,3.2,5.8,2.2
						c0.3-0.1,0.6-0.3,0.8-0.6c0.1-0.2,0.2-0.5,0.2-0.8c1.4-1.1,2.7-2.3,3.9-3.6c0.1-0.1,0.2-0.3,0.2-0.6c1-0.7,1.4-2.1,1.3-4.2
						c0-0.3,0.1-0.5,0.4-0.8C150.7,172.7,151.1,171.3,150.9,169.2 M218.4,96.3c0,0.3,0,0.6,0,0.8c-0.3,0-0.6,0-0.8,0
						c-3.1,0-5.6,0.5-7.6,1.7c0,0.3,0,0.6,0,0.8s-0.1,0.4-0.1,0.5c-1,0.5-2.1,0.9-3.2,1.2c-0.3,0-0.5,0.1-0.8,0.2
						c-1.6,0.6-3,1.4-4.2,2.4c0,0.3,0,0.5,0,0.8s-0.1,0.5-0.2,0.7c-0.7,0.7-1.5,1.3-2.3,1.9h-0.4c0.1,1.2-0.4,1.7-1.2,1.7
						c0,3.4,0,6.7,0,10c0,0.3,0,0.6,0,0.9c1.6,6.3,5,10.7,10.2,13.2c0.2,0.1,0.4,0.1,0.8,0.1c0.1,2.1,1.2,3.4,3.2,3.8
						c1,0.2,1.6,1.1,1.8,2.9c0,0,0.3,0.1,0.8,0.3c2.1,0.9,4.1,1.9,5.9,3.1c6.3,5.1,14.4,8.5,24.3,10c0.3,0,0.6,0.1,0.8,0.1
						c2.2,1.4,5.3,2,9.2,1.7c0.3,0,0.6,0,0.9,0c3.6,0,7.3,0,10.9,0c0.3,0,0.5,0,0.9,0c0.3,0,0.5,0,0.8,0s0.6,0,0.9,0
						c3.6,0.3,6.6-0.1,9.1-1.2c0.1,0,0.1-0.2,0.1-0.5c3.1-0.2,5.5-1.2,7.1-2.9c0.3-0.3,0.6-0.6,1.1-0.8c1.6-0.8,2.8-2.1,3.5-3.9
						c2.1-1.2,3.5-3.1,4.1-5.9c0.1-0.3,0.1-0.6,0.1-0.8c0.3,0,0.4-0.1,0.5-0.2c0.2-0.4,0.3-0.9,0.4-1.5c0.6-4.5,0-7.9-1.8-10
						c0-0.3-0.1-0.6-0.2-0.8c-0.9-2.7-2.5-4.6-4.9-5.9c-2.4-2.4-5-4.4-7.9-6.2c-1.1-0.7-2.1-1.4-3-2.2c-0.3-0.3-0.6-0.5-0.9-0.8
						c-1.5-1-3.1-1.9-5-2.6c-1.4-1.4-3-2.6-4.9-3.5c-0.3-0.2-0.6-0.3-1-0.3c-3.5-0.4-6.3-1.2-8.5-2.5c-0.4-0.2-0.8-0.5-1.2-0.8
						c-1.4-1-3.4-1.4-6.1-1.2c0-0.3,0-0.5-0.1-0.5c-2.6-0.7-5.1-1.4-7.4-2.1c-0.4-0.9-1.6-1.3-3.4-1.2c-0.2,0-0.5,0-0.8,0.1
						c-2.4,0.1-4.1,0.2-5.1,0.1C227.9,96.5,223.1,96.3,218.4,96.3 M227.6,111.4c0.3,0,0.6,0,0.8,0c2.2,0.4,4.1,0.9,5.9,1.5
						c0.3,0.1,0.5,0.2,0.8,0.2s0.6,0,0.9,0c-0.1,1.7,1.1,2.4,3.4,2.2c0.2,0,0.4,0.1,0.5,0.4c0.4,1.2,1.3,1.7,2.8,1.6
						c2,1.9,4.3,3.4,6.9,4.5c1.7,0.7,3.6,1.2,5.6,1.4c1,0.1,1.7,0.5,2.2,1.2c0.2,0.3,0.6,0.4,1.1,0.4c0.3,0,0.5,0,0.9,0
						c0.4,1.5,1.8,2.2,4.2,2.1c0.3,0,0.5,0.1,0.9,0.4c2,1.6,4.1,3.2,6.4,4.6c0.5,0.3,0.9,0.7,1.4,1.1c1.6,1.6,1.8,3.3,0.6,5.2
						c-0.3,0-0.6,0-0.9,0c-1.1,0-1.9,0.3-2.5,0.8c-0.3,0-0.6,0-0.9,0c-2.5,0-5,0-7.5,0c0-0.3,0-0.4-0.1-0.4
						c-2.7-0.8-5.5-1.5-8.2-2.1c-2.4-1.3-4.9-2.3-7.6-3.1c-0.5-0.2-1-0.4-1.4-0.6c-2.6-1.4-5.8-2.4-9.4-3c0-0.3-0.1-0.5-0.2-0.7
						c-0.7-1.2-2.1-1.8-4-1.8c0-0.3-0.1-0.5-0.2-0.5c-1.4-0.9-2.7-1.8-4-2.8c0-0.3-0.1-0.5-0.2-0.7c-2.1-2.1-4.2-4.1-6.4-6
						c0-0.3,0-0.6,0-0.9c0-1.4,0-2.8,0-4.2c0-0.3,0-0.5,0-0.8c0.3,0,0.5,0,0.8,0C222.6,111.4,225.1,111.4,227.6,111.4 M326.8,127.2
						c0.1,0.3,0.1,0.5,0.2,0.4c1.8-1.3,1.7-2.3-0.5-2.8C326.5,125.7,326.6,126.5,326.8,127.2z"/>
				</g>
			</g>
		</g>
	</g>
</g>
</svg>
