<?xml version="1.0" encoding="utf-8"?>
<!-- Generator: Adobe Illustrator 25.0.1, SVG Export Plug-In . SVG Version: 6.00 Build 0)  -->
<svg version="1.1" id="Layer_1" xmlns="http://www.w3.org/2000/svg" xmlns:xlink="http://www.w3.org/1999/xlink" x="0px" y="0px"
	 viewBox="0 0 500 500" style="enable-background:new 0 0 500 500;" xml:space="preserve">
<path d="M452.1,414.4c-0.6-0.7-0.8-1.4-0.8-2.2c-0.1-2.6-0.7-4.6-1.7-5.9c0-0.4,0-0.7,0-1.1c0-0.4,0-0.8,0-1.3c0-0.4,0-0.7,0-1.3
	c0-0.8,0-1.5,0-2.2c0-0.4,0-0.8,0-1.3c0.6-3.6,0.1-6.4-1.3-8.2c0-0.4,0-0.8,0-1.3c0-0.4,0-0.7-0.1-1.1c-0.6-1.7-0.8-3.6-1.1-5.9
	c0-0.4-0.1-0.7-0.3-0.8c-1.7-1.8-2.4-4.6-2.1-8.5c0-0.4,0-0.7,0-1.1c-0.3-2-1.1-3.6-2.4-4.7c0-0.4,0-0.8,0-1.3s0-0.8,0-1.1
	c0-0.4,0-0.7,0-1.1c-0.7-4-2.2-7.1-4.6-9.5c0-0.4,0-0.7,0-1.1c0-0.4,0-0.8,0-1.3c0-0.4,0-0.8,0-1.3c0-0.8-0.1-1.4-0.6-1.5
	c-1-0.7-1.4-1.7-1.5-3.1c-0.1-3.1-1-5.4-2.6-7c0-0.4,0-0.8,0-1.1c0-0.4,0-0.8-0.1-1.3c-0.3-2-1-3.5-2.2-4.7c0-0.4,0-0.8,0-1.3
	c0-0.4,0-0.7,0-1.1c0.5-4.5-0.6-6.9-3.2-7.7c0-0.4-0.1-0.7-0.3-0.8c-1.4-1.4-2.8-2.6-4.3-3.9c-0.4,0-0.7-0.1-1.1-0.3
	c-2.1-1.4-3.6-3.2-4.9-5.6c0-0.4-0.1-0.7-0.3-0.8c-1.5-1.8-3.9-3.1-6.8-3.8c0-0.4,0-0.6-0.1-0.7c-1.8-1.1-3.8-2.1-5.7-2.8
	c-0.4,0-0.7,0-1.1,0c0-0.8-0.3-1.4-0.7-1.7c-0.4-0.4-0.7-0.8-1.1-1.3c-0.4-0.4-0.8-0.7-1.3-1c-0.7-0.6-1.7-1-2.8-1.4
	c-1-0.4-2-0.8-2.8-1.3c-0.6-0.3-1.1-0.7-1.4-1.1c-1.1-1.3-2.9-2-5.3-1.7c0-0.4-0.1-0.7-0.3-0.7c-3.3-1.8-6.8-3.6-10.3-5.2
	c-0.4-0.4-0.8-0.7-1.3-0.8c-0.7-0.3-1.3-0.6-1.5-0.8c-1.1-1.3-2.9-2-5.4-1.7c-0.4,0-0.8,0-1.1,0c-0.4,0-0.8,0-1.3,0
	c-0.7,0-1.1-0.1-1.3-0.1c-0.3-1.5-1-2.2-2.2-2.1c-3.5,0.4-6.3,0-8.2-1.3c-0.4-0.4-0.8-0.7-1.3-0.7c-1.1-0.3-2.1-0.6-3.3-1
	c-1.3-0.4-2.5-0.8-3.9-1.4c-0.7-0.3-1.1-0.6-1.4-0.8c-1.3-1.8-3.5-2.4-6.7-1.8c0-0.4-0.1-0.7-0.3-0.8c-2-2-4.5-3.2-7.8-3.8
	c-0.4,0-0.7,0-1.3,0c-0.4,0-0.6-0.1-0.6-0.3c-0.6-1.5-2-2.2-4-2.1c-0.4,0-0.8,0-1.3,0c-0.4,0-0.7,0-1.1,0c-0.8-0.8-1.7-1.4-2.5-1.8
	c-0.7-0.3-1.1-0.7-1.4-1.1c-1.3-1.5-3.5-2.2-6.5-1.8c0-0.4-0.1-0.6-0.1-0.7c-0.7-0.3-1.4-0.6-2.2-0.6c-0.4-0.4-0.7-0.6-1.1-0.4
	c-2.5,0.1-4-0.4-4.9-1.7c-0.3-0.4-0.6-0.7-1-0.7c-3.9,0-7.1-0.6-9.3-1.8c-0.1-0.7-0.6-1.1-1.1-1.4c-0.6-0.3-1.4-0.3-2.5-0.1
	c-1.5,0.3-3.1,0.1-4.5-0.3c-2.2-0.7-4.2-1.7-6-2.9c0-0.4,0-0.7-0.1-1.1c-1-2.4-2.1-4.7-3.3-7.1c0-0.4,0-0.8,0-1.3
	c1.3,0,2.2-0.1,3.3-0.6c0.1,0,0.1-0.3,0.1-0.6c3.6,0.1,5.9-1.1,6.8-3.6c0.1-0.3,0.1-0.7,0.1-1.1c0.4,0,0.8,0,1.3,0
	c2.6-1.7,4.6-4,5.7-7.1c0.1-0.3,0.1-0.7,0.1-1.1c2-1.5,3.9-3.2,5.4-5c0.3-0.1,0.3-0.4,0.3-0.8c2.9-1,5-2.8,6.5-5.4
	c0.3-0.6,0.8-1.3,1.4-1.8c1.3-1.4,2.5-2.8,3.8-4.3c0.8-1.1,1.5-2.4,2.1-3.6c0.1-0.3,0.3-0.7,0.3-1.1c1.3-1,1.8-2.9,1.7-5.9
	c0-0.4,0.1-0.8,0.6-1.3c1.4-1.7,1.8-4.5,1.3-8.1c0-0.4,0-0.8,0-1.3c0-1.5,0-3.1,0-4.6c1.5-1.5,2.2-3.9,2.2-7c0-0.4,0-0.8,0-1.3
	c0-2,0-3.9,0-5.9c0-0.7,0.1-1.3,0.6-1.7c0.8-0.7,1.4-1.7,1.5-3.1c0.1-0.7,0.3-1.5,0.6-2.2c0.8-2.1,1.4-4.5,2-7.1
	c0-0.7-0.1-1.4-0.6-1.8c-1.4-1.7-2-4.2-1.8-7.5c0-0.7,0-1.3-0.3-1.3c-2.2-0.8-2.9-3.2-2-6.8c0-6.3-0.1-12.4-0.3-18.7
	c-0.3-6.1-1.3-11.6-3.1-16.3c-0.3-0.8-0.6-1.7-0.8-2.5c-1-3.9-2.1-7.7-3.3-11.4c-0.3-1-0.7-1.8-1-2.8c-0.8-2.6-1.7-5-2.5-7
	c-2-4-4-7.9-6.3-11.4c-1.3-2-2.2-3.9-3.1-6c-0.3-0.7-0.6-1.3-1.1-1.5c-0.4-0.4-0.7-0.8-1.1-1.3c-1.1-1.1-2.4-2.4-3.5-3.5
	c-2.8-3.1-5.6-6-8.6-8.9c-1.7-1.5-3.6-2.6-6-3.3c-0.1,0-0.3,0-0.4,0c-0.3,0-0.6,0-0.7,0c0-0.4,0-0.8-0.1-1.1c-0.1-1.3-1-2.1-2.2-2.4
	c0-0.4-0.1-0.7-0.3-0.7c-3.3-1.1-6.4-2.5-9.1-3.9c-0.8-1.1-1.8-2.2-3.1-3.1c-2.4-1.7-5.7-2.6-9.9-2.8c-1-1-2.5-1.5-4.6-1.7
	c-0.4,0-0.8,0-1.1,0c-3.9,0-6.5-1-8.2-2.9c-3.5,0.4-6.1,0-8.1-1.3c-1.8-1.3-4.6-1.7-8.2-1.1c-0.4,0-0.7-0.1-0.8-0.3
	c-1.7-1.8-4.5-2.5-8.5-2.1c-0.4,0-0.8,0-1.3,0c-0.8,0-1.5,0-2.2,0c-0.4,0-0.8,0-1.3,0.1c-2,0.3-3.5,1-4.6,2.2c-0.4,0-0.8,0-1.3,0
	c-2.4,0-4.6,0-7.1,0c-0.7,0-1.4,0.1-1.8,0.6c-2.4,1.8-6,2.4-11,1.8c0,0.4,0,0.8,0,1.3c-0.4,0-0.6,0.1-0.8,0.3
	c-0.8,1.1-2.5,1.4-5,0.8c-3.5-0.4-6.3,0.1-8.1,1.4c-1.8,1.3-4.6,1.7-8.2,1.1c0,0.4,0,0.7,0,1.1c0,0.4,0,0.7,0,1.1
	c-0.4,0-0.8,0-1.3,0c-0.8,0-1.3,0.3-1.5,0.7c-0.7,1-1.7,1.4-3.1,1.3c-4.3-0.3-7.5,0.7-9.3,2.8c-1.5,0-2.8,0.4-3.6,1.1
	c-4.2,3.2-8.5,6.4-12.8,9.5c0,0.4,0,0.8,0,1.1c-0.4,0-0.7,0.1-1.1,0.3c-1.3,0.7-2.4,1.4-3.6,2.1c-0.4,0-0.7,0.1-1,0.3
	c-3.3,2.8-7,5.3-10.7,7.8c0,0.4,0,0.8,0,1.3c0,0.4-0.1,0.7-0.3,0.8c-0.1,0.1-0.6,0.3-1,0.3s-0.6,0.1-0.7,0.3
	c-1.1,2.5-2.8,4.5-5.2,5.7c0,0.4,0,0.8,0,1.1c-0.4,0-0.6,0-0.6,0.1c-0.1,2.1-1.1,3.2-2.9,3.3c0,0.8,0,1.5,0,2.4c0,0.4,0,0.7,0,1.1
	c-0.4,0-0.6,0.1-0.7,0.3c-0.6,1.1-1.5,1.8-2.8,2.1c0,0.8,0,1.5,0,2.4c0,0.4,0,0.8,0,1.1c-1.5,1.5-3.1,3.2-4.6,4.7
	c-0.4,0.4-0.7,0.8-0.8,1.3c-1,3.1-2.2,5.7-3.9,7.9c-0.4,0.4-0.6,1-0.7,1.4c-0.8,3.2-2.2,5.9-3.9,8.1c0,0.4,0,0.8,0,1.3
	s-0.1,0.6-0.3,0.7c-0.6,0.3-0.8,0.6-0.8,0.6c-0.3,2-1,3.1-2.4,3.3c0,0.4,0,0.8,0,1.1c0,0.4,0,0.7,0,1.1c0,1.3,0.1,2.4,0.3,3.5
	c0.7,5.2-0.1,8.8-2.6,10.6c0,3.9,0,7.8,0,11.6c0,0.4,0,0.8,0,1.3c-0.4,0-0.7,0-1.1,0c0,2.6,0,5.4,0,8.1c0,0.4,0,0.8,0,1.3
	c-0.4,0-0.7,0-1.1,0c0,3.1,0.1,6.1,0.6,9.2c0,0,0.1,0.1,0.6,0.1s0.8,0,1.1,0c-0.3,3.9,0.3,6.7,2,8.5c1.7,2,2.6,4.5,2.8,7.8
	c0.6,3.3,1.8,6,3.9,7.9c0.1,0.1,0.4,0.3,0.8,0.3c-0.1,2.1,0.6,3.3,2.1,3.9c0.1,0,0.3,0.3,0.3,0.7c0.3,3.6,0.8,7.1,1.7,10.3
	c0,0.1,0.3,0.1,0.6,0.1c0.8,3.1,1.5,6.3,2,9.3c0.4,2.5,1.7,4,3.9,4.7c0.4,0,0.7,0.1,0.8,0.3c0.3,0.1,0.3,0.4,0.3,0.8
	c0,2.6,0.8,4.6,2.5,5.6c0.3,0.1,0.7,0.3,1.1,0.3c0.4,0,0.7,0.1,0.8,0.3c0.3,0.1,0.3,0.6,0.3,1c0.7,2.9,2,5.2,3.8,6.7
	c0.1,0.1,0.4,0.3,0.8,0.3c2.4,1.5,4.3,3.5,6.1,5.6c0.1,0.1,0.4,0.3,0.8,0.3c1,1.4,2.1,2.5,3.6,3.3c0.3,0.1,0.7,0.1,1.1,0.1
	c1.7,2.2,3.8,4,6,5.6c0.3,0.1,0.6,0.3,1,0.3c1,2.1,2.6,3.5,4.7,4.5c0.3,0.1,0.7,0.1,1.1,0.1s0.7,0.1,0.8,0.3c0.1,0.3,0.3,0.6,0.3,1
	c2.8,3.1,5.6,6.1,8.5,9.1c0.1,0.1,0.4,0.3,0.8,0.3c0,1.1,0,2.4,0,3.5c0,0.4,0,0.8,0,1.3c-0.4,0-0.6,0-0.6,0c0,0.6-0.1,1.1-0.3,1.5
	c-0.2,0.4-0.3,0.8-0.6,1.1c-0.7,0.7-1.8,1-3.2,0.8c0,0.4,0,0.8,0,1.3c-1.5,0.4-2.9,1-4.3,1.8c-1.4,0.8-3.1,1.3-5,1.5
	c-0.8,0.1-1.4,0.3-1.7,0.7c-0.4,0.4-0.6,0.6-0.7,0.6c-3.8,0.4-6.4,1.5-8.1,3.5c-0.4,0-0.7,0-1.1,0.1c-0.8,0.3-1.7,0.6-2.5,1
	c-0.4,0-0.7,0.1-0.8,0.3c-4.2,3.2-8.5,6.3-13.1,9.1c0,0.4,0,0.8,0,1.3c-0.4,0-0.7,0-1.1,0.1c-1.3,0.7-2.4,1.4-3.6,2.1
	c0,0.4,0,0.8,0,1.3c0,0.4,0,0.7,0,1.3c-2,1.5-3.5,3.5-4.7,5.9c-0.8,1.5-1.8,2.9-2.9,4c-0.4,0.4-0.6,0.7-0.6,0.7
	c-0.3,3.2-1.8,4.7-4.6,4.6c0,0.4,0,0.7,0,1.1c0,0.4,0,0.8,0,1.3c0,0.4-0.1,0.8-0.3,1.1c-1.4,2.4-3.2,4.5-5.6,6c0,0.4,0,0.7,0,1.1
	c0,0.4,0,0.8,0,1.3c-0.4,0-0.6,0-0.6,0.1c-0.6,2.8-2,4.7-4,5.7c0,0.4,0,0.7,0,1.3c0,0.4,0,0.7,0,1.1c0,0.8,0,1.5,0,2.4
	c0,0.4,0,0.8,0,1.3c0,0.4,0,0.7,0,1.1c-0.1,1.4-1,2.1-2.2,2.4c0,1.5,0,3.1,0,4.7c0,0.4,0,0.7,0,1.1c0,3.1,0,6.3,0,9.3
	c0,0.4,0,0.8,0,1.3c-0.4,0-0.6,0-0.6,0c-0.7,5.4-2.1,10-4,13.9c0,0.7,0,1.5,0,2.2c0,0.4,0,0.8,0,1.3s0,0.7,0,1.3h-0.6
	c0.1,2.1-0.4,3.2-1.7,3.5c0,1.1,0,2.4,0,3.5c0,0.4,0,0.8,0,1.3c0,2,0,3.9,0,5.9c0,0.4,0,0.7,0,1.1c0.7,1.7,1.3,3.6,1.7,5.7
	c0,0.1,0.1,0.1,0.6,0.1c0,0.3,0,0.4,0,0.7c0,0.3,0,0.4,0,0.6c0.4,5,1.1,10,1.7,15.2c0,0,0.1,0,0.6,0c0,2,0,3.9,0,5.9
	c0,0.4,0,0.7,0,1.1c0,2.8,0.3,5.2,1,7.1c0.7,2.1,1.5,4,2.5,5.7c0,2,0.3,3.9,0.6,5.7c0,0,0.3,0.1,0.6,0.1c0,0.8,0,1.5,0,2.4
	c0,0.4,0,0.7,0,1.3c0.6,4.5,1.7,8.4,3.2,11.8c0.1,0.3,0.3,0.7,0.3,1.1c3.9,3.1,7.5,6.4,10.9,10c2.5,2.6,4.7,5.4,7,8.4
	c0.1,0.1,0.4,0.3,0.8,0.3c0.4,0,0.7,0.1,0.8,0.3c0.1,0.1,0.3,0.6,0.3,1c-0.6,3.2,1,4.5,4.7,3.6c0.4-0.1,0.7-0.1,1.1-0.1
	c1.7,2.6,4.3,4.3,8.1,5c0.4,0.1,0.8,0.4,1.1,0.8c0.4,0.8,1.7,1,3.9,0.4c1.4-0.4,2.5-0.1,3.3,0.7c4.3,0.4,7.2-0.7,8.6-3.3
	c0.1-0.1,0.3-0.3,0.7-0.3c3.2-1.1,6.4-2,9.6-2.8c2.2-0.6,4.5-0.7,6.8-0.7c2.4,0,4.7,0,7.1,0c3.2,0.6,5.4,0,6.7-1.8
	c0.3-0.4,0.6-0.3,0.8,0.1c2.5,2.6,5,2.4,7.7-0.7c4.3,0,8.6,0,12.8-0.1c1.3,0,2.4-0.6,3.1-1.5c0.3-0.4,0.8-0.6,1.5-0.6
	c0.7,0,1.5,0,2.4,0c0.8,0,1.5,0,2.4,0c0.4,0,0.7,0,1.1,0c4.9,0.6,8.5,0,10.9-1.7c0.6-0.4,1.1-0.6,2-0.4c2.5,0.4,4.2,0,4.7-1.3
	c2.6-1.3,5.4-2.2,8.2-2.9c2-0.4,3.8-0.7,5.7-0.7c2-1.1,4.3-1.7,7-1.7c10.9,0,21-0.4,30.5-1.3c0.3,0,0.6,0,0.8-0.1
	c1.3-0.3,2.5-0.7,3.9-1.3c0.7-0.3,1.4-0.4,2.2-0.4c0.4,0,0.8,0,1.1,0c3.3,0.3,5.9-0.3,7.5-1.7c0.4-0.4,1.1-0.6,1.8-0.6
	c2.1,0.1,3.3-0.7,3.5-2.5c2.4,0,4.6,0,7,0c0.4,0,0.7,0,1.3,0c4.9,0.7,8.5,0,11-1.7c0.4-0.4,1.1-0.6,2-0.4c5.9,0.7,10.3,0,13.2-2
	c0.6-0.4,1.1-0.6,2-0.6c3.1,0,6.3-0.1,9.2-0.6c0.4,0,0.8-0.3,1.3-0.6c3.1,0.3,5.4,0,7.1-1c0.3-0.1,0.7-0.1,1.1-0.1
	c0.4,0,0.8,0,1.3,0c2.1,1.4,3.9,1,5.6-1.4c0.1-0.3,0.3-0.6,0.3-1c0.4,0,0.7,0,1.1,0c2.6,0.3,4.5-0.1,5.6-1.4
	c0.1-0.3,0.3-0.6,0.3-0.8c0.4,0,0.8,0,1.3,0s0.7,0,1.3,0c5,0,8.8-1.3,11.3-3.9c0.1-0.1,0.3-0.4,0.3-0.8c3.9,0.4,6.8-0.1,8.6-1.7
	c0.4-0.4,1.1-0.7,2-0.7c2-0.3,3.6-0.8,5-1.7c0.6-0.3,1.3-0.6,2-0.6c2.6-0.4,5.2-0.8,7.2-1.4c1.8-0.6,3.6-0.8,5.6-0.8
	c4.5,0.1,8.2-0.4,11.4-1.7c0.1,0,0.1-0.3,0.1-0.6c4.2-0.6,7.2-0.3,9.5,0.8c0.3,0.1,0.7,0.3,1.1,0.3c2.5,1.4,4.9,1.1,7.2-0.8
	c0.3-0.1,0.6-0.3,0.8-0.3c4.9,0.6,8.6,0,11-1.8c0.6-0.4,1.1-0.6,2-0.4c4.5,0.6,8.1,0.1,10.4-1.3c1.8-0.6,3.3-1.4,4.3-2.6
	c0.1-0.1,0.3-0.6,0.3-0.8C453.8,419.1,453.9,416.8,452.1,414.4z M195.4,129.5h0.4c0.3,0,0.6,0,0.9,0c0-0.2,0-0.5,0-0.8
	c0-0.2,0-0.5,0-0.8c0-0.3,0-0.6,0-0.9s0-0.5,0-0.8c1.6-0.7,3.6-1.1,5.9-1.2c1.1,0,2.3,0,3.4-0.1c0.9-0.1,1.4,0.3,1.6,1.3
	c0.9,1.4,2.1,2.4,3.5,3c0.9,0.3,1.1,1.3,0.7,2.8c0.9,0.2,1.5,0.7,1.6,1.7c0.1,0.3,0.1,0.5,0.1,0.8c1,1.2,1.4,3.2,1.4,5.8
	c0,1.5-0.5,2.4-1.4,2.6c0,0.3-0.1,0.5-0.2,0.7c-0.8,1.4-2.2,2.2-4,2.7c-0.9,1.9-2.6,2.9-5.1,3.1c-2.8,0.1-4.4-0.9-5-3.1
	c-0.3,0-0.5-0.1-0.7-0.2c-1.5-1-2.1-2.9-1.8-5.7c0-0.3,0-0.5,0-0.8c0-1.2,0-2.3,0-3.4c-0.3,0-0.5-0.1-0.6-0.2
	c-1-1.2-1.7-2.8-1.9-4.8C195.1,131.2,195.5,130.7,195.4,129.5z M162.4,137.9c0.2-0.1,0.5-0.2,0.8-0.2c0-0.2,0-0.5,0-0.8
	c0-0.3,0-0.5,0-0.8c0-0.2,0-0.5,0-0.8c0-0.2,0-0.5,0-0.8c1.6-0.3,3-0.8,4.2-1.5c0.3-0.1,0.5-0.2,0.8-0.2c0-0.3,0-0.5,0.2-1
	c2.2,0,4.4,0.1,6.6,0.4c0.1,0,0.1,0.1,0.1,0.4c3.1,1.1,5.2,3.3,6.2,6.6c0,0.1,0.1,0.2,0.4,0.2c0.4,4.8,0,9-1.2,12.4
	c0,0.1-0.1,0.2-0.4,0.2c0,0.2-0.1,0.4-0.2,0.6c-0.2,0.1-0.4,0.2-0.7,0.2c-0.6,2.8-2.8,4.1-6.8,3.9c-3.2-0.2-5.2-1.5-5.8-3.9
	c-0.4,0-0.6-0.1-0.8-0.2c-2.4-1.5-3.5-4.3-3.5-8.2c-0.2,0-0.4-0.1-0.4-0.1c-0.3-1.9-0.4-3.8-0.4-5.8
	C161.7,138.3,162.1,138.1,162.4,137.9z M253.4,185.6c0,0.3,0,0.5,0,0.8c-0.8,1.2-1.4,2.6-1.8,4.2c-0.4,1.6-0.9,3-1.6,4.2
	c0,0.2,0,0.5,0,0.8c0,1-0.5,1.3-1.7,0.9c-0.6,2.5-1.7,4.4-3.3,5.9c-0.3,0.3-0.5,0.6-0.6,0.9c-0.1,0.5-0.3,0.8-0.6,1
	c-3.2,2-5.8,4.4-8,7.3c-0.3,0-0.5,0.1-0.7,0.2c-2.7,2-6.4,3.1-11.1,3.1c-0.3,0-0.5,0-0.8,0c0,0.3-0.1,0.5-0.2,0.6
	c-2,1.4-4.5,2.4-7.4,2.8c-3.9,0-7.8,0.1-11.7,0.4c-4.2,0.3-7.3-0.4-9.2-2.1c-0.3,0-0.5,0-0.8,0c-1.2,0-2.3,0-3.4,0
	c-0.5,0-0.9-0.1-1.1-0.4c-1-1.4-2.8-1.8-5.6-1.4c-0.5,0.2-0.8,0.1-1-0.2c-0.6-1-1.6-1.6-3.1-1.8c-4.7-0.6-8.3-2.4-10.9-5.4
	c-0.3,0-0.5,0-0.8-0.1c-2.2-0.6-3.9-1.6-5.1-3.2c-1.4-1.1-2.7-2.2-4.1-3.4c-1.2-1-2.1-2.4-2.6-4.1c-0.3,0-0.4-0.1-0.4-0.1
	c-0.3-3-0.4-6-0.4-9.1c0.3,0,0.6,0,0.9,0c0-0.3,0-0.6,0-0.9c1.1-0.2,2-0.7,2.7-1.4c0.1-0.1,0.3-0.2,0.6-0.2c0.9,0,1.7-0.1,2.4-0.4
	c0,0,0.1-0.1,0.1-0.4c0-0.2,0-0.5,0-0.8c5-0.2,8.8,0.7,11.4,2.9c1.4,1.1,2.7,2.3,3.8,3.7c0.3,0.3,0.6,0.5,0.9,0.6
	c1.5,0.3,2.3,1.3,2.5,2.8c4.2,1.1,8,2.6,11.5,4.5c0.1,0.1,0.2,0.2,0.2,0.5c2.5,0.1,5,0.2,7.5,0.5c0.1,0,0.1,0.1,0.1,0.4
	c3-0.1,5.8-0.4,8.4-0.8c0.3-0.1,0.5-0.1,0.8-0.1c2-0.5,4.2-0.9,6.6-1.3c1.4-0.2,2.8-0.8,4-1.6c1.7-1.1,3.7-1.9,6.1-2.4
	c1-0.3,1.7-0.9,2.2-2c0.2-0.5,0.6-0.9,1.1-1.2c0.3-0.2,0.6-0.5,0.9-0.8c0-0.2,0-0.5,0-0.8c0-0.3,0-0.5,0-0.8
	c1.3-0.9,2.3-2.3,2.9-4.1c0.1-0.1,0.2-0.1,0.5-0.1c0-0.3,0-0.6,0-0.9c0-2,0-4,0-5.9c-0.3,0-0.4,0-0.4,0c-0.2-2.8-0.4-5.6-0.4-8.4
	c0.3,0,0.6,0,0.9,0c0-0.3,0-0.5,0-0.8c0-0.3,0-0.6-0.3-0.8c1.3-1,2.3-2.3,2.9-4.1c0-0.1,0.1-0.2,0.4-0.2c0-0.2,0-0.5,0-0.8
	c0.3,0,0.6,0,0.9,0c0-0.3,0-0.5,0-0.8c2.2-0.9,4.9-1.1,8.3-0.5c0.3,0,0.6,0.2,0.9,0.4c1.3,1,2.4,2.1,3.3,3.5c1,0.4,1.4,1.5,1.3,3.3
	c0,0.5,0.1,1.1,0.4,1.7c0.6,1.4,1.1,2.8,1.7,4.2c0.9,1.2,1.4,3.2,1.4,5.8C254.8,181.8,254.4,184.1,253.4,185.6z"/>
</svg>
