<?xml version="1.0" encoding="utf-8"?>
<!-- Generator: Adobe Illustrator 25.0.1, SVG Export Plug-In . SVG Version: 6.00 Build 0)  -->
<svg version="1.1" id="Layer_1" xmlns="http://www.w3.org/2000/svg" xmlns:xlink="http://www.w3.org/1999/xlink" x="0px" y="0px"
	 viewBox="0 0 500 500" style="enable-background:new 0 0 500 500;" xml:space="preserve">
<style type="text/css">
	.st0{fill-opacity:0.4039;}
	.st1{fill-opacity:0.5608;}
	.st2{fill-opacity:0.5451;}
	.st3{fill-opacity:0.3686;}
	.st4{fill-opacity:0.5529;}
	.st5{fill-opacity:0.5294;}
	.st6{fill-opacity:0.5412;}
	.st7{fill-opacity:0.5098;}
	.st8{fill-opacity:0.4392;}
	.st9{fill-opacity:0.7373;}
	.st10{fill-opacity:0.451;}
	.st11{fill-opacity:0.502;}
	.st12{fill-opacity:0.4902;}
	.st13{fill-opacity:0.4706;}
	.st14{fill-opacity:0.4667;}
	.st15{fill-opacity:0.4118;}
	.st16{fill-opacity:0.4353;}
	.st17{fill-opacity:0.4941;}
	.st18{fill-opacity:0.4471;}
	.st19{fill-opacity:0.549;}
	.st20{fill-opacity:0.6;}
	.st21{fill-opacity:0.5255;}
	.st22{fill-opacity:0.5961;}
	.st23{fill-opacity:0.5216;}
	.st24{fill-opacity:0.4588;}
	.st25{fill-opacity:0.4549;}
	.st26{fill-opacity:0.5333;}
	.st27{fill-opacity:0.4431;}
	.st28{fill-opacity:0.4078;}
	.st29{fill-opacity:0.4627;}
	.st30{fill-opacity:0.698;}
	.st31{fill-opacity:0.4275;}
	.st32{fill-opacity:0.498;}
	.st33{fill-opacity:0.4824;}
	.st34{fill-opacity:0.3647;}
	.st35{fill-opacity:0.7255;}
	.st36{fill-opacity:0.4314;}
	.st37{fill-opacity:0.7333;}
	.st38{fill-opacity:0.5059;}
	.st39{fill-opacity:0.6078;}
	.st40{fill-opacity:0.4784;}
	.st41{fill-opacity:0.5176;}
	.st42{fill-opacity:0.6275;}
	.st43{fill-opacity:0.3922;}
	.st44{fill-opacity:0.2353;}
	.st45{fill-opacity:0.5843;}
	.st46{fill-opacity:0.5373;}
	.st47{fill-opacity:0.2471;}
	.st48{fill-opacity:0.6745;}
	.st49{fill-opacity:0.5137;}
	.st50{fill-opacity:0.4745;}
	.st51{fill-opacity:0.9961;}
</style>
<g transform="matrix( 1, 0, 0, 1, 0,0) ">
	<g>
		<g id="Layer0_0_FILL">
			<path class="st0" d="M83,486.6c-1.9-1.1-3.9-2.1-6-2.9c-0.6,3.5,1,4.8,5.1,3.9c0.4-0.1,0.8-0.1,1.2-0.1
				C83.3,487,83.2,486.7,83,486.6z"/>
			<path class="st1" d="M100.7,494.9c4.6,0.4,7.7-0.8,9.2-3.5c0.1-0.2,0.3-0.3,0.7-0.3c0-0.4,0-0.8,0-1.2c0-0.4,0-0.9,0-1.3
				c-2.1,0.8-4.1,1.7-6.1,2.7c-0.5,0.3-0.7,0.4-0.7,0.4c-0.8-0.7-1.8-0.1-3.1,1.9C100.7,494.1,100.7,494.5,100.7,494.9z"/>
			<path class="st2" d="M135.7,486.1c2.3,0.2,3.8-0.3,4.7-1.4c0.2-0.3,0.3-0.6,0.3-1c-5.7,1.8-12.3,2.7-19.9,2.5
				c-0.8,0-1.5,0.1-2,0.5c-1.8,1.5-4.5,2.1-8,1.9c0,0.4,0,0.8,0,1.3c0,0.4,0,0.8,0,1.2c3.5-1.1,6.9-2.1,10.2-2.9
				c2.4-0.5,4.8-0.8,7.3-0.8c2.5,0,5,0,7.5,0C135.7,487,135.7,486.6,135.7,486.1z"/>
			<path class="st3" d="M151.9,484.9c-0.4,0-0.8,0.1-1.1,0.3c-2.8,1.3-4.5,0.8-5.1-1.5c-0.4,0-0.9,0-1.3,0c-1.2,0-2.4,0-3.7,0
				c0,0.4-0.1,0.7-0.3,1c-0.8,1.1-2.4,1.6-4.7,1.4c0,0.4,0,0.9,0,1.3c3.5,0.6,5.8,0,7.1-1.9c0.2-0.4,0.6-0.4,1,0.1
				C146.4,488.4,149.1,488.2,151.9,484.9z"/>
			<path class="st4" d="M165.6,484.7c1.4,0,2.5-0.6,3.3-1.6c0.3-0.4,0.9-0.6,1.7-0.6c0.8,0,1.6,0,2.5,0c-1-1.4-3.1-1.9-6.3-1.3
				c-2.5,0.4-5,1-7.3,1.7c-0.5,0.1-1,0.2-1.5,0.3c-4.1,0.4-8.2,0.6-12.4,0.6c0.6,2.3,2.3,2.8,5.1,1.5c0.3-0.2,0.7-0.3,1.1-0.3
				C156.5,484.9,161.1,484.9,165.6,484.7z"/>
			<path class="st5" d="M190.5,480.1c2.7,0.4,4.4,0,5.1-1.4c-0.4,0-0.8-0.1-1.1-0.3c-0.5-0.2-1-0.6-1.4-1c-1,1-2.7,1.5-5,1.3
				c-0.8,0-1.4,0.1-1.9,0.5c-2,1.7-5.1,2.3-9.3,1.9c0,0.4,0,0.9,0,1.3c5.3,0.6,9.2,0,11.7-1.9C189,480.1,189.7,480,190.5,480.1z"/>
			<path class="st6" d="M210.5,474.9c0-0.4,0-0.8,0-1.2c0.4,0,0.7-0.1,0.9-0.3c0.2-0.2,0.4-0.6,0.4-1c-0.4,0-0.9,0-1.3,0.1
				c-6.5,0.9-12.3,2.6-17.5,4.9c0.4,0.4,0.9,0.7,1.4,1c0.3,0.2,0.7,0.3,1.1,0.3c2.9-1.3,5.8-2.3,8.9-3.1
				C206.4,475.2,208.5,475,210.5,474.9z"/>
			<path class="st7" d="M255.5,470.4c0.7-0.3,1.5-0.4,2.3-0.4c-2.2-1.4-5.6-1.8-10-1.3c-3.3,0.4-6.5,1-9.8,1.8
				c-0.5,0.1-0.9,0.1-1.3,0.1c-3.7,0-8.3-0.1-13.8-0.3c-2.5,0-6.2,0.2-11.2,0.9c0,0.4,0,0.9,0,1.3c0,0.4-0.1,0.7-0.4,1
				c-0.2,0.2-0.5,0.3-0.9,0.3c0,0.4,0,0.8,0,1.2c2.1-1.2,4.6-1.8,7.4-1.8c11.7,0,22.5-0.5,32.5-1.3c0.3,0,0.7,0,1-0.1
				C252.8,471.4,254.2,470.9,255.5,470.4z"/>
			<path class="st8" d="M282.8,463.7c-0.4,0-0.9,0-1.3,0c0,0.4,0,0.8,0,1.2c5.2,0.7,9.1,0.1,11.7-1.9c0.5-0.4,1.2-0.5,2-0.4
				c6.3,0.7,11,0,14.1-2.1c0.5-0.4,1.2-0.6,2.1-0.6c3.3,0,6.6-0.2,9.9-0.5c0.4,0,0.9-0.3,1.3-0.7c-0.4,0-0.9,0-1.3,0
				c-1.7,0-3.3,0-5,0c-3,0-5.9,0-8.7,0c-1.2,0-2.3,0.3-3.3,0.8c-3.4,1.7-8.1,2.3-14.1,1.6c0,0.4-0.1,0.7-0.3,0.9
				C288.4,463.5,286.1,464.1,282.8,463.7z"/>
			<path class="st9" d="M282.8,462.5c0,0.4,0,0.8,0,1.3c3.2,0.3,5.6-0.2,7.1-1.6c0.2-0.1,0.3-0.4,0.3-0.9c-0.4,0-0.8,0-1.3,0
				c-2,0-4.1,0-6.2,0C282.8,461.7,282.8,462.1,282.8,462.5z"/>
			<path class="st4" d="M272.9,464.9c2.5,0,5,0,7.4,0c0.4,0,0.8,0,1.3,0c0-0.4,0-0.8,0-1.2c0.4,0,0.8,0,1.3,0c0-0.4,0-0.9,0-1.3
				c-0.4,0-0.8,0.1-1.2,0.2c-2.9,1.2-6.6,1.5-11.3,1c0,0.4,0,0.8,0,1.2c0.4,0,0.8,0,1.3,0C272,464.9,272.4,464.9,272.9,464.9z"/>
			<path class="st10" d="M267.1,468.1c0.5-0.4,1.1-0.6,1.9-0.5c2.3,0.1,3.5-0.8,3.8-2.6c-0.4,0-0.9,0-1.3,0c-0.4,0-0.9,0-1.3,0
				c-0.4,0-0.8,0.1-1.2,0.2c-3.2,1.3-6.5,2.5-10,3.6c0,0.4,0,0.8,0,1.2C262.7,470.2,265.3,469.5,267.1,468.1z"/>
			<path class="st11" d="M122,269.2c-1.6,0.4-3.2,1-4.6,1.9c-1.4,0.8-3.2,1.4-5.4,1.6c-0.8,0.1-1.5,0.4-1.9,0.8
				c-0.4,0.4-0.6,0.6-0.7,0.6c-4,0.4-6.9,1.7-8.6,3.7c2.4,1.5,5.1,1.3,7.9-0.7c0.6-0.3,1.2-0.7,1.9-1c3.9-1.8,7.7-3.7,11.4-5.7
				C122,270,122,269.6,122,269.2z"/>
			<path class="st12" d="M126.9,264.2c-0.4,0-0.6,0-0.6,0.1c0,0.6-0.1,1.1-0.3,1.6c-0.1,0.4-0.4,0.8-0.7,1.2c-0.7,0.7-1.9,1-3.4,0.9
				c0,0.4,0,0.9,0,1.3c0,0.4,0,0.8,0,1.3c0.5-0.1,1.1-0.2,1.6-0.4c2.4-1,3.8-2.9,4.1-5.8H126.9z"/>
			<path class="st13" d="M126,259c0.2,0.2,0.5,0.3,0.9,0.3c0-0.4-0.1-0.8-0.2-1.1c-2.1-4-5.3-7-9.7-8.9
				C119.9,252.6,123,255.8,126,259z"/>
			<path class="st14" d="M110.7,243c-0.4,0-0.8,0-1.2,0c1.1,2.2,2.8,3.8,5.1,4.8c0.3,0.1,0.7,0.2,1.2,0.2c0-0.4-0.1-0.8-0.3-1.1
				C114.6,244.9,113,243.6,110.7,243z"/>
			<path class="st7" d="M102,236.8c1.8,2.4,4,4.4,6.5,6c0.2,0.2,0.6,0.3,1,0.3c0.4,0,0.8,0,1.2,0c0-0.4-0.1-0.7-0.3-1
				c-2.4-2.6-5.2-4.8-8.4-6.5C102,236,102,236.4,102,236.8 M372.5,289.8c0.4,0,0.9,0.1,1.4,0.3c0.7,0.2,1.5,0.4,2.4,0.4
				c0-0.4,0-0.9,0-1.3c-0.4-0.4-0.8-0.7-1.3-0.9c-0.7-0.2-1.3-0.6-1.6-1c-1.2-1.4-3.1-2-5.7-1.9
				C367.7,288.1,369.4,289.6,372.5,289.8z"/>
			<path class="st15" d="M99.6,233.1c-0.4,0-0.9,0-1.3,0c-0.4,0-0.8,0-1.3,0c1,1.5,2.3,2.7,3.9,3.5c0.3,0.1,0.7,0.2,1.1,0.2
				c0-0.4,0-0.8,0-1.2c0-0.4,0-0.9,0.1-1.3C102.2,233,101.3,232.6,99.6,233.1z"/>
			<path class="st11" d="M89.6,225.6c0,0.4,0,0.8,0,1.2c2.5,1.7,4.7,3.7,6.5,6c0.2,0.2,0.5,0.3,0.9,0.3c0.4,0,0.9,0,1.3,0
				c0.4,0,0.8,0,1.3,0c-0.2-1.4-0.9-2.5-2-3.3C95.2,228.2,92.6,226.8,89.6,225.6z"/>
			<path class="st16" d="M88.6,226.5c0.2,0.2,0.5,0.3,1,0.3c0-0.4,0-0.8,0-1.2c0-0.4-0.1-0.8-0.3-1.1c-1.1-2.1-2.7-3.8-4.7-5.1
				C85.3,222.4,86.6,224.8,88.6,226.5z"/>
			<path class="st17" d="M284,258c0-0.4,0-0.8,0-1.3c0.4,0,0.9,0,1.3,0c0.4,0,0.8,0,1.3,0c-0.1-0.7-0.5-1.2-1.1-1.4
				c-0.6-0.3-1.5-0.3-2.7-0.1c-1.6,0.2-3.2,0.1-4.8-0.3c-2.3-0.7-4.5-1.8-6.4-3.1c0.3,4.7,3.6,6.6,10,5.8c0.5,0,1,0,1.5,0.1
				C283.4,257.7,283.7,257.8,284,258z"/>
			<path class="st18" d="M324.5,270.3c-0.6-1.7-2-2.5-4.3-2.3c-0.2,3.1,1.4,4.1,4.8,3.2c0.1,0,0.1-0.3,0.1-0.7
				C324.8,270.5,324.6,270.4,324.5,270.3z"/>
			<path class="st19" d="M306.5,263c0,0.4,0,0.9,0,1.3c3,2.4,6.8,3.8,11.2,4.4V268c-0.9-0.8-1.8-1.5-2.8-1.9
				c-0.7-0.3-1.2-0.7-1.5-1.1C312.1,263.2,309.8,262.6,306.5,263z"/>
			<path class="st20" d="M302.8,261.7c-0.4,0-0.9,0-1.3,0c-0.3,2.5,0.9,3.4,3.8,2.7c0.4-0.1,0.8-0.1,1.2-0.1c0-0.4,0-0.8,0-1.3
				c0-0.4-0.1-0.6-0.2-0.7c-0.7-0.3-1.5-0.5-2.3-0.5C303.6,261.7,303.2,261.7,302.8,261.7z"/>
			<path class="st21" d="M301.5,261.7c0.4,0,0.8,0,1.3,0c0.4,0,0.8,0,1.2,0c-0.4-0.4-0.8-0.6-1.2-0.5c-2.6,0.1-4.4-0.5-5.2-1.9
				c-0.3-0.4-0.6-0.7-1-0.7c-4.2,0-7.5-0.6-10-1.9c-0.4,0-0.9,0-1.3,0c-0.4,0-0.8,0-1.3,0c0,0.4,0,0.9,0,1.3
				c3.4,0.8,6.6,1.9,9.7,3.1c1,0.4,2.3,0.6,4,0.6C299.1,261.8,300.3,261.8,301.5,261.7z"/>
			<path class="st13" d="M266.6,243c0,0.4,0,0.9,0,1.3c0,0.4,0,0.8,0,1.3c1.7,1.6,3.2,3.6,4.2,6c0,0.1,0.3,0.2,0.7,0.2
				c0-0.4-0.1-0.8-0.2-1.1c-1-2.5-2.2-5.1-3.5-7.6C267.4,243,267,243,266.6,243z"/>
			<path class="st22" d="M271.6,240.6c0-0.4,0-0.9,0-1.3c-0.4,0-0.9,0-1.3,0.1c-2.1,0.3-3.8,1.1-5,2.4c0,1.3,0.2,2.5,0.6,3.6
				c0,0.1,0.2,0.2,0.7,0.2c0-0.4,0-0.9,0-1.3c0-0.4,0-0.8,0-1.3c0.4,0,0.8,0,1.3,0c0-0.4,0-0.8,0-1.3c1.3,0,2.5-0.1,3.5-0.5
				C271.5,241.2,271.6,241,271.6,240.6z"/>
			<path class="st23" d="M278.9,236.7c0.1-0.3,0.1-0.7,0.1-1.1c-0.4,0-0.8,0.1-1.1,0.2c-2.2,1-4.3,2.2-6.3,3.5c0,0.4,0,0.8,0,1.3
				C275.5,240.7,277.9,239.4,278.9,236.7z"/>
			<path class="st23" d="M286.6,226.8c-0.4,0-0.8,0.1-1,0.4c-1.7,1.6-3.4,3.1-5.3,4.6c0,0.8,0,1.7,0,2.5c0,0.4,0,0.8,0,1.3
				c2.9-1.7,4.9-4.3,6-7.6C286.5,227.7,286.6,227.3,286.6,226.8z"/>
			<path class="st24" d="M286.6,224.4c0,0.4,0,0.8,0,1.3c0,0.4,0,0.8,0,1.2c2.1-1.6,4.1-3.4,5.9-5.3c0.2-0.2,0.4-0.5,0.4-0.9
				c-0.4,0-0.9,0-1.3,0c-0.4,0-0.8,0.1-1.1,0.2C288.8,221.7,287.5,222.8,286.6,224.4z"/>
			<path class="st25" d="M305.2,208.1c-0.4,0-0.8,0-1.3,0c-0.4,0-0.7,0.1-1,0.3c-4,3.5-7.8,7.1-11.5,10.9c0,0.4,0,0.8,0,1.3
				c0.4,0,0.8,0,1.3,0c3.1-1.1,5.4-3.1,7-5.9c0.3-0.6,0.8-1.3,1.4-1.9C302.6,211.3,303.9,209.8,305.2,208.1z"/>
			<path class="st26" d="M307.8,199.4c-0.4,0-0.7,0-0.7,0.1c-0.8,2.8-1.8,5.3-3.1,7.3c0,0.4,0,0.9,0,1.3c0.4,0,0.9,0,1.3,0
				c0.9-1.2,1.6-2.5,2.2-3.9c0.2-0.3,0.3-0.7,0.3-1.1c0-0.4,0-0.8,0-1.3C307.8,201.1,307.8,200.3,307.8,199.4z"/>
			<path class="st8" d="M311.5,186.9c-0.4,0-0.6,0-0.6,0.1c-0.2,3.9-1.2,6.8-3.1,8.7c0,0.8,0,1.6,0,2.5c0,0.4,0,0.8,0,1.3
				c0,0.8,0,1.7,0,2.5c0,0.4,0,0.9,0,1.3c1.4-1,2-3.1,1.9-6.3c0-0.4,0.2-0.8,0.5-1.3C311.6,193.8,312.1,190.9,311.5,186.9
				 M57.1,326.6c0-0.4,0-0.9,0-1.3c0-0.4,0-0.8,0-1.3c-0.4,0-0.6,0-0.7,0.1c-0.6,3-2,5.1-4.3,6.1c0,0.4,0,0.8,0,1.3
				c0,0.4,0,0.8,0,1.2c2.2-1.1,3.8-2.8,4.8-5.1C57.1,327.4,57.1,327,57.1,326.6z"/>
			<path class="st27" d="M55.7,461.4c0.1,0.3,0.2,0.7,0.2,1.1c4.2,3.3,8.1,6.8,11.7,10.7c2.6,2.8,5.1,5.8,7.4,8.9
				c0.1,0.2,0.4,0.3,0.8,0.3c0-1.2-0.2-2.4-0.7-3.4c-0.3-0.6-0.7-1.3-1.2-2c-0.4-0.5-0.8-1-1.2-1.3c-1.3-1.2-2.6-2.5-3.9-3.8
				c-0.4-0.4-0.8-0.8-1.2-1.3c-0.4-0.4-0.8-0.9-1.3-1.3c-4.1-3.3-7.4-7.5-9.8-12.8c-0.7-1.6-1.1-3.3-1.1-5.3c0-2.2-1.1-3-3.3-2.5
				C52.8,453.6,53.9,457.7,55.7,461.4z"/>
			<path class="st7" d="M50.9,435c0,0.8,0,1.7,0,2.5c0,0.4,0,0.8,0,1.3c0,2.1,0.2,4.1,0.6,6.1c0,0,0.3,0.1,0.7,0.1
				c0.4,0,0.6,0,0.7-0.1C53.6,440.5,52.9,437.2,50.9,435 M206.9,9.5c1.2,0.3,2.5,0.4,3.6,0.4c0-0.4,0-0.8,0-1.3
				c-0.4,0-0.7-0.1-0.9-0.3c-1.7-2-4.8-2.7-9.1-2.2c-0.1,2.6,1.6,3.6,5.1,3.2C205.9,9.3,206.4,9.4,206.9,9.5z"/>
			<path class="st28" d="M48.1,432.6c0.8,2.2,1.7,4.3,2.8,6.2c0-0.4,0-0.9,0-1.3c0-0.8,0-1.7,0-2.5c0-0.4,0-0.8,0-1.2
				c0.1-4.2-1.1-7.1-3.7-8.8C47.1,428,47.4,430.5,48.1,432.6z"/>
			<path class="st29" d="M48,410.2c-0.1-0.5-0.2-0.9-0.1-1.3c0.3-4.1-0.7-6.6-3.1-7.5c0.5,5.3,1.1,10.7,1.9,16.1
				c0,0,0.2,0.1,0.6,0.1C48.6,416.1,48.8,413.7,48,410.2z"/>
			<path class="st27" d="M43.4,393.9c-0.4,0-0.9,0-1.3,0c0.7,1.8,1.3,3.9,1.9,6.1c0,0.1,0.2,0.1,0.7,0.1c0.2,0,0.3,0,0.4,0
				c0.1,0,0.1-0.1,0.1-0.1c0-0.1,0.1-0.2,0.1-0.3c0.6-2.5,0.4-4.5-0.7-5.8C44.3,393.9,43.8,393.9,43.4,393.9z"/>
			<path class="st30" d="M44.7,385.2c-0.4,0-0.8,0.1-1.2,0.3c-0.5,0.2-0.9,0.6-1.3,1c0,2.1,0,4.2,0,6.3c0,0.4,0,0.8,0,1.2
				c0.4,0,0.8,0,1.3,0c0.4,0,0.8,0,1.3,0c0-0.4,0-0.8-0.1-1.2c-0.3-1.7-0.7-3.3-1.1-5c0.4-0.4,0.7-0.9,1-1.4
				C44.6,386,44.7,385.6,44.7,385.2z"/>
			<path class="st31" d="M44,377.7c0.1,2.2-0.5,3.4-1.9,3.7c0,1.2,0,2.5,0,3.7c0,0.4,0,0.9,0,1.3c0.4-0.4,0.8-0.7,1.3-1
				c0.3-0.2,0.7-0.3,1.2-0.3c0-0.4,0-0.8,0.1-1.1c1.1-2.5,1-4.6-0.1-6.3H44z"/>
			<path class="st29" d="M49.1,365.2c0-0.4,0.1-0.8,0.5-1.3c1.8-2.3,1.8-4.3,0.1-6.2c-0.4,0-0.7,0-0.7,0.1
				c-0.8,5.8-2.2,10.7-4.3,14.9c0,0.8,0,1.6,0,2.5c0,0.4,0,0.8,0,1.3C47.9,374.7,49.4,370.9,49.1,365.2z"/>
			<path class="st32" d="M52.2,336.6c0,0.4,0,0.8-0.1,1.2c-0.2,1.4-1,2.3-2.4,2.5c0,1.7,0,3.3,0,5c0,0.4,0,0.8,0,1.3
				c2.3-2.3,3.3-5.6,3.1-10H52.2z"/>
			<path class="st29" d="M63.4,314.1c0,0.4-0.1,0.8-0.3,1.1c-1.4,2.6-3.4,4.7-6,6.4c0,0.4,0,0.8,0,1.2c0,0.4,0,0.9,0,1.3
				c0,0.4,0,0.9,0,1.3c0,0.4,0,0.8,0,1.3c3.2-3.1,5.6-6.9,7.3-11.3c0.1-0.3,0.2-0.7,0.2-1.2C64.2,314.1,63.8,314.1,63.4,314.1z"/>
			<path class="st16" d="M77.1,297.9c0-0.4,0-0.8,0-1.2c0-0.4,0-0.9,0-1.3c-2.1,1.6-3.7,3.7-5,6.3c-0.8,1.6-1.9,3.1-3.1,4.3
				c-0.4,0.4-0.6,0.7-0.6,0.7c-0.3,3.4-2,5.1-5,4.9c0,0.4,0,0.8,0,1.2c0,0.4,0,0.9,0,1.3c0.4,0,0.8,0,1.3,0
				c4.3-3.6,7.7-8.1,10.2-13.5c0.2-0.5,0.6-1,1-1.4C76.3,298.7,76.7,298.3,77.1,297.9z"/>
			<path class="st25" d="M82.1,291.7c0-0.4,0-0.9,0-1.3c-0.4,0-0.8,0.1-1.1,0.2c-1.3,0.7-2.6,1.4-3.9,2.2c0,0.4,0,0.9,0,1.3
				c0,0.4,0,0.8,0,1.3c0,0.4,0,0.8,0,1.3c0,0.4,0,0.8,0,1.2c1.3-2,2.9-3.8,4.7-5.4C82,292.4,82.1,292.1,82.1,291.7z"/>
			<path class="st24" d="M82.1,289.2c0,0.4,0,0.8,0,1.3c0,0.4,0,0.8,0,1.3c6-2.8,10.9-6.6,14.7-11.5c0.2-0.3,0.3-0.6,0.3-1
				c-0.4,0-0.7,0.1-1,0.3C91.6,283,87,286.2,82.1,289.2z"/>
			<path class="st18" d="M83.3,218.1c0-0.4,0-0.8-0.1-1.3c-0.2-2.7-1.5-4.3-3.6-5c0,2.9,0.9,4.9,2.6,6
				C82.6,218,82.9,218.1,83.3,218.1z"/>
			<path class="st11" d="M78.2,209.4c-1.2-4.9-2.9-9.4-4.8-13.7c-0.4,0-0.9,0-1.3,0c0.8,3.3,1.6,6.6,2.2,10c0.4,2.7,1.8,4.3,4.1,5
				C78.3,210.2,78.3,209.8,78.2,209.4 M433.7,335.3c-0.4,0-0.9,0-1.3,0c-0.4,3.3,0.4,5.3,2.5,6c0.4,0.1,0.8,0.2,1.2,0.2
				c0-0.4,0-0.9-0.1-1.3C435.8,338.2,435,336.5,433.7,335.3z"/>
			<path class="st33" d="M71.4,195.5c0,0.1,0.3,0.2,0.7,0.2c0.4,0,0.8,0,1.3,0c0-0.4,0-0.9,0-1.3c0-4.6-1.2-7.9-3.7-10
				C69.9,188.3,70.5,192,71.4,195.5z"/>
			<path class="st27" d="M67.1,179.5c0-0.4,0-0.9-0.1-1.3c-0.4-3.7-2-6.2-4.9-7.5c0.6,3.6,2,6.4,4.1,8.5
				C66.4,179.4,66.7,179.5,67.1,179.5 M270.3,31.1c1.4,3.2,3.4,5.8,6.1,7.7c9.7,6.9,16.9,16.3,21.8,28.3c0.5,1.4,1,2.8,1.4,4.1
				c0.9,3.1,2.2,5.8,3.8,8.1c0.8,1.2,1.2,2.6,1.3,4.2c0.3,3.8,1,6.8,2.2,9.1c0.5,1,1,2.1,1.3,3.2c0.4,1.8,0.9,3.5,1.5,5.3
				c0.3,1.1,0.5,2.3,0.4,3.6c3,3.1,3.5,6.9,1.5,11.4c-0.1,0.3-0.2,0.7-0.2,1.1c0.4,5,1,10,1.9,14.9c0,0,0.2,0.1,0.6,0.1
				c0-6.6-0.1-13.3-0.4-19.9c-0.2-6.5-1.4-12.4-3.3-17.4c-0.3-0.8-0.6-1.7-0.9-2.6C308.2,88,307,84,305.7,80c-0.3-1-0.7-2-1-3
				c-0.8-2.8-1.8-5.3-2.8-7.4c-2-4.4-4.3-8.5-6.7-12.3c-1.3-2.1-2.4-4.2-3.3-6.4c-0.3-0.7-0.7-1.3-1.1-1.7c-0.4-0.4-0.8-0.8-1.2-1.3
				c-1.2-1.2-2.5-2.5-3.7-3.8c-2.9-3.2-6-6.4-9.2-9.5C275,33,272.9,31.8,270.3,31.1z"/>
			<path class="st34" d="M55.9,143.3c-0.4,0-0.8,0-1.2,0c0,3.3,0.2,6.6,0.6,9.9c0,0,0.2,0.1,0.6,0.1c0-0.4,0-0.8,0-1.3
				C55.8,149.1,55.8,146.2,55.9,143.3z"/>
			<path class="st35" d="M57.1,143.3c0.4,0,0.6,0,0.7-0.1c1-4.3,0.8-7.5-0.7-9.8c0,2.9,0,5.8,0,8.7
				C57.1,142.5,57.1,142.9,57.1,143.3z"/>
			<path class="st12" d="M57.1,133.3c-0.4,0-0.8,0-1.3,0c0,2.9,0,5.8,0,8.7c0,0.4,0,0.8,0,1.3c0,2.9,0,5.8,0,8.7c0,0.4,0,0.9,0,1.3
				c0.4,0,0.9,0,1.3,0c0-0.4,0-0.8,0-1.3c0-2.9,0-5.8,0-8.7c0-0.4,0-0.9,0-1.3C57.1,139.1,57.1,136.2,57.1,133.3z"/>
			<path class="st10" d="M63.4,97.2c0,0.4-0.1,0.6-0.3,0.7c-0.6,0.3-1,0.6-1,0.7c-0.2,2.1-1.1,3.3-2.5,3.6c0,0.4,0,0.8,0,1.3
				c0,0.4,0,0.8,0,1.2c3,0.2,4.4-1.5,4.3-5c0-0.4,0.1-0.8,0.4-1.3c0.2-0.3,0.3-0.7,0.3-1.1C64.2,97.2,63.8,97.2,63.4,97.2z"/>
			<path class="st36" d="M78.3,72.3c0-0.4,0-0.9,0-1.3c-1.7,1.7-3.3,3.3-5,5c-0.4,0.4-0.7,0.9-0.9,1.4c-1,3.3-2.4,6.1-4.2,8.5
				c-0.4,0.5-0.6,1-0.7,1.4c-0.9,3.4-2.3,6.3-4.2,8.6c0,0.4,0,0.9,0,1.3c0.4,0,0.8,0,1.3,0c2.5-2,4.4-4.9,5.6-8.6
				c0.4-1.3,1-2.7,1.6-4c1.9-4,4.1-7.7,6.5-11.1C78.3,73.1,78.3,72.7,78.3,72.3z"/>
			<path class="st14" d="M82,66c0-0.4,0.1-0.8,0.1-1.3c-0.4,0-0.6,0.1-0.7,0.3c-0.6,1.2-1.6,2-3,2.2c0,0.8,0,1.7,0,2.5
				c0,0.4,0,0.9,0,1.3s0,0.8,0,1.3c0,0.4,0,0.8,0,1.3C80.3,71.7,81.5,69.2,82,66 M348.9,451.2c0,0.4,0,0.8,0,1.3
				c5.4,0,9.4-1.4,12.1-4.1c0.2-0.2,0.3-0.5,0.3-0.9c-0.4,0-0.8,0-1.3,0c-0.4,0-0.8,0-1.2,0.1C355.6,448.8,352.2,450,348.9,451.2z"
				/>
			<path class="st24" d="M313.9,172c-0.4,0-0.6,0.1-0.7,0.3c-0.8,1.8-1.8,3.3-3,4.7c0,1.2,0.2,2.4,0.6,3.6c0,0.1,0.3,0.1,0.7,0.1
				c1.6-1.6,2.5-4.1,2.5-7.4C313.9,172.8,313.9,172.4,313.9,172z"/>
			<path class="st37" d="M311.5,117.1c0-0.4,0.1-0.8,0.2-1.1c2-4.5,1.5-8.3-1.5-11.4c0.7,4.7,1,8.8,0.7,12.5H311.5z"/>
			<path class="st5" d="M269,29.8c-0.2-1.4-1-2.2-2.4-2.5c-0.4,0-0.9,0-1.3,0c-0.4,0-0.8,0-1.3,0c0.7,1.8,2,3,3.8,3.6
				c0.4,0.1,0.8,0.1,1.2,0.1C269.1,30.7,269,30.3,269,29.8z"/>
			<path class="st31" d="M85.6,60.9c0.1-0.3,0.2-0.7,0.2-1.1c0-0.4,0-0.8,0-1.2c0-0.4,0-0.9,0-1.3c-0.4,0-0.6,0-0.6,0.1
				C85,59.6,84,60.8,82.1,61c0,0.8,0,1.7,0,2.5c0,0.4,0,0.8,0,1.2C83.6,63.7,84.7,62.5,85.6,60.9z"/>
			<path class="st24" d="M92,49.8c-0.4,0-0.6,0.1-0.7,0.2c-1.1,2.7-3,4.7-5.5,6c0,0.4,0,0.8,0,1.3c0,0.4,0,0.8,0,1.3
				c0,0.4,0,0.8,0,1.2c3.1-1.9,5.1-4.8,6.1-8.7C92,50.7,92,50.2,92,49.8z"/>
			<path class="st11" d="M105.7,38.6c0,0.4,0,0.8,0,1.2c0,0.4,0,0.9,0,1.3c2.3-0.6,3.9-1.9,4.8-3.9c0.1-0.3,0.2-0.7,0.2-1.1
				c-0.4,0-0.8,0.1-1.1,0.2C108.3,37,107,37.8,105.7,38.6z"/>
			<path class="st25" d="M105.7,38.6c-0.4,0-0.7,0.1-1,0.3c-3.6,2.9-7.4,5.7-11.5,8.4c0,0.4,0,0.8,0,1.3c5-1.3,8.9-3.7,11.6-7.2
				c0.1-0.2,0.4-0.3,0.8-0.3c0-0.4,0-0.8,0-1.3C105.7,39.4,105.7,39,105.7,38.6z"/>
			<path class="st38" d="M196.5,7.2c0.2-0.3,0.3-0.6,0.3-1c-0.4,0-0.9,0-1.3,0.1c-2.1,0.3-3.8,1.1-5,2.4
				C192.8,10.5,194.8,10,196.5,7.2z"/>
			<path class="st39" d="M174.2,13.1c0.1,0,0.1-0.3,0.1-0.7c-0.4,0-0.8,0-1.3,0c-1.6,0-3.3,0-5,0c-0.4,0-0.7,0.1-0.8,0.3
				c-0.9,1.2-2.7,1.5-5.4,0.9c0,0.4,0,0.9,0,1.3C166.3,14.7,170.4,14.1,174.2,13.1z"/>
			<path class="st24" d="M168.1,11.2c0,0.4,0,0.8,0,1.3c1.7,0,3.3,0,5,0c0.4,0,0.9,0,1.3,0c5.2-0.6,10.1-1.7,14.8-3.1
				c0.1,0,0.1-0.2,0.1-0.7c-2.5,0-5,0-7.5,0c-0.8,0-1.5,0.2-2,0.6C177.2,11.2,173.3,11.8,168.1,11.2z"/>
			<path class="st14" d="M128.2,23.6c-1.6,0-2.9,0.4-3.9,1.1c-4.5,3.5-9,6.8-13.6,10.1c0,0.4,0,0.9,0,1.3c5.4-1.7,9.8-4.4,13.2-8.1
				c0.4-0.4,1-0.7,1.7-1C127.1,26.6,128,25.5,128.2,23.6z"/>
			<path class="st40" d="M144.4,16.1c0,0.4,0,0.8,0,1.3c0,0.4,0,0.8,0,1.2c6.1-0.6,11.5-1.8,16.3-3.5c0.3-0.1,0.7-0.2,1.1-0.2
				c0-0.4,0-0.8,0-1.3c-3.8-0.4-6.6,0.1-8.6,1.4C151.3,16.4,148.3,16.7,144.4,16.1z"/>
			<path class="st17" d="M256.6,22.4c-0.4,0-0.9,0-1.3,0c1.8,2.3,4.3,3.9,7.5,4.8c0.4,0.1,0.8,0.1,1.2,0.1c0.4,0,0.9,0,1.3,0
				c0.4,0,0.8,0,1.3,0c0-0.4-0.1-0.7-0.2-0.7C262.8,25.4,259.6,24,256.6,22.4z"/>
			<path class="st32" d="M242.9,16.1c0,0.4,0,0.8,0,1.3c3.8,1.6,7.5,3.2,11.3,4.8c0.4,0.1,0.8,0.2,1.2,0.2c0.4,0,0.8,0,1.3,0
				c-0.8-1.2-1.9-2.3-3.3-3.3C250.8,17.3,247.3,16.3,242.9,16.1z"/>
			<path class="st41" d="M225.5,12.4c0,0.4,0,0.8,0,1.2c4.9,1.8,10.3,3.1,16.2,3.7c0.4,0,0.8,0.1,1.2,0.1c0-0.4,0-0.9,0-1.3
				c-1-1-2.6-1.6-4.9-1.8c-0.4,0-0.9-0.1-1.3-0.1c-4.1,0-7-1-8.8-3.1c0,0.4-0.1,0.6-0.2,0.7C227.1,12.3,226.3,12.4,225.5,12.4z"/>
			<path class="st41" d="M210.5,8.6c0,0.4,0,0.9,0,1.3c2.4,0.4,4.9,1,7.4,1.7c2.4,0.7,4.9,1.4,7.6,2c0-0.4,0-0.8,0-1.2
				c0.8,0,1.6-0.2,2.2-0.5c0.1-0.1,0.2-0.3,0.2-0.7c-3.7,0.4-6.6,0-8.6-1.4C217.4,8.4,214.4,8,210.5,8.6z"/>
			<path class="st42" d="M455.8,431c0.2-0.2,0.3-0.5,0.3-1c0-0.4,0-0.8,0.1-1.2c0.5-2.7,0.1-4.3-1.3-5c0,0.8,0.1,1.6,0.2,2.5
				c0.4,2.7-0.1,4.1-1.6,4.3c-2.9,0.4-5.4,1-7.4,1.9c0.3,1.4,1.6,1.8,3.8,1.3c0.4,0,0.8-0.1,1.2-0.1
				C453,433.3,454.6,432.3,455.8,431z"/>
			<path class="st43" d="M453.6,413.8c-0.4,0-0.8,0-1.3,0c-0.8,4.6,0,7.7,2.2,9.2c0.2,0.1,0.3,0.4,0.3,0.8c1.4,0.6,1.9,2.3,1.3,5
				c-0.1,0.4-0.1,0.8-0.1,1.2c2.1-2.5,2.2-5,0.3-7.6c-0.5-0.7-0.8-1.5-0.9-2.4C455.4,417.3,454.8,415.2,453.6,413.8z"/>
			<path class="st44" d="M452.9,407.6c0,0,0.3,0.1,0.7,0.1c0-0.4,0-0.9,0.1-1.3c0.5-3.9,0.1-6.8-1.3-8.7
				C452.4,401,452.5,404.3,452.9,407.6z"/>
			<path class="st45" d="M451.1,396.4c-0.4,0-0.8,0-1.2,0c0.3,5.4,1.3,10.3,3,14.7c0.1,0.1,0.3,0.2,0.7,0.2c0-0.4,0-0.8,0-1.3
				c0-0.8,0-1.7,0-2.5c-0.4,0-0.6,0-0.7-0.1c-0.4-3.3-0.6-6.6-0.6-9.9c0-0.4,0-0.9,0-1.3C452,396.4,451.5,396.4,451.1,396.4z"/>
			<path class="st18" d="M451.1,388.9c-0.4,0-0.8,0-1.2,0c0,2.1,0,4.2,0,6.3c0,0.4,0,0.9,0,1.3c0.4,0,0.8,0,1.2,0c0.4,0,0.9,0,1.3,0
				c0-0.4,0-0.8-0.1-1.2C451.6,393.4,451.2,391.3,451.1,388.9z"/>
			<path class="st46" d="M426.2,436.3c-0.4,0-0.8,0-1.2,0c-2.1,0-4.2,0-6.3,0c0,0.4-0.1,0.7-0.3,1c-0.2,0.2-0.6,0.3-1,0.3
				c0,0.4,0,0.8,0,1.3c2.7,1.5,5.3,1.2,7.7-1c0.2-0.2,0.6-0.3,1-0.3C426.2,437.1,426.2,436.7,426.2,436.3z"/>
			<path class="st38" d="M437.8,435.6c0.5-0.4,1.2-0.5,2-0.4c4.8,0.5,8.6,0.1,11.2-1.3c-0.4,0-0.8,0-1.2,0.1c-2.2,0.5-3.5,0-3.8-1.3
				c-2.7,0.6-5.6,1-8.7,1.2c-0.8,0-1.5,0.3-1.9,0.7c-2,1.6-5.1,2.3-9.3,1.9c0,0.4,0,0.8,0,1.3C431.4,438.2,435.3,437.6,437.8,435.6z
				"/>
			<path class="st5" d="M406.2,436.3c0,0.4,0,0.8,0,1.3c4.4-0.6,7.8-0.3,10.1,1c0.3,0.2,0.7,0.3,1.1,0.3c0-0.4,0-0.9,0-1.3
				c0.4,0,0.7-0.1,1-0.3c0.2-0.2,0.3-0.6,0.3-1c-0.4,0-0.9,0-1.3,0C413.7,436.3,410,436.3,406.2,436.3z"/>
			<path class="st47" d="M406.2,437.6c-0.4,0-0.8,0-1.2,0.1c-3.3,0.7-7,1.1-11.2,1.1c0,0.4,0,0.8,0,1.2c4.7,0.1,8.8-0.4,12.2-1.8
				C406.1,438.2,406.2,437.9,406.2,437.6z"/>
			<path class="st48" d="M406.2,436.3c-0.4,0-0.8,0-1.2-0.1c-5.1-0.4-9.3,0-12.5,1.3c0,0.4,0,0.8,0,1.3c0.4,0,0.8,0,1.3,0
				c4.2,0,8-0.4,11.2-1.1c0.4-0.1,0.8-0.1,1.2-0.1C406.2,437.1,406.2,436.7,406.2,436.3z"/>
			<path class="st23" d="M377.6,441.1c-0.8,0.1-1.6,0.3-2.2,0.7c-1.4,0.9-3.2,1.5-5.4,1.8c-0.8,0.1-1.4,0.3-1.9,0.7
				c-1.8,1.4-4.5,2.1-8,1.9c0,0.4,0,0.8,0,1.3c0.4,0,0.9,0,1.3,0c4.2,0.4,7.3-0.2,9.2-1.9c0.5-0.4,1.2-0.7,2-0.8
				c2.1-0.2,3.9-0.8,5.4-1.8c0.6-0.3,1.3-0.6,2.1-0.7c2.9-0.4,5.5-0.9,7.7-1.5c1.9-0.6,3.9-0.9,6-0.9c0-0.4,0-0.8,0-1.2
				c-0.4,0-0.9,0-1.3,0c-1.2,0-2.4,0-3.7,0c-1.2,0-2.4,0.2-3.6,0.6C383,440.2,380.4,440.8,377.6,441.1z"/>
			<path class="st1" d="M331.4,457.5c0-0.4,0-0.6-0.1-0.7c-5.4-0.4-10.4-0.2-14.9,0.7c0,0.4,0,0.8,0,1.3c1.6,0,3.3,0,5,0
				c0.4,0,0.8,0,1.3,0c3.2,0.3,5.8,0,7.6-1C330.7,457.6,331,457.5,331.4,457.5z"/>
			<path class="st49" d="M340.1,453.8c0,0.4,0,0.8,0,1.2c2.8,0.3,4.8-0.1,6-1.5c0.2-0.2,0.3-0.6,0.3-1c-0.4,0-0.8,0-1.3-0.1
				C342.9,452.3,341.2,452.7,340.1,453.8z"/>
			<path class="st50" d="M338.6,456c0.2-0.2,0.3-0.6,0.3-1c-0.4,0-0.8,0.1-1,0.3c-1.2,0.8-2.9,1.2-5.2,1c0,0.4,0,0.9,0,1.3
				C334.9,459,336.9,458.5,338.6,456z"/>
			<path class="st27" d="M439.9,359c1.3,4.1,3.1,7.8,5.4,10.9c0.1,0.2,0.4,0.3,0.8,0.3c0-0.4,0-0.8-0.1-1.2c-0.7-4.3-2.3-7.6-4.9-10
				C440.7,359,440.3,359,439.9,359z"/>
			<path class="st17" d="M446.1,372.7c-0.4,0-0.8,0-1.2,0c0.4,2.4,1.3,4.4,2.8,5.9c0.1,0.2,0.4,0.3,0.9,0.3c0-0.4,0-0.8-0.1-1.2
				C448.2,375.6,447.4,373.9,446.1,372.7z"/>
			<path class="st13" d="M436.1,342.8c-0.4,0-0.8,0-1.2,0c0.5,5.7,2.3,10.2,5.3,13.4c0.2,0.2,0.5,0.3,0.9,0.3c0-0.4,0-0.9,0-1.3
				c0-0.8-0.2-1.4-0.6-1.7c-1-0.7-1.5-1.8-1.6-3.3C438.7,346.9,437.8,344.5,436.1,342.8z"/>
			<path class="st40" d="M428.7,325.3c0.4,0,0.8,0.1,1.3,0.1c0-0.4-0.1-0.7-0.4-0.9c-1.5-1.5-3-2.9-4.6-4.1
				C424.8,323.4,426,325,428.7,325.3z"/>
			<path class="st29" d="M432.6,333.7c0.2,0.2,0.6,0.3,1,0.3c0-0.4,0-0.8,0.1-1.2c0.3-4.1-1-6.6-3.8-7.5
				C429.6,329.5,430.5,332.3,432.6,333.7z"/>
			<path class="st41" d="M411.2,309.1c-0.4,0-0.8,0-1.3,0c1.7,2.5,4.2,4.1,7.5,4.8c0.4,0.1,0.8,0.1,1.3,0.1c0-0.4-0.1-0.7-0.3-1
				C416.7,311.1,414.3,309.8,411.2,309.1z"/>
			<path class="st19" d="M404.9,305.4c-0.2,2.7,1.1,4,3.8,3.8c0.4,0,0.8-0.1,1.2-0.1c0.4,0,0.9,0,1.3,0c0-0.4-0.1-0.6-0.2-0.7
				C409,307.2,407,306.2,404.9,305.4z"/>
			<path class="st6" d="M393.3,297.3c-1.2-1.4-3.1-2-5.7-1.9c4.2,4.1,9.2,7.3,15,9.7c0.3,0.1,0.7,0.2,1.2,0.2c0-0.8-0.2-1.5-0.7-1.9
				c-0.4-0.4-0.8-0.9-1.2-1.3c-0.4-0.4-0.9-0.7-1.3-1c-0.8-0.5-1.8-1-2.9-1.5c-1-0.4-2-0.8-3-1.3
				C394.1,298.1,393.6,297.7,393.3,297.3z"/>
			<path class="st32" d="M376.3,289.2c0,0.4,0,0.8,0,1.3c2.5,2.5,5.8,4.1,10,4.8c0.4,0.1,0.9,0.1,1.3,0.1c0-0.4-0.1-0.7-0.3-0.7
				C383.7,292.7,380,290.9,376.3,289.2z"/>
			<path class="st5" d="M351.4,281.7c-0.4,0-0.8,0-1.3,0c1.6,2.6,4.9,3.8,10,3.7l0.7,0.6c0.4,0.4,1,0.7,1.8,0.9
				c2.3,0.4,3.5-0.1,3.8-1.5c-0.4,0-0.8,0-1.3,0c-0.8,0-1.2-0.1-1.3-0.2c-0.2-1.6-1.1-2.4-2.5-2.2c-3.8,0.4-6.7,0-8.7-1.3
				C352.2,281.7,351.8,281.7,351.4,281.7z"/>
			<path class="st13" d="M343.9,280.5c1.1,1.4,3.2,1.8,6.3,1.2c0.4,0,0.9,0,1.3,0c0.4,0,0.8,0,1.3,0c-0.4-0.4-0.9-0.7-1.3-0.8
				c-1.1-0.3-2.3-0.6-3.5-1c-1.3-0.4-2.7-0.9-4.1-1.5c-0.7-0.3-1.2-0.6-1.4-1c-1.3-1.9-3.7-2.6-7.1-1.9c1.2,2.6,3.7,4,7.4,4.3
				C343,279.8,343.5,280,343.9,280.5z"/>
			<path class="st51" d="M334,275.4c-4-0.1-6.5-1.8-7.5-4.9c-0.4,0-0.8,0-1.3,0c0,0.4,0,0.6-0.1,0.7c-3.4,0.9-5-0.1-4.8-3.2
				c-0.4,0-0.8,0-1.3,0c-0.4,0-0.8,0-1.2,0v0.7c-4.5-0.5-8.2-2-11.2-4.4c-0.4,0-0.8,0-1.2,0.1c-2.9,0.7-4.1-0.2-3.8-2.7
				c-1.2,0-2.4,0-3.7,0c-1.7,0-3-0.2-4-0.6c-3.1-1.2-6.4-2.3-9.7-3.1c-0.3-0.1-0.6-0.3-0.9-0.4c-0.5-0.1-1-0.1-1.5-0.1
				c-6.4,0.8-9.7-1.1-10-5.8c-0.4,0-0.7-0.1-0.7-0.2c-1.1-2.4-2.5-4.4-4.2-6c-0.4,0-0.7-0.1-0.7-0.2c-0.3-1.1-0.5-2.3-0.6-3.6
				c1.2-1.3,2.9-2.1,5-2.4c0.4,0,0.8-0.1,1.3-0.1c2-1.3,4.1-2.5,6.3-3.5c0.3-0.1,0.7-0.2,1.1-0.2c0.4,0,0.9,0,1.3,0
				c0-0.4,0-0.9,0-1.3c0-0.8,0-1.7,0-2.5c1.8-1.5,3.6-3,5.3-4.6c0.2-0.2,0.5-0.4,1-0.4c0-0.4,0-0.8,0-1.2c0-0.4,0-0.9,0-1.3
				c1-1.5,2.3-2.7,3.9-3.5c0.3-0.1,0.7-0.2,1.1-0.2c0-0.4,0-0.9,0-1.3c3.7-3.8,7.5-7.5,11.5-10.9c0.2-0.2,0.6-0.3,1-0.3
				c0-0.4,0-0.8,0-1.3c1.3-2,2.3-4.5,3.1-7.3c0-0.1,0.2-0.1,0.7-0.1c0-0.4,0-0.9,0-1.3c0-0.8,0-1.7,0-2.5c1.9-1.9,2.9-4.8,3.1-8.7
				c0,0,0.2-0.1,0.6-0.1c0-0.4,0-0.8,0-1.3c0-1.6,0-3.3,0-5c-0.4,0-0.6,0-0.7-0.1c-0.3-1.1-0.5-2.3-0.6-3.6c1.1-1.3,2.1-2.9,3-4.7
				c0.1-0.2,0.3-0.3,0.7-0.3c0-2.1,0.1-4.2,0.1-6.3c0-0.8,0.1-1.4,0.6-1.7c0.9-0.7,1.5-1.8,1.7-3.3c0.1-0.8,0.3-1.6,0.6-2.3
				c0.8-2.2,1.5-4.8,2-7.7c0-0.8-0.2-1.4-0.6-1.9c-1.4-1.8-2.1-4.5-1.9-8c0-0.8-0.1-1.3-0.4-1.4c-2.4-0.9-3.1-3.4-2.1-7.3
				c-0.4,0-0.6,0-0.6-0.1c-0.8-4.9-1.5-9.9-1.9-14.9h-0.6c0.3-3.7,0.1-7.8-0.7-12.5c0-1.2-0.1-2.4-0.4-3.6c-0.5-1.7-1-3.5-1.5-5.3
				c-0.3-1.1-0.7-2.2-1.3-3.2c-1.2-2.3-1.9-5.3-2.2-9.1c-0.1-1.6-0.5-3.1-1.3-4.2c-1.6-2.3-2.9-5-3.8-8.1c-0.4-1.3-0.9-2.7-1.4-4.1
				c-4.9-12-12.1-21.4-21.8-28.3c-2.7-1.9-4.7-4.4-6.1-7.7c-0.1,0-0.3,0-0.4,0c-0.3,0-0.6,0-0.8,0c-0.4,0-0.8,0-1.2-0.1
				c-1.8-0.6-3.1-1.8-3.8-3.6c-0.4,0-0.8,0-1.2-0.1c-3.2-0.9-5.7-2.5-7.5-4.8c-0.4,0-0.8-0.1-1.2-0.2c-3.8-1.5-7.5-3.1-11.3-4.8
				c-0.4,0-0.8,0-1.2-0.1c-6-0.6-11.4-1.9-16.2-3.7c-2.7-0.6-5.2-1.3-7.6-2c-2.5-0.7-4.9-1.3-7.4-1.7c-1.2,0-2.4-0.1-3.6-0.4
				c-0.5-0.1-0.9-0.1-1.3-0.1c-3.5,0.4-5.2-0.6-5.1-3.2c-0.4,0-0.9,0-1.3,0c-0.8,0-1.7,0-2.5,0c0,0.4-0.1,0.7-0.3,1
				c-1.7,2.8-3.7,3.2-6,1.4c-0.4,0-0.9,0-1.3,0c0,0.4,0,0.7-0.1,0.7c-4.7,1.4-9.6,2.5-14.8,3.1c0,0.4,0,0.6-0.1,0.7
				c-3.8,1-7.9,1.6-12.4,1.8c-0.4,0-0.8,0.1-1.1,0.2c-4.8,1.7-10.2,2.9-16.3,3.5c-0.4,0-0.9,0-1.3,0c-0.8,0-1.4,0.2-1.7,0.7
				c-0.7,1-1.8,1.5-3.3,1.4c-4.7-0.2-8,0.7-10,2.9c-0.2,1.9-1.1,3-2.6,3.4c-0.7,0.2-1.3,0.6-1.7,1c-3.4,3.7-7.8,6.4-13.2,8.1
				c0,0.4-0.1,0.8-0.2,1.1c-0.9,2-2.5,3.3-4.8,3.9c-0.4,0-0.7,0.1-0.8,0.3c-2.7,3.5-6.6,5.9-11.6,7.2c0,0.4-0.1,0.7-0.3,0.9
				c-0.2,0.2-0.5,0.3-1,0.3c0,0.4,0,0.9-0.1,1.3c-1,3.9-3,6.8-6.1,8.7c0,0.4-0.1,0.8-0.2,1.1c-0.8,1.6-2,2.9-3.5,3.9
				c0,0.4,0,0.9-0.1,1.3c-0.4,3.2-1.7,5.7-3.6,7.5c-2.4,3.4-4.5,7.1-6.5,11.1c-0.6,1.3-1.2,2.7-1.6,4c-1.2,3.7-3.1,6.5-5.6,8.6
				c0,0.4-0.1,0.8-0.3,1.1c-0.2,0.5-0.4,0.9-0.4,1.3c0.1,3.5-1.3,5.2-4.3,5c0,1.3,0.1,2.5,0.3,3.7c0.7,5.6-0.2,9.3-2.8,11.3
				c0,4.1,0,8.3,0,12.4c0,0.4,0,0.8,0,1.3c1.5,2.3,1.7,5.6,0.7,9.8c0,0.1-0.3,0.1-0.7,0.1c0,2.9,0,5.8,0,8.7c0,0.4,0,0.9,0,1.3
				c-0.3,4.1,0.3,7.1,2.1,9.1c1.8,2,2.8,4.8,2.9,8.3c2.9,1.3,4.5,3.8,4.9,7.5c0,0.4,0.1,0.8,0.1,1.3c-0.1,2.2,0.6,3.6,2.3,4.2
				c0.1,0,0.2,0.3,0.2,0.7c2.5,2,3.8,5.4,3.7,10c0,0.4,0,0.8,0,1.3c2,4.3,3.6,8.8,4.8,13.7c0.1,0.4,0.1,0.8,0.1,1.3
				c0.4,0,0.7,0.1,0.9,0.3c0.2,0.2,0.4,0.5,0.4,0.9c2.2,0.6,3.4,2.3,3.6,5c0,0.4,0.1,0.9,0.1,1.3c0.4,0,0.7,0.1,0.9,0.3
				c0.2,0.2,0.4,0.5,0.4,1c2,1.3,3.6,3,4.7,5.1c0.2,0.3,0.3,0.7,0.3,1.1c3,1.1,5.6,2.5,8,4.2c1.1,0.8,1.8,1.9,2,3.3
				c1.8-0.5,2.6-0.1,2.5,1.3c0,0.4-0.1,0.8-0.1,1.3c3.2,1.7,6,3.8,8.4,6.5c0.2,0.2,0.3,0.6,0.3,1c2.3,0.6,3.9,1.9,4.8,3.9
				c0.2,0.3,0.3,0.7,0.3,1.1c0.4,0,0.7,0.1,0.9,0.3c0.2,0.2,0.3,0.6,0.3,1c4.4,1.9,7.7,4.8,9.7,8.9c0.1,0.3,0.2,0.7,0.2,1.1
				c0,1.2,0.1,2.5,0.1,3.7c0,0.4-0.1,0.9-0.1,1.3h0.7c-0.3,2.9-1.7,4.8-4.1,5.8c-0.5,0.2-1,0.3-1.6,0.4c-3.7,2-7.5,3.9-11.4,5.7
				c-0.7,0.3-1.3,0.7-1.9,1c-2.8,2-5.5,2.2-7.9,0.7c-0.4,0-0.8,0.1-1.1,0.2c-0.8,0.3-1.7,0.6-2.6,1c0,0.4-0.1,0.7-0.3,1
				c-3.8,4.9-8.7,8.7-14.7,11.5c0,0.4-0.1,0.7-0.3,0.8c-1.8,1.5-3.4,3.3-4.7,5.4c-0.4,0.4-0.8,0.9-1.3,1.3c-0.4,0.4-0.7,0.9-1,1.4
				c-2.5,5.5-5.9,10-10.2,13.5c0,0.4-0.1,0.8-0.2,1.2c-1.7,4.4-4.1,8.2-7.3,11.3c0,0.4-0.1,0.8-0.2,1.1c-1,2.3-2.6,4-4.8,5.1
				c0,0.8,0,1.7,0,2.5c0,0.4,0,0.8,0,1.3h0.6c0.2,4.4-0.8,7.7-3.1,10c0,3.3,0,6.6,0,10c0,0.4,0,0.8,0,1.3c1.7,1.8,1.7,3.9-0.1,6.2
				c-0.4,0.4-0.6,0.9-0.5,1.3c0.2,5.7-1.2,9.5-4.4,11.2c0,0.4,0,0.8,0,1.3c1.2,1.7,1.2,3.8,0.1,6.3c-0.1,0.3-0.1,0.7-0.1,1.1
				c0,0.4-0.1,0.8-0.3,1.1c-0.2,0.5-0.6,1-1,1.4c0.4,1.6,0.8,3.3,1.1,5c0.1,0.4,0.1,0.8,0.1,1.2c1,1.3,1.3,3.3,0.7,5.8
				c0,0.1,0,0.2-0.1,0.3c0,0,0,0.1-0.1,0.1c-0.1,0-0.2,0-0.4,0c0,0.2,0,0.5,0,0.7c0,0.2,0,0.4,0,0.6c2.4,0.9,3.4,3.4,3.1,7.5
				c0,0.4,0,0.8,0.1,1.3c0.8,3.4,0.6,5.9-0.8,7.4c0,2.1,0,4.2,0,6.3c0,0.4,0,0.8,0,1.2c2.6,1.6,3.8,4.6,3.7,8.8c0,0.4,0,0.8,0,1.2
				c2,2.2,2.7,5.5,1.9,9.9c0,0-0.3,0.1-0.7,0.1c0,0.8,0,1.7,0,2.5c0,0.4,0,0.8,0,1.3c2.2-0.5,3.3,0.3,3.3,2.5c0,1.9,0.4,3.7,1.1,5.3
				c2.4,5.3,5.7,9.5,9.8,12.8c0.5,0.4,0.9,0.8,1.3,1.3c0.4,0.4,0.8,0.9,1.2,1.3c1.2,1.3,2.5,2.6,3.9,3.8c0.4,0.3,0.8,0.8,1.2,1.3
				c0.5,0.7,0.9,1.4,1.2,2c0.5,1,0.7,2.2,0.7,3.4c0.4,0,0.8,0.1,1,0.3c0.2,0.2,0.3,0.5,0.3,1c2,0.8,4,1.8,6,2.9
				c0.2,0.1,0.3,0.4,0.3,0.8c1.7,2.8,4.6,4.6,8.6,5.4c0.5,0.1,0.9,0.4,1.1,0.9c0.4,0.9,1.8,1.1,4.1,0.5c1.5-0.4,2.7-0.2,3.6,0.7
				c0-0.4,0-0.9,0-1.3c1.3-2,2.3-2.7,3.1-1.9c0,0,0.2-0.1,0.7-0.4c2-1,4-1.9,6.1-2.7c3.6,0.2,6.3-0.4,8-1.9c0.5-0.4,1.2-0.6,2-0.5
				c7.6,0.1,14.3-0.7,19.9-2.5c1.3,0,2.5,0,3.7,0c0.4,0,0.8,0,1.3,0c4.2,0,8.3-0.2,12.4-0.6c0.5,0,1-0.1,1.5-0.3
				c2.3-0.7,4.8-1.3,7.3-1.7c3.1-0.5,5.2-0.1,6.3,1.3c0.8,0,1.7,0,2.5,0c0.4,0,0.8,0,1.2,0c0-0.4,0-0.8,0-1.3
				c4.2,0.4,7.3-0.2,9.3-1.9c0.5-0.4,1.1-0.6,1.9-0.5c2.3,0.1,3.9-0.3,5-1.3c5.2-2.3,11-4,17.5-4.9c0.4,0,0.8-0.1,1.3-0.1
				c0-0.4,0-0.8,0-1.3c5-0.6,8.7-0.9,11.2-0.9c5.5,0.1,10.1,0.2,13.8,0.3c0.4,0,0.8,0,1.3-0.1c3.3-0.7,6.5-1.3,9.8-1.8
				c4.4-0.5,7.7-0.1,10,1.3c0.4,0,0.9,0,1.3,0c0-0.4,0-0.8,0-1.2c3.5-1.1,6.9-2.3,10-3.6c0.4-0.1,0.8-0.2,1.2-0.2c0-0.4,0-0.8,0-1.2
				c4.7,0.5,8.4,0.1,11.3-1c0.3-0.1,0.7-0.2,1.2-0.2c0-0.4,0-0.8,0-1.3c2.1,0,4.1,0,6.2,0c0.4,0,0.9,0,1.3,0
				c6.1,0.6,10.8,0.1,14.1-1.6c1-0.5,2.2-0.8,3.3-0.8c2.8,0,5.7,0,8.7,0c0-0.4,0-0.9,0-1.3c4.5-0.9,9.5-1.1,14.9-0.7
				c0,0,0.1,0.3,0.1,0.7c0.4,0,0.8,0,1.3,0c0-0.4,0-0.8,0-1.3c2.3,0.2,4-0.1,5.2-1c0.2-0.2,0.6-0.3,1-0.3c0.4,0,0.8,0,1.2,0
				c0-0.4,0-0.8,0-1.2c1.1-1,2.8-1.5,5-1.3c0.4,0,0.9,0.1,1.3,0.1c0.4,0,0.8,0,1.3,0c0.4,0,0.8,0,1.3,0c0-0.4,0-0.9,0-1.3
				c3.3-1.2,6.6-2.4,10-3.6c0.4-0.1,0.8-0.1,1.2-0.1c0-0.4,0-0.9,0-1.3c3.6,0.2,6.3-0.4,8-1.9c0.5-0.4,1.1-0.6,1.9-0.7
				c2.1-0.3,3.9-0.9,5.4-1.8c0.6-0.4,1.3-0.6,2.2-0.7c2.9-0.3,5.4-0.9,7.7-1.7c1.2-0.4,2.4-0.6,3.6-0.6c1.3,0,2.5,0,3.7,0
				c0-0.4,0-0.9,0-1.3c3.2-1.3,7.4-1.8,12.5-1.3c0.4,0,0.8,0.1,1.2,0.1c3.8,0,7.5,0,11.2,0c0.4,0,0.8,0,1.3,0c2.1,0,4.2,0,6.3,0
				c0.4,0,0.8,0,1.2,0c4.2,0.4,7.3-0.2,9.3-1.9c0.4-0.4,1.1-0.6,1.9-0.7c3.1-0.2,6-0.6,8.7-1.2c2-0.9,4.5-1.5,7.4-1.9
				c1.5-0.2,2-1.6,1.6-4.3c-0.1-0.8-0.2-1.7-0.2-2.5c0-0.4-0.1-0.7-0.3-0.8c-2.3-1.5-3-4.6-2.2-9.2c0.4,0,0.9,0,1.3,0
				c0-0.4,0-0.8,0-1.2c0-0.4,0-0.9,0-1.3c-0.4,0-0.6-0.1-0.7-0.2c-1.6-4.4-2.6-9.3-3-14.7c0-0.4,0-0.8,0-1.3c0-2.1,0-4.2,0-6.3
				c0.4,0,0.8,0,1.2,0c0-0.4-0.1-0.7-0.3-0.9c-1.8-1.9-2.5-4.9-2.2-9.1c-0.4,0-0.7-0.1-0.9-0.3c-1.5-1.5-2.4-3.4-2.8-5.9
				c0.4,0,0.8,0,1.2,0c0-0.4,0-0.9,0-1.3c0-0.4,0-0.9,0-1.3c-0.4,0-0.7-0.1-0.8-0.3c-2.3-3.2-4.1-6.8-5.4-10.9c0.4,0,0.8,0,1.2,0
				c0-0.4,0-0.8,0-1.2c0-0.4,0-0.9,0-1.3c-0.4,0-0.7-0.1-0.9-0.3c-3-3.2-4.7-7.7-5.3-13.4c0.4,0,0.8,0,1.2,0c0-0.4,0-0.9,0-1.3
				c-0.4,0-0.8-0.1-1.2-0.2c-2.1-0.7-3-2.7-2.5-6c0.4,0,0.8,0,1.3,0c0-0.4,0-0.8,0-1.3c-0.4,0-0.8-0.1-1-0.3c-2.1-1.4-3-4.2-2.7-8.4
				c-0.4,0-0.9,0-1.3-0.1c-2.7-0.2-3.9-1.9-3.7-4.9c-0.4,0-0.8-0.1-1.1-0.3c-2.2-1.4-3.9-3.4-5.1-6c-0.4,0-0.9,0-1.3-0.1
				c-3.3-0.7-5.8-2.3-7.5-4.8c-0.4,0-0.8,0-1.2,0.1c-2.7,0.2-4-1.1-3.8-3.8c-0.4,0-0.8,0-1.2,0c-0.4,0-0.8-0.1-1.2-0.2
				c-5.8-2.4-10.8-5.7-15-9.7c-0.4,0-0.8,0-1.3-0.1c-4.2-0.7-7.5-2.4-10-4.8c-0.8,0-1.6-0.1-2.4-0.4c-0.5-0.2-1-0.3-1.4-0.3
				c-3.1-0.2-4.8-1.6-4.9-4.3c-0.4,0-0.9,0-1.3,0c-0.2,1.4-1.5,1.9-3.8,1.5c-0.8-0.1-1.4-0.4-1.8-0.9l-0.7-0.6
				c-5.1,0.1-8.4-1.1-10-3.7c-3.1,0.6-5.2,0.2-6.3-1.2c-0.4-0.5-0.8-0.7-1.3-0.7c-3.8-0.3-6.3-1.7-7.4-4.3
				C334.8,275.5,334.4,275.5,334,275.4z"/>
			<path class="st33" d="M334.9,274.5c-2-2-4.8-3.4-8.4-4c1,3.1,3.5,4.8,7.5,4.9c0.4,0,0.8,0.1,1.2,0.1
				C335.1,275,335,274.7,334.9,274.5z"/>
		</g>
	</g>
</g>
</svg>
