<svg id="Layer_1" data-name="Layer 1" xmlns="http://www.w3.org/2000/svg" viewBox="0 0 676.41 667.75"><defs><style>.cls-1{fill:#da327c;}.cls-1,.cls-2,.cls-3{fill-rule:evenodd;}.cls-2{fill:#09a89d;}.cls-3{fill:#221f20;}</style></defs><path class="cls-1" d="M171.91,204.54c2.67,4.19,4.92,7.61,4.5,12.23-.22,2.37-2.11,3.18-2.95,4.86-.06.12-.63.05-.94,0-5.23-1.14-10.34-2.54-15-5.29-6.23-3.65-12.58-7.11-18.86-10.68s-12.37-7-18.5-10.6c-10.94-6.4-21.89-12.8-31.39-21.32-3-2.68-6.18-5.19-8.71-8.25-3.68-4.44-6.87-9.34-7.84-15.21a7.69,7.69,0,0,1,.64-4.39c1.36-2.78,2.74-5.74,4.85-7.9a9.81,9.81,0,0,1,6.25-2.41,24.71,24.71,0,0,1,8.94,1.38,38.69,38.69,0,0,1,9.16,4.8c6.22,4.39,12.24,9,18.28,13.69,3.12,2.39,6.15,4.89,9.12,7.46,2.53,2.18,4.93,4.51,7.36,6.82,2.69,2.56,5.33,5.2,8,7.77,4.85,4.59,9.84,9,14.57,13.76,4.49,4.48,8.72,9.24,12.52,13.3Zm-2,10.85.4-.51c-.22-.5-.42-1-.68-1.5-3.62-6.4-9.29-11-14.26-16.24-5.41-5.66-11.3-10.86-17-16.3-3.57-3.43-6.95-7.09-10.67-10.35s-8-6.41-12-9.53c-5.68-4.39-11.24-9-17.16-13-4.6-3.14-9.65-5.65-15.48-5.77a5.16,5.16,0,0,0-5.35,4.62c-.75,4.69,2.07,8,4.52,11.26A54.23,54.23,0,0,0,91,166.64c5.28,4.35,10.69,8.58,16.24,12.59,3.85,2.78,8,5.12,12.06,7.64,2.81,1.76,5.62,3.54,8.47,5.23,5.44,3.21,10.9,6.37,16.35,9.56,5.76,3.38,11.47,6.86,17.31,10.09a88.31,88.31,0,0,0,8.4,3.64Zm0,0" transform="translate(-11.17 -15.5)"/><path class="cls-1" d="M201.1,222.91c3.46,4.44,2.72,11.59,0,15.26-3.46,4.75-8.4,6.42-14,5.46-5-.87-8.82-3.84-9.85-9-.86-4.3-1.13-8.87,1.63-12.71a23.81,23.81,0,0,1,5.15-4.63c.58-.45,1.65-.29,2.5-.34.48,0,1,.25,1.44.1,4.32-1.6,7.48.71,10.56,3.14a20.84,20.84,0,0,1,2.54,2.76Zm-16,12.43a10.83,10.83,0,0,0,1.15,1.6c3,2.82,7.47,3.21,9.59-1.15,1.63-3.34.92-8.6-2.63-11.25-.62-.46-1.2-1-1.81-1.46-1.95-1.59-6.58-1.13-7.19,1-1.1,3.78-1.77,7.7.89,11.27Zm0,0" transform="translate(-11.17 -15.5)"/><path class="cls-2" d="M620.61,191.83c2.76,0,4.84,1.29,6.95,2.85a8.88,8.88,0,0,1,3.5,5.86c1.26,7.67-.71,11-7.95,13.56a17.38,17.38,0,0,1-17.61-3.17,22,22,0,0,1-8.13-17.77,23.85,23.85,0,0,1,4.63-14,40.05,40.05,0,0,1,7.61-7,41,41,0,0,1,8-4.94,46.22,46.22,0,0,1,17-3.73,60.21,60.21,0,0,1,7.48.12c7.75.62,13.72,5,19.69,9.41,3.64,2.7,7.29,5.4,9.59,9.41a59.25,59.25,0,0,1,2.75,6.31,20.84,20.84,0,0,1,1.78,4.32c.53,3.07.4,6.27,1.13,9.28.87,3.6-.23,7-.25,10.53a10.37,10.37,0,0,1-.92,3.13c-1.26,3.54-2.37,7.14-3.87,10.57a37,37,0,0,1-8.7,12.47,64.32,64.32,0,0,1-17.2,12.07A48.91,48.91,0,0,1,628,255.88c-5.68.24-11.36,1-17,.95a57.12,57.12,0,0,1-16.26-2.5,114.18,114.18,0,0,0-11.41-2.76c-4.84-1-9.7-2-14.61-2.52-6.3-.64-12.62-1.42-19-.49a46.76,46.76,0,0,1-5.55,0c-1.15,0-2.35.53-3.44.33-2.45-.44-3.56-2.6-4.58-4.51-2-3.74-1-6.94,2.47-10,3.29-2.95,7.26-3.84,11.44-4.24,5.81-.55,11.63-1.32,17.46-1.47,7.28-.19,14.59-.07,21.86.33,11.72.65,23.42,1.32,35-1.13a34,34,0,0,0,17.06-9.4,82.83,82.83,0,0,0,7.37-8.19c4.22-5.51,3.91-8.91.28-14.78-5.9-9.55-19.28-11-28.12-4.35-.13.1-.15.33-.33.75ZM540.37,242a31.41,31.41,0,0,0,3.2.23c3.21-.08,6.42-.3,9.63-.33,1.81,0,3.63.44,5.44.36,10.46-.47,20.38,2.54,30.45,4.57,5.41,1.08,10.81,2.22,16.26,3a72.62,72.62,0,0,0,27.42-1.68c6.43-1.57,12.65-3.65,17.92-7.92,1.83-1.48,4-2.61,5.71-4.17,2.73-2.4,5.8-4.68,7.71-7.67,2.53-3.93,4.17-8.45,6-12.79a30.18,30.18,0,0,0,1.71-19.12c-1.65-7-4.78-13.24-11.24-17.2-3.46-2.13-6.76-4.54-10.37-6.38-3.91-2-8.27-2.08-12.63-1.93-10.34.37-20,2.5-27.79,10-2.11,2-4.77,3.55-5.55,6.69-.44,1.79-1.06,3.54-1.54,5.32-1.44,5.32,1.44,11.71,6.43,13.94s10.26,2.69,15.16-.74a4.64,4.64,0,0,0,1.89-4.69,3.09,3.09,0,0,0-2.75-2.95,35.86,35.86,0,0,0-7-.24,4,4,0,0,1-4.15-1.95c-.88-1.4-1.11-2.72.21-4.05.49-.5.62-1.32,1.06-1.88,1.53-1.93,2.81-4.26,4.75-5.62,6-4.19,12.57-5.45,19.63-2.93a1.79,1.79,0,0,0,.57.15c3.11-.19,5.49,1.36,7.68,3.27,2.48,2.16,5.31,3.78,6.88,7.07a49.06,49.06,0,0,1,3.38,11.26c.84,4-.41,7.66-2.68,11-2.82,4.19-6.5,7.54-10.17,10.93a33.61,33.61,0,0,1-17.32,8.82c-2.26.4-4.6.37-6.86.8-8.32,1.56-16.65.88-25,.38-7.53-.46-15.09-.74-22.63-.77-4.91,0-9.83.57-14.74.92-3.74.26-7.49.29-11,1.85a11.08,11.08,0,0,0-5.65,4.49Zm0,0" transform="translate(-11.17 -15.5)"/><path class="cls-2" d="M532.42,246.32a17.47,17.47,0,0,1,.23,8.88c-1.39,5.64-5.32,8.26-10.43,9.22-2.09.39-4.57-.52-6.71-1.28a16.59,16.59,0,0,1-4.6-2.88c-3.53-2.8-5.91-10.26-2.16-15.5a34.77,34.77,0,0,1,6.53-6.8c4.85-3.86,11-.82,13.93,3.13,1.17,1.58,2.07,3.35,3.21,5.23Zm-9,10.43c2.07-1.47,4.58-2.92,4.77-6.12s-2.27-5.09-4.3-6.94c-1.47-1.34-3.52-1.06-5.16.06a15.63,15.63,0,0,0-5.91,6.72c-.41,1-.65,2.53-.15,3.28a8.3,8.3,0,0,0,10.75,3Zm0,0" transform="translate(-11.17 -15.5)"/><path class="cls-3" d="M205.07,96.92c-.08-1.35-.07-1.94-.16-2.51-.84-5.52,1.28-9.2,6.31-11.38,1.81-.79,3.36-.21,4.9.38,2.5,1,5,1.93,6.79,4.14,1.44,1.77,1.5,3.94,1.87,6a15.4,15.4,0,0,1-1,8.6c-1.09,2.74-1.89,5.57-4,7.73a6,6,0,0,1-2.33,1.86c-3.79,1-7.58,2.45-11.61,1.45a82.63,82.63,0,0,1-10.26-2.81,28.14,28.14,0,0,1-16.56-16A67.77,67.77,0,0,1,174.75,77a28.73,28.73,0,0,1,.8-10.85c1.22-4.73,2.37-9.52,4.76-13.76,2-3.59,4.72-6.81,7.15-10.17a4.79,4.79,0,0,1,1.39-1.17c2.52-1.49,5-3.15,7.62-4.38,4.72-2.18,9.31-4.85,14.88-4.36,5.41.48,10.85-.1,16.26,1.2,3,.72,5.5,2.32,8.21,3.51a42.41,42.41,0,0,1,7.25,4.34A24.15,24.15,0,0,1,247,45.2a40.5,40.5,0,0,1,10.37,22c.93,7.21,1.46,14.57,0,21.79a63.21,63.21,0,0,0-.75,13.86c.13,5.46,0,10.94.36,16.37.49,7,1.9,13.85,6.5,19.59,1.26,1.57,2.36,3.37,1.92,5.56a4.23,4.23,0,0,1-1,2.12,7,7,0,0,1-9.16.3,15,15,0,0,1-4.79-6.52c-1.35-3.81-3.22-7.44-4.49-11.28-1.69-5.1-3.11-10.32-3.15-15.76-.05-7.18.28-14.37,0-21.53-.19-5.33.09-10.8-2-15.89a56.13,56.13,0,0,0-3.52-7A40.77,40.77,0,0,0,232.79,62a43.22,43.22,0,0,0-6.58-5.71c-1.78-1.31-3.89-2.18-5.8-3.32-5-3-10.47-2.85-16-2.43a16.07,16.07,0,0,0-13.76,9.11,18.12,18.12,0,0,0-2.37,8.06c0,1.7-.68,3.39-.77,5.1a21.85,21.85,0,0,0,.17,6.57,13.63,13.63,0,0,0,2.95,4.91c2,2.48,3.57,5.42,6.23,7.35,2.2,1.6,4.51,3,6.79,4.55.33.22.71.39,1.38.75Zm58,46.05a11.52,11.52,0,0,0-1.46-1.81c-3.63-2.87-5.09-7-6.23-11.18a48.14,48.14,0,0,1-1.21-15.11,61.39,61.39,0,0,0-.16-6.36,120.08,120.08,0,0,1,.14-18.19,110.66,110.66,0,0,0,.65-17c-.41-7.21-1.94-14.12-6.2-20.4a40.73,40.73,0,0,0-10-10.5,39.16,39.16,0,0,0-23.74-7.39c-4.54,0-9.22-.19-13.41,2.07-3.39,1.82-6.58,4-10,5.79A16.1,16.1,0,0,0,184.6,50a106.13,106.13,0,0,0-4.37,9.91,34.54,34.54,0,0,0-2.57,16,53.24,53.24,0,0,0,2.48,12.89,21.63,21.63,0,0,0,1.93,5c4,6.4,9.07,11.62,16.53,13.9,2.6.8,5.39,1.08,7.94,2,3.76,1.38,7.15.26,10.57-1a3.31,3.31,0,0,0,1.5-1.44,27.44,27.44,0,0,0,3.33-10.33,7.73,7.73,0,0,0-2.08-6.75,19.38,19.38,0,0,0-4.4-3.24,5,5,0,0,0-7,2.13c-1.3,2.59-.33,6.57,1.9,8.52.69.6,1.55,1.69,1.41,2.36a3,3,0,0,1-2.15,1.77,9.61,9.61,0,0,1-4.4-.37c-8.94-3.3-15-9.8-19.48-18-1-1.81-2.1-3.7-1.75-6,.59-3.91.81-7.89,1.58-11.76a24.87,24.87,0,0,1,2.77-8.23A22,22,0,0,1,202.9,47.2a32.81,32.81,0,0,1,19,1.9,24.83,24.83,0,0,1,3.66,2c1.81,1.09,3.83,2,5.31,3.44A66.63,66.63,0,0,1,242.8,70.59,15.73,15.73,0,0,1,245,76.81c.32,4,.93,8,1.08,12a75.49,75.49,0,0,1-.19,13.28,54.25,54.25,0,0,0,.35,14.46c1,8.12,4.14,15.59,7.73,22.87a20.43,20.43,0,0,0,1.92,3.12c1.84,2.46,4.48,2.64,7.19.4Zm0,0" transform="translate(-11.17 -15.5)"/><path class="cls-3" d="M280.88,157.16a8.69,8.69,0,0,1-3,12.83c-4.54,2.19-7.57,1.45-11-2.28a10,10,0,0,1-2.44-10c.53-1.94,2.32-3,4.18-3.62,1.63-.53,3.32-.86,5-1.23a3.91,3.91,0,0,1,4.34,1.31,36.3,36.3,0,0,0,3,3Zm-3.23,2.59c-3.22-3.66-4.85-3.63-8.87-1.45a2.11,2.11,0,0,0-1,1.69c.53,2.21.75,4.57,2.58,6.28a4.9,4.9,0,0,0,6.81.35,5.23,5.23,0,0,0,.47-6.87Zm0,0" transform="translate(-11.17 -15.5)"/><path class="cls-3" d="M310,136.73c-1.94,1.1-3.32,1.9-4.72,2.68-2.48,1.37-3.34,1.13-4.17-1.55-1.84-6-3.56-12.05-5.3-18.09-2.9-10-5.33-20.24-8.78-30.08-4.83-13.81-8.71-27.88-12.76-41.91-1.38-4.78-2.88-9.53-5.53-13.81-.89-1.43-2.14-2.8-2.53-4.37-1.5-6.1,2-13.42,8.85-14.06a6.45,6.45,0,0,1,6.79,3.51A68.34,68.34,0,0,1,284.78,26c1,2.42,1.89,4.86,2.84,7.29a7.58,7.58,0,0,1,.6,1.39c.52,3.08.68,6.25,1.53,9.23,1.17,4.12,1.62,8.33,2.37,12.5.27,1.48.51,3,.76,4.46.31,1.8.61,3.6.93,5.39.27,1.5.55,3,.85,4.48,1,4.85,2,9.69,3,14.54.22,1.08.15,2.22.34,3.31.29,1.68.68,3.35,1,5,.05.2.25.39.23.56-.53,4.46,1.9,8.46,2,12.82a15,15,0,0,0,.86,3.49c.14.49.48.92.58,1.41.65,3,1.18,6.12,1.91,9.14.52,2.13,1.31,4.2,1.95,6.3.48,1.54.87,3.1,1.39,4.61.22.65.74,1.19,1,1.83.4,1,.69,2,1,3ZM297.72,111c-.13,1.67-.52,3.39,1.13,5.42a10.51,10.51,0,0,0-1.18-5.36,4.73,4.73,0,0,0,0-.92c-1.11-6.18-2.29-12.35-3.35-18.54C293.16,84.75,291.39,78,290.68,71c-.64-6.24-1.89-12.43-3.13-18.59-1.31-6.46-2.76-12.9-4.46-19.27a96.42,96.42,0,0,0-4-10.8,5,5,0,0,0-3.06-3.19c-2.35-.74-3.79.89-4.91,2.28s-3,3-1.88,5.37c2.84,6,5.87,11.85,7.51,18.35,1.19,4.68,2.91,9.23,4.36,13.85.57,1.83,1.06,3.68,1.59,5.52,1,3.49,2,7,3,10.46.6,2,1.38,4,2,6,.74,2.48,1.29,5,2.1,7.45,1.62,4.84,4,9.41,4.78,14.53.05.29.19.58.27.87.45,1.64.91,3.28,1.33,4.93.24,1,.18,2.09,1.51,2.32Zm6.63,24.44c-.1-4-2-7-2.71-10.82-.59,2.68.94,8.75,2.71,10.82Zm-4.6-13.27.81-.11c-.22-.79-.43-1.58-.64-2.36l-.51.1c.11.79.23,1.58.34,2.37Zm0,0" transform="translate(-11.17 -15.5)"/><path class="cls-3" d="M310,162.29a6.8,6.8,0,0,1-6.16-2.73c-4.86-5.94-2.64-10.35,1.89-14.86.67-.67,2.3-.67,3.42-.51a33.39,33.39,0,0,1,4.9,1.36c3.73,1.11,6.84,6.94,5.27,10.35-1.64,3.56-5.24,6.79-9.32,6.39Zm-.35-3.26a5.66,5.66,0,0,0,5.78-4.11,4.92,4.92,0,0,0-1.55-5.47c-1.69-1.51-5.05-2.22-6.52-1.37a2.4,2.4,0,0,0-.7.57,6.46,6.46,0,0,0,.69,8.83,6.3,6.3,0,0,0,2.3,1.55Zm0,0" transform="translate(-11.17 -15.5)"/><path class="cls-3" d="M452.45,68.75c-2.23,5.67-4.34,11.38-6.72,17-2.16,5.1-4.67,10.05-6.88,15.13-3.05,7-5.79,14.12-9,21-1.52,3.28-1.9,7.09-4.76,9.82a10.76,10.76,0,0,1-10,3c-2.07-.45-4-2.56-5.45-4.36-.71-.88-.56-2.9-.13-4.19,3.69-11.14,7.61-22.21,11.29-33.35,3.05-9.24,5.83-18.57,8.79-27.84,2.27-7.13,4.9-14.15,6.83-21.37.87-3.26,2.82-4.95,5.27-6.72a8.78,8.78,0,0,1,8.63-1.37,35.07,35.07,0,0,1,4.54,1.53,9,9,0,0,1,4.75,10.8c-1.5,5.87-3.74,11.55-5.7,17.3-.42,1.21-1,2.35-1.56,3.53l.06,0Zm-36.14,59.34.62.36a10.9,10.9,0,0,0,4.5-5.82c2.39-5.93,4.59-11.94,7.14-17.8,3.72-8.54,7.8-16.94,11.52-25.49q4.94-11.39,9.35-23c1.6-4.18,3.29-8.37,3-13.06-.13-2.08-1.19-2.65-2.84-2.77-1.47-.1-5.14,2.52-5.68,3.93-1,2.53-2.09,5-2.88,7.62-2.47,8.16-4.61,16.41-7.25,24.51-3.56,10.93-7.47,21.74-11.18,32.62-2.15,6.28-4.21,12.58-6.3,18.87Zm0,0" transform="translate(-11.17 -15.5)"/><path class="cls-3" d="M396.26,147.17c2.59-6.92,10.82-9.44,15.51-8,5.45,1.62,9.1,10.37,6.73,15.86-2.45,5.71-9.37,8.92-14.37,7.05s-9.54-10.47-7.87-14.86Zm6.84,1.47c-.08,1.6-.5,2.85-.11,3.75.62,1.41,1.53,3.23,2.77,3.7,2,.78,5.36-2.45,5.37-4.72,0-1.51,0-3-.09-4.54-.06-2.16-1.21-3-3.09-2a38.86,38.86,0,0,0-4.85,3.76Zm0,0" transform="translate(-11.17 -15.5)"/><path class="cls-3" d="M345.92,52.47c2.24.91,4.36,1.35,6,2.5,3.17,2.27,5.13,5.37,4.06,9.51-.89,3.41-4.63,6-9.26,6.07-4.95.12-9.72-.82-13.88-3.83-3.64-2.64-6.8-10.48-5.69-14.83A40.38,40.38,0,0,1,337.9,33.41a34.94,34.94,0,0,1,23.7-10.36c8.57-.47,16.55,1.45,23.51,6.82,5,3.84,7.68,9.31,10.95,14.43,3.12,4.88,3,10.18,3,15.51-.06,7.93-3.09,14.93-7.71,21.13-2.1,2.83-5.11,5.06-7.95,7.24-6.89,5.28-12.26,12-18,18.36a34.87,34.87,0,0,0-8.52,17.24c0,.07,0,.16,0,.23-.42,1.22-5.44,4.43-6.74,4.13-2.66-.62-5.55-2.19-5.93-5.65-1.17-10.88,3.35-19.53,9.92-27.56,3.95-4.83,7.55-10,11.58-14.72a37.93,37.93,0,0,0,7.69-15c1.57-5.93,1.18-11.6-2.34-16.86-4.68-7-15.88-8.06-21-1.38-1.39,1.83-2.74,3.69-4.11,5.54ZM351,119.09c2-3.81,3.43-7.94,6-11.25,6.7-8.77,13.52-17.49,22.4-24.28,1.91-1.46,4.2-2.73,5.48-4.64,5.37-8,8.76-16.49,7.1-26.61-1.05-6.38-4.26-11.51-8-16.16-5.51-6.88-13.39-9.12-22.09-8.23-9.38,1-17.37,4.73-22.62,12.76-2.88,4.4-6.19,9-5.2,14.76A21.15,21.15,0,0,0,336.51,63c1.87,3,5.45,3.13,8.66,3.19a3.85,3.85,0,0,0,4.15-3.32,7.23,7.23,0,0,0-1.78-4.65c-1.38-1.63-3.18-.56-4.84.16a9.78,9.78,0,0,1-4.05,1c-1.29,0-2-.69-1.68-2.59,1.1-5.77,4.31-10.21,8.41-14A18.63,18.63,0,0,1,358,37.44a22.83,22.83,0,0,1,13.34,3.73c5.47,3.51,8.07,8.56,9.39,14.22,1.8,7.78-.81,15.08-4.55,21.85a62.3,62.3,0,0,1-6,8.33c-4.21,5.34-8.59,10.55-12.78,15.9-4,5.14-7.15,10.68-6.38,17.62Zm0,0" transform="translate(-11.17 -15.5)"/><path class="cls-3" d="M348.43,131.31c2.89-.08,5,.92,6.22,3.79.42,1,1.82,1.6,2.43,2.59.89,1.42,2.08,3,2.05,4.55-.13,5.39-5,10.49-10.34,11.43-5.16.9-9.49-1.87-11.35-7.12-3.47-9.79,3.18-15.52,11-15.24Zm-5.35,11.32a27.26,27.26,0,0,0,.9,3.72c1,2.47,2.19,2.88,4.08,1,1.53-1.52,3.11-3.45,3.54-5.44.29-1.3-1.33-3.11-2.33-4.52a2.37,2.37,0,0,0-2.09-.5c-2.33.63-4,3.22-4.1,5.73Zm0,0" transform="translate(-11.17 -15.5)"/><path class="cls-1" d="M284.9,617.69c-4.14,9.25-5.4,17.85-7.24,26.29a22.45,22.45,0,0,0-.24,7,2.6,2.6,0,0,1-1.13,2.83,18.11,18.11,0,0,1-10.53,2.93c-3.09,0-8-5.32-7.33-8.8,1-5.41,2.07-10.74,4.29-15.87,3.61-8.36,6.85-16.87,10.14-25.36,4.51-11.62,9-23.23,13.31-34.93s8.18-23.33,12.34-35a25.72,25.72,0,0,1,2.86-5.66c1.2-1.76,1.77-1.58,4.39-.58,1.7.64,1.87,1.68,1.54,3.17-.58,2.63-1,5.31-1.71,7.89-3.09,10.68-6.45,21.28-9.39,32-2.64,9.64-4.82,19.4-7.28,29.1-1.38,5.43-2.91,10.83-4,14.93Zm0,0" transform="translate(-11.17 -15.5)"/><path class="cls-1" d="M302.66,514.31c2.07-4.87,6.49-6,10.77-4.75a4.21,4.21,0,0,1,1.17.65c2.76,2,3.55,7.2,1.7,11.12a7.65,7.65,0,0,1-8.25,3.78,4.4,4.4,0,0,1-.62-.18c-3-1.27-5.79-7.57-4.77-10.62Zm0,0" transform="translate(-11.17 -15.5)"/><path class="cls-3" d="M234.79,609.8c-7.12,9.56-16.4,14.39-28.59,13.85-7.25-.32-13.85-2.61-20.56-4.86a23.74,23.74,0,0,1-12.43-9.22c-1.78-2.58-3.81-5-5.53-7.62a28.68,28.68,0,0,1-2.44-5.16c-2.05-5.24-3.66-10.57-3.61-16.31a24.22,24.22,0,0,1,1.69-8.48,39.21,39.21,0,0,1,7.9-13.21,48.27,48.27,0,0,1,18.64-12.95c5-1.88,10.26-3.3,15.47-4.68,7.16-1.92,14.4-3.51,21.56-5.42,11.76-3.14,22.21-8.55,30-18.2a44.65,44.65,0,0,0,3.05-4.83c.63-1,1.34-1.9,2.69-1.24,1.19.59,1,1.68.72,2.66a25.14,25.14,0,0,1-4.89,9.9c-3.48,4-6.78,8.19-11.54,10.7a83.26,83.26,0,0,1-12.21,5.66c-8.94,3-18,5.57-27.09,8.15a105.09,105.09,0,0,1-11.52,2.52,15.27,15.27,0,0,0-9.82,6q-3.22,4.11-6.28,8.35c-5.73,7.92-6.83,16.48-3.21,25.53,1.58,4,3.4,7.83,5.35,11.62,4.86,9.41,18.69,16.73,30.88,13.11,5.59-1.66,9.65-5.1,13-9.65.6-.82,1.12-1.69,1.65-2.56a10.18,10.18,0,0,0-1.41-12.71c-1.51-1.54-2.55-1.61-4.32-.06a11.15,11.15,0,0,1-9.6,3,6.88,6.88,0,0,1-5.11-9.55c2.62-6.13,10.08-10.53,16.7-9.35,2.92.52,5.67,2,8.48,3.12a1.6,1.6,0,0,1,.78.62c3.42,5.8,7.23,11.47,5.77,18.78a27.21,27.21,0,0,0-.57,4.67c-.08,3.16-1.89,5.46-3.59,7.88Zm0,0" transform="translate(-11.17 -15.5)"/><path class="cls-3" d="M260.89,497.5c2.15-1.95,4.59-3.39,7.7-3.27a4.54,4.54,0,0,1,1.89.62c2.7,1.49,3.82,5.71,2.42,8.93-1.28,2.94-3.88,4.09-7.18,3.18-1.79-.49-5.63-5.57-5.54-7.46a8.08,8.08,0,0,1,.71-2Zm0,0" transform="translate(-11.17 -15.5)"/><path class="cls-3" d="M94,487.47c-2.77-1.13-4.24-4.5-5.68-7.66-1.72-3.78-.93-6.72,2.76-8.82A107.93,107.93,0,0,1,106,464a183.42,183.42,0,0,1,19.64-6.35c11.39-2.94,22.15-7.48,33-11.8a61.26,61.26,0,0,1,11.67-2.88,5.84,5.84,0,0,1,6.38,3.09c1.37,2.39.75,4.16-1.81,5.32-13.72,6.22-27.38,12.57-41.19,18.57-7.93,3.44-16.2,6.07-24.14,9.46-5.09,2.19-9.87,5.1-15.57,8.09Zm0,0" transform="translate(-11.17 -15.5)"/><path class="cls-3" d="M194.07,430.25c3.65-.54,3.86,2.95,5.1,4.51a15.86,15.86,0,0,1,3.2,7.4c.52,3.92-2.14,6.43-6.06,5.75-2.73-.47-5.34-2-7.83-3.31-.59-.32-.52-1.92-.69-2.94-.65-3.83-.86-7.6,2.84-10.16a14.49,14.49,0,0,1,3.44-1.25Zm0,0" transform="translate(-11.17 -15.5)"/><path class="cls-3" d="M134.73,503.91a48.85,48.85,0,0,1,19.18-11A130.71,130.71,0,0,1,183,488.22c7.32-.45,14.48-2.35,18.84-9.46,1.29-2.09,4.37-2.21,6.17-.76,2,1.62,1.6,3.11.57,5.39-5.24,11.67-15.61,13.09-26.45,13.82-10.46.7-21,1.43-30.54,6.22-7,3.52-13.36,8.17-15.5,16.36-1.64,6.29-1.92,12.49,3.48,17.52a15.69,15.69,0,0,0,13,3.93c4.87-.61,10.17-1.07,14.09-4.57a72.88,72.88,0,0,0,8-8.86c1.19-1.48,1.11-3.24-.59-4.78a17.49,17.49,0,0,1-3.46-4.42c-.46-.84-.43-2.9,0-3.11a5,5,0,0,1,3.6-.12c5.1,1.93,6.82,6.44,7.31,11.24a14.14,14.14,0,0,1-1.68,7.36c-3.92,7.74-10.31,12.16-18.91,13.91a31.52,31.52,0,0,1-20.5-2.32,21.6,21.6,0,0,1-10.39-10.87c-4.27-9.06-1.74-17.82,1.37-26.47.61-1.71,2.26-3,3.27-4.32Zm0,0" transform="translate(-11.17 -15.5)"/><path class="cls-3" d="M221,464.13a5.06,5.06,0,0,1,.35,7c-2.38,2.4-6.65,2.71-8.63.61-1.69-1.77-1.93-7.57-.4-9.26s6.19-.91,8.68,1.63Zm0,0" transform="translate(-11.17 -15.5)"/><path class="cls-2" d="M16.53,420.18c3.28-1.48,6.26-3.25,9.5-4.21,8.11-2.4,16.32-4.48,24.52-6.59,5.78-1.49,11.55-3.14,17.43-4.13,9.44-1.58,19-2.72,28.46-3.95,8.68-1.13,17.39-2.14,26.08-3.2a3.48,3.48,0,0,0,1.24-.17c3.32-2,6.26-.62,8.48,1.61,2.43,2.45,4.64,5.41,4.33,9.22a5,5,0,0,1-1.91,2.89c-5.49,4.35-12.25,5.6-18.75,7.41-7.16,2-14.37,3.82-21.49,5.95-4.12,1.23-8.07,3-12.14,4.4-7.68,2.61-15.42,5.07-23.09,7.7-4.54,1.54-9,3.39-13.51,4.91-5.68,1.89-11.42,3.85-17.46,3.79-4.15,0-8.47-.61-11.82-3.38-5-4.16-7.07-12.26-3.22-17.68,1.11-1.58,2.28-3.11,3.35-4.57Zm14,.63c-.11-.07-.25-.2-.34-.18-5.19,1.4-9.85,3.7-12.49,8.62-2.06,3.82-1.11,10.13,4.64,11.28A25,25,0,0,0,35,440c6.36-2,12.57-4.44,18.88-6.58,5.64-1.92,11.34-3.62,17-5.52,9.13-3.08,18.18-6.38,27.35-9.33,6-1.93,12.22-3.31,18.28-5.13a82.65,82.65,0,0,0,11.15-4.1,5,5,0,0,0,2.43-3.78c-.06-1.76-4.26-3.63-6.26-3.34-7,1-14.08,2-21.12,3-9,1.31-18.1,2.51-27.11,4-4,.64-7.81,2.08-11.78,2.72a182.19,182.19,0,0,0-29.61,7.85c-1.56.53-2.85,1.91-4.19,3a12.83,12.83,0,0,0-1.53,1.81l-.51-.39,2.55-3.42Zm0,0" transform="translate(-11.17 -15.5)"/><path class="cls-2" d="M145.29,402.88c-2.4-2.73-4.9-5.15-6.9-7.94-2.59-3.64-4-7.8-2-12.18a12.5,12.5,0,0,1,8.84-7.18c3.89-.89,7.49.41,11,1.76a69.35,69.35,0,0,1,17.32,9.48,2.65,2.65,0,0,0,1.31.6c3.09.26,3.75,2.9,4.25,5,.27,1.16-1.1,2.79-1.91,4.1-1,1.62-2.18,3.13-3.28,4.69-2.55,3.64-5,7.35-7.67,10.9-2.45,3.26-4.69,6.66-8.24,9s-5.37,2.64-9.17.61c-4.11-2.18-6.72-5.48-6.78-10,0-3.31.94-6.69,3.26-8.87ZM157.72,415c1.73-2.34,3.48-4.66,5.18-7,2.9-4,5.85-8,8.64-12.12a4,4,0,0,0-1.07-5.16,35.36,35.36,0,0,0-4.41-2.76c-4-2-8.11-4-12.22-5.83-5.15-2.33-10.08-.93-13.15,3.69a4.54,4.54,0,0,0-.82,2.29c0,3.92,5,9.58,9,10.31,1.75.31,3.22,2.06,3.6,4.33.31,1.85-1.6,1.55-2.32,2.37a21.86,21.86,0,0,0-3.89,5.17c-.94,2.13.27,4.79,2,6,2.28,1.6,6.25.92,9.46-1.3Zm0,0" transform="translate(-11.17 -15.5)"/><path class="cls-3" d="M515.94,581.88c-1.57,1-1.67-.88-2.11-1.79-1-2-1.49-4.32-2.71-6.16-2.71-4.08-5.74-7.95-8.63-11.92a4.77,4.77,0,0,1-.68-1.28c-2.08-6.23-4.12-12.48-6.21-18.7a20.35,20.35,0,0,0-1.52-3.37c-3.52-6.34-3.5-13.6-5.15-20.41-1.84-7.64-3.82-15.19-8.28-21.75a22.93,22.93,0,0,0-5.33-5.11c-1.95-1.47-3.42-5.95-2.46-8.3a10,10,0,0,1,4.32-4.95,5,5,0,0,1,5.57-.08,50.52,50.52,0,0,1,8.15,6.26c4.87,5.07,9.87,10.15,13.9,15.86a93.86,93.86,0,0,1,9.14,17c3.38,7.82,6,15.94,9.08,23.9a57.89,57.89,0,0,0,12.44,19c6.65,7,14.6,10.06,24.21,9.67A44.31,44.31,0,0,0,576,565.78a11.2,11.2,0,0,0,4.1-3c5.45-6.82,10-14,7.52-23.41-1.14-4.27-1.59-8.74-3-12.9-1.08-3.19-3.17-6-4.92-9.24-1.37,3.09-2.38,5.79-3.72,8.33-2.07,3.91-6.71,5-11.12,4-7.85-1.66-10.76-7.68-13.42-14-2.58-6.08-4.59-12.39-7.1-18.51-.84-2.05-2.54-3.84-1.34-6.19.66-1.28,1.52-2.81,2.7-3.42,7.33-3.8,14.75-7.58,23.06-8.64,5.22-.67,10.59-1.36,15.76-.81,6,.64,11.4,4.54,12.55,11.22.87,5-2.12,8.9-5.75,12.14-.73.64-1.55,1.18-2.3,1.75,2.38,2.91,5,5.56,7,8.6,5.61,8.53,10.41,17.52,11.81,27.8,1,6.92.9,13.84-2.16,20.47-1.92,4.15-3.13,8.64-5.05,12.79A35.85,35.85,0,0,1,587.68,588c-5.21,3.43-10.39,6.89-16.46,8.66-9.25,2.7-18.42,4.07-28,.71-6-2.1-11.87-4.15-17.19-7.62-3-1.92-5.87-3.93-8.74-6a7.45,7.45,0,0,1-1.38-1.88ZM480,484l-.58.68c.58,1.13,1.06,2.31,1.73,3.37,2.69,4.18,6.14,8,8,12.54,2.27,5.48,3.27,11.49,4.72,17.29,1.17,4.68,2.1,9.42,3.34,14.09a73.68,73.68,0,0,0,2.54,6.92c2.08,5.55,3.64,11.36,6.38,16.56,3.64,6.92,8.18,13.38,12.4,20a14.93,14.93,0,0,0,3.13,3.78,76,76,0,0,0,24.53,12.44c9.92,3.09,19.43,1,28.66-2.72,3.53-1.42,6.63-3.87,10.05-5.61a23.42,23.42,0,0,0,10.56-10.56,93.17,93.17,0,0,0,5.23-12c1.43-4.22,3-8.64,3.11-13,.27-10.29-4.36-19.31-9.12-28.07a38.38,38.38,0,0,0-13.25-14.34,4.13,4.13,0,0,1-1.76-3.17c.12-.95,1.56-1.85,2.58-2.5.72-.46,1.79-.34,2.6-.7,1.76-.79,3.84-1.36,5.08-2.69,1.52-1.62,3.32-4,3.2-5.91-.19-3.06-2.89-5.24-5.78-6.3-6.61-2.4-13.17-.43-19.56,1.13-5.06,1.25-9.92,3.31-14.84,5.13-2.85,1.05-3.55,2.57-2.58,5.6,1.2,3.74,2.55,7.44,3.9,11.13,2,5.55,3.26,11.5,9.18,14.82,2.3,1.29,5.88,3,7.49,1.45a11.52,11.52,0,0,0,3.18-5.89c.45-2.32-.34-4.85-.31-7.28,0-1,.73-2.72,1.22-2.76,1.35-.09,3.24.08,4,1,3.86,4.21,7.86,8.4,9.83,14a40.24,40.24,0,0,1,2.24,7.23,131.9,131.9,0,0,1,1.63,15.34c.24,7.25-3.81,13-7.61,18.66-2.58,3.84-5.87,7.38-10.31,8.91-6.4,2.21-12.93,4-19.91,3.71-5.41-.21-14.08-2.07-19.76-7.59-2.21-2.16-4.31-4.43-6.48-6.66l-.72.85h-.69c0-.7.22-1.55-.08-2.1-2.91-5.13-6.45-10-8.77-15.36-4.46-10.34-8.12-21-12.37-31.46-1.53-3.77-3.25-7.72-5.84-10.77-4.9-5.79-10.45-11.05-15.86-16.4-1.19-1.18-2.9-1.84-4.37-2.74Zm0,0" transform="translate(-11.17 -15.5)"/><path class="cls-3" d="M469.32,481.1c-2.95,5.57-9.86,8.16-14.78,4.66a19.82,19.82,0,0,1-7.14-9.32c-.88-2.75.45-6.78,2-9.63,3.67-6.94,14.59-7.94,20-2.21,2.81,3,3.45,10.4,1.23,14.38-.4.72-.86,1.41-1.28,2.12Zm-5.83-12.92c-2.07-2.36-8.32-1.23-9.4.32-1.82,2.6-.43,8.29,2.53,10.4s7.86,1.31,9.71-1.39.38-7.07-2.84-9.33Zm0,0" transform="translate(-11.17 -15.5)"/><path class="cls-1" d="M633.89,294.6c10,1.75,18.63.86,27.26.57a22.37,22.37,0,0,0,6.88-1.49,2.62,2.62,0,0,1,3,.4,18.14,18.14,0,0,1,5.42,9.49c.75,3-3.21,9.05-6.74,9.27-5.5.34-10.92.62-16.44-.27-9-1.46-18-2.51-27.07-3.62-12.36-1.52-24.73-3.06-37.13-4.34s-24.62-2.21-36.93-3.39a25.34,25.34,0,0,1-6.19-1.39c-2-.72-2-1.32-1.64-4.11.2-1.8,1.17-2.22,2.69-2.27,2.69-.08,5.39-.37,8.07-.28,11.11.38,22.22,1,33.33,1.26,10,.2,20-.08,30-.07,5.6,0,11.21.17,15.46.24Zm0,0" transform="translate(-11.17 -15.5)"/><path class="cls-1" d="M529.3,302.72c-5.22-.82-7.41-4.82-7.23-9.28a3.74,3.74,0,0,1,.34-1.29c1.27-3.17,6.1-5.21,10.37-4.37a7.63,7.63,0,0,1,5.67,7.06,2.81,2.81,0,0,1,0,.65c-.5,3.18-5.91,7.47-9.13,7.23Zm0,0" transform="translate(-11.17 -15.5)"/><path class="cls-2" d="M55.55,377.15c-11.91-.5-21.13-5.44-27.55-15.82-3.82-6.17-5.65-12.91-7.57-19.72A23.75,23.75,0,0,1,21,326.15c1.13-2.93,2-6,3.19-8.87a28.63,28.63,0,0,1,2.88-4.92c3.18-4.65,6.68-9,11.45-12.18a24.3,24.3,0,0,1,8-3.37,39,39,0,0,1,15.35-.92A48.26,48.26,0,0,1,83.08,304c4.39,3.11,8.5,6.63,12.58,10.14,5.62,4.84,11,9.93,16.63,14.77,9.22,7.94,19.57,13.53,32,14.53a42.09,42.09,0,0,0,5.71-.2c1.2-.06,2.32,0,2.53,1.53.18,1.31-.83,1.77-1.79,2.09a25,25,0,0,1-10.94,1.53c-5.22-.64-10.58-1-15.34-3.5a81.78,81.78,0,0,1-11.55-6.9c-7.51-5.7-14.76-11.74-22-17.78a109.27,109.27,0,0,1-8.57-8.1,15.29,15.29,0,0,0-10.46-4.76q-5.22-.34-10.44-.49c-9.76-.26-17.46,3.65-22.9,11.74-2.38,3.53-4.55,7.22-6.58,11-5,9.32-3.3,24.87,6.57,32.9,4.51,3.68,9.65,5.1,15.29,5.28,1,0,2,0,3-.08a10.17,10.17,0,0,0,9.71-8.32c.42-2.12-.11-3-2.38-3.61a11.14,11.14,0,0,1-7.88-6.25,6.89,6.89,0,0,1,5-9.6c6.55-1.29,14.39,2.4,17.14,8.53,1.21,2.71,1.51,5.83,2.2,8.77a1.59,1.59,0,0,1-.07,1c-2.86,6.09-5.4,12.43-12.27,15.34a27.61,27.61,0,0,0-4.18,2.17c-2.66,1.71-5.58,1.51-8.53,1.47Zm0,0" transform="translate(-11.17 -15.5)"/><path class="cls-2" d="M163,335.44c2.83.67,5.39,1.88,7,4.52a4.61,4.61,0,0,1,.56,1.91c.29,3.07-2.56,6.37-6,7-3.16.6-5.57-.9-6.68-4.14-.6-1.75,1.43-7.8,3-8.78a8.32,8.32,0,0,1,2.05-.54Zm0,0" transform="translate(-11.17 -15.5)"/><path class="cls-1" d="M370.93,668.1c-2.62,5.1-5.33,10.19-10.6,13.07-2.87,1.56-5.83,2.77-9.45,1.64-6.44-2-10.37-6.35-11.18-13-.55-4.48-1.49-8.93-1.89-13.42-.64-7.21-1.14-14.44-1.36-21.67-.17-5.63,0-11.28.36-16.9.33-5.86.77-11.73,1.55-17.55,1.09-8,2.48-16,3.86-24a164,164,0,0,1,3.28-16.54c1.35-4.79,2.14-9.85,5.11-14.1.81-1.16,1.51-2.19,3.15-1.63s3.24,1,3.47,3.1c.45,4.23,1,8.45,1.41,12.69a100.82,100.82,0,0,0,3.49,17.87c1.2,4.23,1.81,8.62,2.78,12.92,2.25,9.85,4.26,19.75,8.54,29,2.11,4.58,3.68,9.41,5.59,14.1,1.2,3,2.47,5.9,3.87,8.78,1.88,3.87,4.23,7.54,5.79,11.53,1.93,5,2.7,10.15.28,15.27a8.89,8.89,0,0,1-13.17,3.09c-1.68-1.29-3.2-2.78-4.88-4.27Zm-1.32-5.44a12.45,12.45,0,0,1,2.69,1.52c.91.88,1.45,2.16,2.38,3,1.38,1.29,2.79,2.81,4.49,3.44,3.69,1.35,7.74-1.73,8.21-6,.58-5.24-1-9.93-3.68-14.42a103.51,103.51,0,0,1-6.23-11.84c-3-6.75-5.66-13.62-8.28-20.5a107.56,107.56,0,0,1-3.92-12.2c-1.69-6.86-3-13.79-4.56-20.69-1.45-6.55-3.09-13.07-4.34-19.65-.89-4.63-1.24-9.36-1.89-14-.18-1.27-.58-2.5-.88-3.76h-.72a41.78,41.78,0,0,0-2.74,6.28c-1.56,6.07-3,12.19-4.21,18.34-1.67,8.64-3.13,17.33-4.55,26a99.19,99.19,0,0,0-1.16,10.44c-.25,4.46-.22,8.93-.34,13.4s-.47,9.19-.41,13.78a131.82,131.82,0,0,0,.78,13.62q1.23,10.82,3,21.57a11.12,11.12,0,0,0,2.42,5c4.84,5.86,13.48,3.89,17.45-.92a34.63,34.63,0,0,0,6.46-12.33Zm0,0" transform="translate(-11.17 -15.5)"/><path class="cls-1" d="M339.15,530.63a14.35,14.35,0,0,1,3.85-9.91c3.4-3.61,7-7,10.71-10.35,2.1-1.9,5.17-1.74,6.45,1.4.52,1.28,1.81,2.27,2.81,3.34,3.62,3.87,7.22,7.69,8.5,13.15.87,3.76-3.06,10.28-8.74,9.31-2.36-.4-4.55-1-6-3.19-.54-.83-1-.71-2,0-3.67,2.55-7.69,4.27-12.27,2.56-2.73-1-3.53-2.93-3.37-6.27ZM358,526.71l.69.36a7.18,7.18,0,0,1,.07,2.11c-.71,2.56-.22,3.78,2.24,5.07,1.81,1,4.11.83,5.3-.29,1.77-1.69,2.82-4.68,2-6.32a20.39,20.39,0,0,0-2.45-3.89c-2.62-3.18-5.33-6.29-8-9.38-1-1.11-2.19-1.42-3.41-.3-1.45,1.34-2.76,2.84-4.29,4.07a23.88,23.88,0,0,0-7.55,9.66c-.78,1.92-1.07,4,.28,5.74,1.24,1.61,3.06,1,4.7.78,2.93-.38,5-2.17,6.88-4.29,1.08-1.21,2.39-2.22,3.59-3.32Zm0,0" transform="translate(-11.17 -15.5)"/><path class="cls-3" d="M202.08,188.65c-3.7-2.18-6.86-4.08-10.06-5.92-2.88-1.66-5.87-3.15-8.69-4.91-4.25-2.67-8.36-5.56-12.59-8.27-1.75-1.12-3.68-2-5.47-3-4.07-2.35-8.16-4.65-12.12-7.17a39.08,39.08,0,0,1-4.28-3.79c-1.49-1.3-3.11-2.45-4.51-3.84-2.32-2.31-3.3-5.32-3.88-8.44a8.66,8.66,0,0,1-.14-3.94c.91-2.95,5.46-4.82,8.93-3.68a43.82,43.82,0,0,1,13.28,7.4c5.51,4.35,10.87,8.9,16.53,13,5.9,4.31,12.11,8.18,18.12,12.33,3,2,5.77,4.27,8.65,6.41a21,21,0,0,0,1.79,1.35c4.6,2.75,5.4,7.1,2.1,11.21-.68.85-1.05,2-1.77,2.77a2,2,0,0,1-1.77.48c-1.6-.65-3.11-1.52-4.12-2Zm1.27-1.82c.74.2,2,.94,2.92.7,1.78-.45,3.07-4,2-5.53a20.88,20.88,0,0,0-4.29-4.74c-4.44-3.39-9.05-6.56-13.61-9.78-3.59-2.53-7.21-5-10.81-7.52-1.53-1.06-3.12-2-4.57-3.2-3.28-2.64-6.45-5.41-9.75-8-2.71-2.15-5.53-4.17-8.3-6.24a21.3,21.3,0,0,0-9.34-4.35c-2.66-.43-5.68,1.86-5.05,4.15s1.29,4.67,2.78,6.22c3.52,3.7,7.54,6.92,11.36,10.33,1.62,1.43,3.8,1.81,5.59,3,2.35,1.54,5.09,2.49,7.49,4,6.65,4.05,13.22,8.23,19.81,12.38,4.47,2.8,8.93,5.62,13.75,8.66Zm0,0" transform="translate(-11.17 -15.5)"/><path class="cls-3" d="M222.31,185.42c5,2.49,7.85,6.43,7.05,12.35a7,7,0,0,1-1.94,3.74c-2,2-4.2,4.33-7.43,3.23-3.57-1.21-6.64-3.21-7.51-7.34-.16-.79-.42-1.56-.6-2.35-.89-3.92-.1-6,3.19-8.29a6.61,6.61,0,0,0,.58-.47c2.13-1.92,4.38-2.61,6.66-.87Zm3.41,13.8c1.34-3.85,1.34-6.84-1.58-9.62-3.21-3.06-3.46-3.28-6.39-1.39-1.57,1-3.66,2.13-3.52,4.39a17.19,17.19,0,0,0,1.45,5.66,5.5,5.5,0,0,0,5.6,3.27c1.72-.15,3.33-1.69,4.44-2.31Zm0,0" transform="translate(-11.17 -15.5)"/><path class="cls-3" d="M492.87,100.29c2.21-.72,4.46-1.51,6.75-2.18a2.79,2.79,0,0,1,2,.08c2.67,1.65,5.2,3.53,5.51,7s-1.73,5.56-4.43,7.17c-4.13,2.46-8.46,3.35-13.2,1.83-4.5-1.46-9-3.06-11.7-7.15a29.09,29.09,0,0,1-3.32-8.57c-1.88-7.3,1.74-12.91,6-18.33,3.92-5,9.5-7.42,15.29-8.54A27.09,27.09,0,0,1,515,74.79c4.65,2.68,7.74,6.68,11.36,10.17,4.15,4,6.26,9.4,8.06,15a27.28,27.28,0,0,1,.47,17.12,19.91,19.91,0,0,1-3.16,5.69,40.18,40.18,0,0,1-18.49,13.87c-8.87,3.38-17.47,7.48-26.12,11.42-5.85,2.68-11.63,5.53-17.34,8.49a80.42,80.42,0,0,0-8,5,40.14,40.14,0,0,0-3.6,3.06,3.91,3.91,0,0,1-4.51,0,8.44,8.44,0,0,1-2-2.16c-.93-1.94-1.79-3.75-.6-6.21a28.81,28.81,0,0,1,8.41-9.81,105.12,105.12,0,0,1,10.28-7.63c3.73-2.3,7.79-4.05,11.74-6,2.5-1.22,5.05-2.34,7.59-3.49,1-.43,2-.75,2.91-1.22,4.67-2.29,9.54-4.26,13.91-7,3.93-2.49,7.64-5.54,10-9.75,2.64-4.69,2.37-9.34-.62-13.82-1.13-1.7-2-3.64-3.47-5-2.39-2.31-4.88-4.93-8.48-5a11.36,11.36,0,0,0-9.52,4.26c-1.48,1.89-2.47,4.21-1.24,6.8a6.35,6.35,0,0,1,.34,1.83Zm-13-15.45c-3.62,6.23-4.83,10.83-2.37,15.76a7.81,7.81,0,0,1,.4,1.4c.88,3.37,2.57,6.1,5.85,7.64,6.09,2.88,12.16,3.94,18.21,0,2.14-1.42,2.81-3.62,1.77-5.66s-4.35-3.67-6.21-2.69a20,20,0,0,0-4.24,3.23c-1.12,1-2,1.25-2.42-.35-.55-2.38-.75-4.83-1.16-7.24s.64-4.75,2-6.61c3-4.17,7.51-5.51,12.46-5.27a7.51,7.51,0,0,1,3.94,1.32,65.29,65.29,0,0,1,7.74,6.62,17.62,17.62,0,0,1,4.66,10.31c.73,5.94-2.07,10.61-6.21,14.48-3.13,2.92-6.36,5.71-10.4,7.49-6.25,2.74-12.39,5.74-18.53,8.71-4.74,2.29-9.52,4.52-14.1,7.12a74.07,74.07,0,0,0-8.68,6.14,27.6,27.6,0,0,0-7.93,8.75,4.75,4.75,0,0,0-.12,4.44c.61,1.38,1.57,1.64,2.75.71a28.1,28.1,0,0,1,5.21-3.5c5-2.46,9.75-5.48,14.85-7.69C484,147,490,142.84,497,140.55c6-2,11.81-4.79,17.64-7.37a30.45,30.45,0,0,0,10.83-7.33,46.23,46.23,0,0,0,4.43-5.72,18.06,18.06,0,0,0,2.86-5.91,22.19,22.19,0,0,0,.21-8.12c-1.63-8.9-5.19-16.89-12-23.16-1.73-1.59-3.13-3.67-5.08-4.9A27.22,27.22,0,0,0,496.32,74c-8,1.32-13.21,6.29-16.41,10.85Zm0,0" transform="translate(-11.17 -15.5)"/><path class="cls-3" d="M450.84,180.18a8.42,8.42,0,0,1-8.48,4.08,7.61,7.61,0,0,1-6.62-5.26c-1-2.79,1.38-8.13,4.28-9.81,3.37-1.95,7.14-1.8,9.9.91a7.39,7.39,0,0,1,1.8,4.5c.12,1.83-.55,3.72-.88,5.58ZM439.46,174c-1.6,2.86-1,5.36,1.56,6.82a5.76,5.76,0,0,0,7.34-2c1.08-1.92.37-6.18-1.19-7-3.37-1.83-5.5-.81-7.71,2.23Zm0,0" transform="translate(-11.17 -15.5)"/><path class="cls-3" d="M649.32,473.26,631,481.11c-1.36.58-2.75.92-2.91,3-.1,1.26-1.38,1.95-2.85.8-4.15-3.24-8.32-6.45-12.56-9.57-5.1-3.76-10.21-7.5-15.42-11.09-4.64-3.19-9.49-6.07-14.14-9.23-4.42-3-8.61-6.37-13.1-9.27-5-3.26-10.22-6.3-15.46-9.22-5.77-3.21-11.66-6.21-17.54-9.24-1.37-.7-2.89-1.1-4.31-1.72-2.16-.95-2-2.89-1.31-4.46.87-2,1-3.54-.37-5.41a4.5,4.5,0,0,1-.54-3.67c.24-.65,2-.78,3.16-1,2-.43,4-.85,6.07-1.13.79-.11,2-.17,2.38.28,3.57,4,8.78,4.47,13.32,6.29,8.82,3.53,17.72,6.86,26.65,10.08,4.1,1.48,8.39,2.41,12.53,3.8,3.11,1.05,6,2.63,9.17,3.64,7.54,2.45,15.09,4.88,22.73,7,3.85,1.05,7.94,1.24,11.87,2.07a19.16,19.16,0,0,1,6.16,2.31c.83.53.93,2.4,1.12,3.69.17,1.11-.32,2.36,0,3.38,1,3.08,2.2,6.06,3.23,9.12.39,1.16.42,2.45.76,3.64a20.82,20.82,0,0,0,1.45,4c1.11,2.12.63,3.83-1.81,4.14Zm-7.74-.84-.15-.36,2-.84c3.64-1.5,3.77-1.67,2.74-5.35-1.11-4-2.6-7.86-3.4-11.9-.91-4.62-4.11-6-8-6.42-9.2-.9-17.68-4.34-26.33-7.18-5.46-1.79-10.79-4-16.23-5.82-6.59-2.25-13.26-4.25-19.83-6.56-9.16-3.23-18.28-6.61-27.38-10-2-.74-3.81-1.93-5.79-2.73a4.17,4.17,0,0,0-2.72-.11,2.21,2.21,0,0,0-.53,2.06c1,1.86,1.85,4,3.42,5.23,3.45,2.64,7,5.37,11,6.95,7.19,2.87,12.89,7.94,19.35,11.88,5.44,3.31,10.59,7.11,15.92,10.61,3.59,2.35,7.38,4.4,10.88,6.85,6.08,4.26,12,8.74,18,13.09q4.89,3.54,9.89,7a2.06,2.06,0,0,0,1.64.28c5.19-2.17,10.36-4.4,15.53-6.62Zm0,0" transform="translate(-11.17 -15.5)"/><path class="cls-3" d="M511.26,398.81c4-1.25,7.68-.87,10.68,1.43,1.41,1.08,2.23,3.37,2.61,5.25a49.22,49.22,0,0,1,.43,7.71,1.89,1.89,0,0,1,0,.53c-.5,2.19-6.62,6.18-8.92,5.78-10.2-1.78-11.78-11.2-7.53-18.73.54-1,2-1.43,2.76-2Zm2.75,4.34c-3.16,1.35-4.68,5.63-2.86,8.55,1.15,1.84,2.39,4,5.15,3.4s5.93-5.25,5.58-8.15c-.47-3.79-4-5.49-7.87-3.8Zm0,0" transform="translate(-11.17 -15.5)"/><path class="cls-1" d="M467.62,587.7c.33,1.5.51,2.28.68,3.07,1.33,6-2.16,11.79-8.32,12.69a10.49,10.49,0,0,1-7-1.86c-6.15-4.43-6-14.3-1.36-19,2.15-2.16,3.47-4.91,6.44-6.55,4.86-2.67,10-3,15.26-3.57,7.26-.74,12.36,3.68,17.34,7.88,5.85,4.92,9.16,11.52,11,18.91,2.29,9.44.05,18.16-4.14,26.58-2.17,4.37-5.33,7.92-8.58,11.55-7.42,8.28-17.32,10.16-27.42,11.64A100.9,100.9,0,0,1,446,650.15c-6.52-.09-13.33-.28-19.06-3.54-4.43-2.52-8.21-6.36-11.84-10a50.44,50.44,0,0,1-12.28-20.24c-2-6.3-1.46-12.66-.73-19.1.88-7.83,4.16-14.72,7.44-21.7,5.29-11.24,5.79-22.55-.24-33.79-2.23-4.14-4.21-8.42-6.3-12.63a1.09,1.09,0,0,0-.1-.25c-2.59-3.3-1.83-5.6,2.36-7.06.86-.3,1.69-.62,2.56-.88,3.55-1.09,4-.67,5.73,2.69,1.18,2.37,3.11,4.35,4.4,6.67,3.47,6.22,7.33,12.32,9.93,18.9,1.55,3.9,1.43,8.63,1.33,13-.16,6.42-.95,12.83-1.52,19.23s-1.59,12.78-1.69,19.18c-.09,6,1,12.12,5.14,16.89,3.41,3.9,8.5,4.65,13.24,5.93,7,1.89,14.1,1.35,21.21,1.39,4.52,0,7.49-1.9,8.6-6.06,1.81-6.72,3.26-13.54,4.75-20.35.53-2.41-.67-4.06-2.78-5.27-1.85-1.05-3.53-2.37-5.31-3.53-.88-.57-1.81-1-3.23-1.86Zm-58.68-61.63-.67.43c-.06.58-.35,1.26-.15,1.73,1.65,3.74,3.72,7.33,5,11.18,2.07,6.17,4.25,12.41,5.2,18.79.77,5.12-1.37,10.2-3.51,15-4.32,9.68-9.58,19.13-9,30.2a58,58,0,0,0,2,13.67c2.06,6.89,6.53,12.5,11.52,17.58a44.53,44.53,0,0,0,8.19,6.91c5,3.07,10.83,3.75,16.54,3.74,10.7,0,21.39,0,31.62-4.4a37.05,37.05,0,0,0,12.68-8.56c6.62-7.05,8.91-16.07,9.9-25.21.85-7.93-2.49-14.92-7.74-21-5-5.79-10.72-9.6-18.78-9.07s-15.44,2.55-18.5,12.74a7.23,7.23,0,0,0,3.24,7.84c1.65,1,5.08.31,6.72-1.45,1.38-1.47,1.77-5.49.27-7-1.88-1.94-1.12-3.59.12-5.12,1.09-1.34,4.82-1.09,6.28-.08,3.79,2.59,7.53,5.3,11.54,7.52,1.73.95,2.24,2.14,1.95,3.58-1.71,8.66-3.58,17.29-5.41,25.92a6.78,6.78,0,0,0-.4,1.82c.37,4.33-1.37,4.83-4.37,5.5-10.37,2.31-20.79,1.74-31.11-.46-3-.64-6.29-1.38-8.84-3-2.9-1.86-6-4.36-7.46-7.33a35.48,35.48,0,0,1-3.7-21.05c1.45-11.18,2-22.48,3-33.72a27.73,27.73,0,0,0-2.44-15.17c-2.08-4.16-4.15-8.35-6.63-12.28a112.13,112.13,0,0,0-7-9.17Zm0,0" transform="translate(-11.17 -15.5)"/><path class="cls-1" d="M400.81,516.85c-3.27,2.38-4,2.35-7.29-.16-2.69-2-3.53-4.57-2.63-7.38.78-2.45,1.17-4.9,3.39-6.79,3.86-3.29,9.92-1.89,12,4a10.82,10.82,0,0,1-1.12,9.31c-1.15,2-2.33,3-4.38,1Zm2-3.91c0-1.32,0-2.11,0-2.89,0-2.16-.68-4.09-3-4.46-1.07-.17-3,.35-3.33,1.12a15.17,15.17,0,0,0-1.2,5.69c0,.56,1.26,1.42,2.09,1.69.4.12,1.39-.69,1.67-1.3,1.09-2.3,2.22-1.39,3.8.15Zm0,0" transform="translate(-11.17 -15.5)"/><path class="cls-3" d="M547,345.14c.86-.75,1.76-1.45,2.57-2.25a7.46,7.46,0,0,1,8.64-1.75,76.58,76.58,0,0,1,13,7.14c3.25,2.28,5.9,5.45,8.74,8.3s5.83,5.33,7.88,8.83a89.24,89.24,0,0,0,7,10.5c5.38,6.82,10.06,14.28,17.22,19.56,2.25,1.66,4.06,3.95,6.38,5.48,8.26,5.45,17.37,8,27,4.83,8.72-2.84,15.8-8.09,19.58-17,3-7.21,2.07-13.87-1.93-20.24a50.62,50.62,0,0,0-6.1-8c-1.55-1.62-3.83-2.55-5.78-3.79l-.93.85a17,17,0,0,1,2.24,3.73,8.86,8.86,0,0,1-2,8.57,34.91,34.91,0,0,1-5.62,5.77c-5.42,3.93-11.79,2.45-16.51-.89-6.21-4.41-7.32-11.06-7.73-18.15a20.4,20.4,0,0,1,2.23-11.42c3.43-6,7.49-12,14.89-13.23,7.7-1.32,15.32-2,22.92,2.2,7.18,4,11.91,9.7,16,16.36.78,1.27,1.9,2.33,2.63,3.62a120.19,120.19,0,0,1,6.52,12.2c1.11,2.67,1.24,5.79,1.6,8.72.65,5.23-.28,10.33-1.56,15.37-1.22,4.81-4.21,8.65-7.26,12.34a84.08,84.08,0,0,1-10.28,10.8c-2.9,2.45-6.55,4.07-10,5.84-10.07,5.19-20.92,6-31.77,4.14a101.57,101.57,0,0,1-20.73-6.38c-3.36-1.36-6.15-4.35-8.9-6.92-3.48-3.27-6.78-6.75-9.92-10.35a82.29,82.29,0,0,1-6-8.18c-3.05-4.52-6-9.12-8.93-13.72-2.14-3.37-4.18-6.8-6.27-10.21a3.6,3.6,0,0,0-.56-.82c-2.53-2.27-4.15-5.24-6.21-7.84-2.73-3.46-6.55-6.05-9.75-9.17a30.59,30.59,0,0,1-3.12-4.27c.28-.16.56-.34.83-.52Zm6.54,2.51c1.49,1.11,2.75,2,4,3a12.48,12.48,0,0,1,2.64,2.17c2.94,3.92,5.84,7.88,8.59,11.93,3.11,4.57,6,9.28,9.06,13.89,3.87,5.81,7.7,11.64,11.72,17.33,2.37,3.35,5.64,6,8.28,9a35.14,35.14,0,0,0,14.59,9.75c1.94.75,3.92,1.38,5.91,2,3.87,1.12,7.73,2.26,11.65,3.18,1.41.34,3-.07,4.46.1a38.41,38.41,0,0,0,22.42-4.54c5.09-2.71,9.65-6.58,14.06-10.37A34.69,34.69,0,0,0,681,390.22c4.27-12,2.07-23.11-4.92-33.45-2.54-3.75-5.39-7.3-7.87-11.08a22.37,22.37,0,0,0-17-10.52,37.21,37.21,0,0,0-10.85.38,16.47,16.47,0,0,0-7.72,3.62c-3.44,3.14-6.38,6.77-7.26,11.8-1.07,6.07-.79,11.81,2.34,17.15,2.67,4.56,7.22,5.75,12.19,4.15,2.67-.86,4.16-2.77,6-4.5s2.68-4.22,1.47-6.61a8.48,8.48,0,0,0-3-3.25c-1.87-1.11-1.58-2.92-1.84-4.49-.06-.4,1.48-1.54,2.25-1.51,4.33.14,8.85.62,12.22,3.39a43.74,43.74,0,0,1,9.28,10.17c3.44,5.46,6.15,11.55,4.59,18.32A39.51,39.51,0,0,1,663.34,399c-4.76,6.3-11.32,9.66-18.24,11.76-9.71,3-19.2.17-27.47-5.16a69.63,69.63,0,0,1-14-12.52,168.48,168.48,0,0,1-16.53-21.38c-3.29-5.21-7.42-9.54-11.27-14.16-4-4.78-9.48-7.82-15.11-10.31-1.83-.81-4.33-2-7.17.44Zm0,0" transform="translate(-11.17 -15.5)"/><path class="cls-3" d="M521.56,332.3c1.75-5.26,8.09-8.92,13.2-4.91a38.13,38.13,0,0,1,4.84,4.1,8.45,8.45,0,0,1,1.61,3.69,29.22,29.22,0,0,1,.7,5.11c.28,4.31-4.72,8.83-9.31,8.28-9.07-1.1-13-7.63-11-16.27Zm15.51,10.14c-1.84-1.3-2-2.66-.39-4.13a1.8,1.8,0,0,0,.39-1.14,6.65,6.65,0,0,0-6.42-6.89c-2.76-.06-5.36,3-5.14,6.34.18,2.88,1,5.67,3.9,7.07,2.59,1.27,5.12.94,7.66-1.25Zm0,0" transform="translate(-11.17 -15.5)"/><path class="cls-3" d="M547.52,180.37c-9.9,4.71-20.09,8.84-28.5,16.25a34.11,34.11,0,0,1-9.71,5.86c-4.4,1.77-9.27-.74-10.68-6.61-.59-2.45.59-3.68,2.22-5,3.19-2.57,6.31-5.22,9.48-7.81,1.07-.87,2.28-1.57,3.28-2.5,2.72-2.54,5.25-5.29,8-7.73q8.46-7.36,17.12-14.47c3.2-2.63,6.67-4.93,9.88-7.55,2.8-2.29,5.28-5,8.13-7.23,6.62-5.19,13.4-10.18,20.06-15.32,3.19-2.47,6.24-5.12,9.4-7.63a3.69,3.69,0,0,1,2-.7c1.42-.09,2.85,0,4.27,0,6.23-.11,17.56,3.33,20.66,11.31,1.87,4.83,1,9.3-1.55,13.46-3,5-7.9,7.82-13.09,10.18-6.16,2.81-12.33,5.61-18.4,8.63-4.23,2.1-8.25,4.61-12.43,6.82-3.33,1.77-6.76,3.36-10.14,5l-10,5Zm43.13-26.66c.1.18.19.37.28.55,1.8-1,3.55-2.1,5.4-3,5.08-2.47,9.6-5.42,11.87-11,.95-2.33.86-7.12-.71-9.05-3.59-4.41-8.19-7.15-13.9-7.12-3,0-6.11,0-8.8,2.3-4.63,3.88-9.59,7.38-14.39,11.07-4.37,3.36-8.8,6.66-13,10.19-4.48,3.74-8.69,7.82-13.15,11.58-6.42,5.43-13.07,10.58-19.41,16.09-4.61,4-8.84,8.41-13.3,12.58-2.06,1.91-4.35,3.58-6.38,5.52-.58.56-1.12,2-.81,2.45a3.31,3.31,0,0,0,2.61,1.23c3.19-.47,6.43-1,8.29-4.25a4.12,4.12,0,0,1,1.51-1.28q5.35-3.08,10.76-6.08c2.22-1.24,4.41-2.53,6.69-3.65,2.73-1.33,5.58-2.4,8.29-3.76,4-2,7.89-4.32,11.93-6.29s8.09-3.45,12-5.43c8.14-4.12,16.18-8.43,24.25-12.66Zm0,0" transform="translate(-11.17 -15.5)"/><path class="cls-3" d="M478.73,212.82c-1.75-4.66-1.45-7.52,1.47-9.74,5.25-4,6.92-4.13,11.5-2,2.7,1.24,4.51,2.68,3.69,6a4.59,4.59,0,0,0,.63,2.35,6.54,6.54,0,0,1-5.65,8.67c-1.56.08-3.15.65-4.67.49a7.8,7.8,0,0,1-7-5.77Zm4-2.13c1.36,3.91,4.39,4.05,7.66,2.78.75-.3,1.4-1.74,1.47-2.71a9.24,9.24,0,0,0-.83-3.57c-1-2.78-3.16-4.11-5.2-3.36a5.08,5.08,0,0,0-3.1,6.86Zm0,0" transform="translate(-11.17 -15.5)"/><path class="cls-2" d="M73.65,274.63a8.64,8.64,0,0,0-1-1.75c-4.51-4.49-1.72-11.08,2.07-15.14,2.62-2.8,9.61-2.4,13.41.3,6.58,4.66,8.6,11,6.69,18.55a17.75,17.75,0,0,1-4.2,7.52c-4,4.17-8.81,7-14.83,7.21-2.11.08-4.21.44-6.33.62-10.84.95-20.74-1.76-28.42-9.48A39,39,0,0,1,29.54,256.1a84.28,84.28,0,0,1,.85-16.88c1.54-9.38,6.45-17.09,13.77-23.16C54.37,207.6,66.22,203,79.43,203.44,94.22,204,105.7,211,115,222.64c6.88,8.65,11.8,18.38,17.58,27.63,4.38,7,9.41,13.26,17,16.9,2.37,1.14,4.84,2.08,7.24,3.16a3,3,0,0,1,1.32,4.77c-2.71,3.94-4.51,4.56-9.2,3.53-11.79-2.57-20.75-9.52-28.28-18.48-6.63-7.9-12.75-16.23-19.47-24a39.85,39.85,0,0,0-25.17-14c-12-1.63-20.74,4.42-28,13.38-6.73,8.34-6,17.12-1.86,26.09,3.67,7.88,10.16,11.95,18.66,13,1.75.22,3.5.51,5.26.58a21.46,21.46,0,0,0,3.52-.51Zm82-1.52c-4-1.83-8-3.22-11.6-5.33-6.06-3.6-10.08-9.28-13.8-15.11-6.49-10.18-11.73-21.09-19.93-30.23-9.71-10.83-21.68-15.75-35.84-15.85-7.13-.05-13.49,3.23-20,5.61-6.13,2.24-10.8,6.49-14.67,11.39-8,10.11-8.88,22-7.25,34.24a39.15,39.15,0,0,0,7.19,17.37,30.72,30.72,0,0,0,16,11.59c7,2.38,14,1.4,21,1.17,6.63-.22,13.94-4.24,16-12.62,2.14-8.58-5.25-17.36-14-16.23a6.66,6.66,0,0,0-4.45,10.48c.9,1.18,2.1,2.13,3.12,3.23,1.69,1.8,1.22,3.72-1,4.53-6.3,2.27-12.6,1.52-18.67-.57-6.71-2.31-11-7.06-14.26-13.6-3.42-6.94-4.07-13.77-1.77-20.71,1.32-4,4-7.58,6.56-11a32.35,32.35,0,0,1,13.61-10.66c11.46-4.91,22.09-1.57,31.86,4.6,4.37,2.76,7.93,6.94,11.45,10.83,4.44,4.9,8.68,10,12.62,15.3,5.79,7.79,12.16,14.9,20.7,19.72,4.08,2.3,8.27,4.44,13.14,4.5a3.9,3.9,0,0,0,4.11-2.61Zm0,0" transform="translate(-11.17 -15.5)"/><path class="cls-2" d="M174.09,272.06a8.42,8.42,0,0,1,2,9.19,7.61,7.61,0,0,1-6.64,5.23c-2.95.34-7.6-3.21-8.57-6.41-1.12-3.73-.11-7.37,3.16-9.43a7.4,7.4,0,0,1,4.79-.72c1.82.31,3.5,1.39,5.23,2.14Zm-8.68,9.64c2.42,2.21,5,2.23,7,.05a5.76,5.76,0,0,0-.29-7.61c-1.62-1.49-5.93-1.78-7.11-.46-2.55,2.87-2,5.17.4,8Zm0,0" transform="translate(-11.17 -15.5)"/></svg>